<?xml version="1.0" encoding="iso-8859-1"?>
<!-- Generator: Adobe Illustrator 19.0.0, SVG Export Plug-In . SVG Version: 6.00 Build 0)  -->
<svg version="1.1" id="Layer_1" xmlns="http://www.w3.org/2000/svg" xmlns:xlink="http://www.w3.org/1999/xlink" x="0px" y="0px"
	 viewBox="0 0 502 502" style="enable-background:new 0 0 502 502;" xml:space="preserve">
<g>
	<g>
		<g>
			<path d="M458.333,202.323h-64.956l-77.744-84.206c-0.135-0.146-0.274-0.289-0.418-0.426
				c-10.288-9.887-19.559-16.015-33.969-16.015H174.753c-23.929,0-41.327,10.918-56.412,35.401
				c-0.061,0.098-0.119,0.197-0.176,0.298l-36.979,64.948h-5.853C33.794,202.323,0,236.118,0,277.657v58.667c0,5.523,4.477,10,10,10
				h38.874c5.052,30.55,31.756,54,63.626,54c31.88,0,58.591-23.464,63.631-54h151.743c5.052,30.55,31.756,54,63.626,54
				c31.88,0,58.591-23.464,63.631-54H492c5.523,0,10-4.477,10-10V245.99C502,221.912,482.411,202.323,458.333,202.323z M177,121.677
				h104.246c7.117,0,11.612,2.301,19.899,10.231l65.012,70.415H277v-25.646c0-5.523-4.477-10-10-10s-10,4.477-10,10v25.646h-80
				V121.677z M135.458,147.425c6.882-11.137,13.614-18.184,21.542-22.038v76.936h-52.799L135.458,147.425z M156.997,335.859
				c-0.004,0.125-0.008,0.249-0.009,0.373c-0.22,24.312-20.177,44.091-44.488,44.091c-24.311,0-44.268-19.779-44.488-44.087
				c-0.001-0.155-0.005-0.31-0.012-0.501c0.049-24.497,19.993-44.412,44.5-44.412s44.451,19.915,44.5,44.411
				C156.999,335.776,156.998,335.818,156.997,335.859z M435.997,335.859c-0.004,0.125-0.008,0.249-0.009,0.373
				c-0.22,24.312-20.177,44.091-44.488,44.091c-24.311,0-44.268-19.779-44.488-44.087c-0.001-0.155-0.005-0.31-0.012-0.501
				c0.049-24.497,19.993-44.412,44.5-44.412c24.507,0,44.451,19.915,44.5,44.411C435.999,335.776,435.998,335.818,435.997,335.859z
				 M482,289.323h-7c-5.523,0-10,4.477-10,10s4.477,10,10,10h7v17h-26.698c-4.606-31.079-31.462-55-63.802-55
				c-32.34,0-59.196,23.921-63.802,55H176.302c-4.606-31.079-31.462-55-63.802-55c-32.34,0-59.196,23.921-63.802,55H20v-17h9
				c5.523,0,10-4.477,10-10s-4.477-10-10-10h-9v-11.667c0-30.511,24.822-55.333,55.333-55.333H87h302h69.333
				c11.803,0,21.614,8.686,23.381,20H449c-5.523,0-10,4.477-10,10s4.477,10,10,10h33V289.323z"/>
			<path d="M267,156.323c5.523,0,10-4.477,10-10v-3c0-5.523-4.477-10-10-10s-10,4.477-10,10v3
				C257,151.846,261.477,156.323,267,156.323z"/>
			<path d="M306,289.323H200c-5.523,0-10,4.477-10,10s4.477,10,10,10h106c5.523,0,10-4.477,10-10S311.523,289.323,306,289.323z"/>
			<path d="M112.5,304.023c-17.535,0-31.8,14.265-31.8,31.8c0,0.127,0.002,0.254,0.006,0.386
				c0.208,17.331,14.451,31.414,31.793,31.414c17.335,0,31.573-14.071,31.793-31.409c0.004-0.13,0.006-0.26,0.006-0.391
				C144.3,318.289,130.035,304.023,112.5,304.023z M124.295,335.933c-0.058,6.446-5.35,11.69-11.795,11.69
				s-11.737-5.244-11.795-11.672c0-0.052-0.002-0.142-0.004-0.225c0.053-6.462,5.325-11.703,11.799-11.703
				c6.473,0,11.745,5.239,11.799,11.699C124.297,335.8,124.296,335.883,124.295,335.933z"/>
			<path d="M391.5,304.023c-17.535,0-31.8,14.265-31.8,31.8c0,0.127,0.002,0.254,0.006,0.386
				c0.208,17.331,14.451,31.414,31.793,31.414c17.335,0,31.573-14.071,31.793-31.409c0.004-0.13,0.006-0.26,0.006-0.391
				C423.3,318.289,409.035,304.023,391.5,304.023z M403.295,335.933c-0.058,6.446-5.35,11.69-11.795,11.69
				s-11.737-5.244-11.795-11.672c0-0.052-0.002-0.142-0.004-0.225c0.053-6.462,5.325-11.703,11.799-11.703
				c6.473,0,11.745,5.239,11.799,11.699C403.297,335.8,403.296,335.883,403.295,335.933z"/>
		</g>
	</g>
</g>
<g>
</g>
<g>
</g>
<g>
</g>
<g>
</g>
<g>
</g>
<g>
</g>
<g>
</g>
<g>
</g>
<g>
</g>
<g>
</g>
<g>
</g>
<g>
</g>
<g>
</g>
<g>
</g>
<g>
</g>
</svg>
