<svg viewBox="0 -18 512 512" xmlns="http://www.w3.org/2000/svg"><path d="m339 200c5.519531 0 10-4.480469 10-10s-4.480469-10-10-10-10 4.480469-10 10 4.480469 10 10 10zm0 0"/><path d="m73 60c5.519531 0 10-4.480469 10-10s-4.480469-10-10-10-10 4.480469-10 10 4.480469 10 10 10zm0 0"/><path d="m118.148438 325.9375 15.15625 6.503906c12.515624 5.359375 26.871093 5.359375 39.398437-.003906l15.144531-6.496094c6.769532-2.902344 13.386719-6.207031 19.804688-9.855468 8.882812 65.046874 53.1875 122.722656 116.496094 149.851562l15.15625 6.503906c12.511718 5.355469 26.871093 5.359375 39.394531-.003906l15.148437-6.496094c70.429688-30.179687 118.152344-99.144531 118.152344-174.632812v-121.308594c0-16.542969-13.457031-30-30-30h-176v-110c0-16.542969-13.457031-30-30-30h-246c-16.542969 0-30 13.457031-30 30v121.308594c0 75.585937 47.816406 144.492187 118.148438 174.628906zm373.851562-155.9375v121.308594c0 66.28125-42.609375 129.074218-106.03125 156.25l-15.144531 6.5c-7.511719 3.214844-16.132813 3.214844-23.640625 0l-15.15625-6.5c-59.914063-25.675782-100.851563-81.648438-105.554688-143.621094 14.203125-10.351562 26.757813-22.351562 37.460938-35.589844 8.984375 7.515625 20.316406 11.652344 32.066406 11.652344 12.191406 0 23.941406-4.441406 33.078125-12.5 4.140625-3.65625 4.535156-9.972656.882813-14.117188-3.65625-4.140624-9.976563-4.535156-14.117188-.878906-5.480469 4.832032-12.527344 7.496094-19.84375 7.496094s-14.363281-2.660156-19.84375-7.496094c-.144531-.132812-.300781-.242187-.453125-.363281 17.929687-27.574219 28.476563-59.269531 30.066406-92.140625h176.230469c5.515625 0 10 4.484375 10 10zm-472-140c0-5.515625 4.484375-10 10-10h246c5.515625 0 10 4.484375 10 10v121.308594c0 68.289062-43.511719 129.464844-106.03125 156.25l-15.144531 6.5c-7.515625 3.214844-16.136719 3.214844-23.640625 0l-15.15625-6.5c-63.417969-27.175782-106.027344-89.96875-106.027344-156.25zm0 0"/><path d="m213 180h-120c-5.523438 0-10 4.476562-10 10 0 38.597656 31.402344 70 70 70s70-31.402344 70-70c0-5.523438-4.476562-10-10-10zm-60 60c-24.144531 0-44.347656-17.214844-48.996094-40.011719h97.992188c-4.648438 22.792969-24.851563 40.011719-48.996094 40.011719zm0 0"/><path d="m93 120c7.316406 0 14.363281 2.664062 19.84375 7.5 4.148438 3.660156 10.46875 3.246094 14.117188-.882812 3.652343-4.140626 3.257812-10.460938-.882813-14.113282-9.136719-8.0625-20.886719-12.503906-33.078125-12.503906s-23.9375 4.441406-33.074219 12.503906c-4.140625 3.652344-4.535156 9.972656-.882812 14.113282 3.652343 4.140624 9.972656 4.535156 14.113281.882812 5.480469-4.835938 12.527344-7.5 19.84375-7.5zm0 0"/><path d="m179.925781 112.5c-4.144531 3.65625-4.539062 9.972656-.882812 14.117188 3.652343 4.140624 9.972656 4.535156 14.113281.878906 5.480469-4.832032 12.527344-7.496094 19.84375-7.496094s14.363281 2.660156 19.84375 7.496094c4.152344 3.664062 10.472656 3.25 14.117188-.878906 3.652343-4.144532 3.257812-10.460938-.882813-14.117188-9.136719-8.0625-20.886719-12.5-33.078125-12.5s-23.9375 4.4375-33.074219 12.5zm0 0"/><path d="m113 60h120c5.523438 0 10-4.476562 10-10s-4.476562-10-10-10h-120c-5.523438 0-10 4.476562-10 10s4.476562 10 10 10zm0 0"/><path d="m289 390c0 5.523438 4.476562 10 10 10h120c5.523438 0 10-4.476562 10-10 0-38.597656-31.402344-70-70-70s-70 31.402344-70 70zm70-50c24.144531 0 44.351562 17.207031 48.996094 40h-97.992188c4.644532-22.792969 24.851563-40 48.996094-40zm0 0"/><path d="m438.84375 252.5c-5.480469 4.835938-12.527344 7.5-19.84375 7.5s-14.363281-2.664062-19.84375-7.5c-4.140625-3.652344-10.460938-3.257812-14.113281.882812-3.65625 4.140626-3.261719 10.460938.882812 14.113282 9.136719 8.0625 20.882813 12.503906 33.074219 12.503906s23.9375-4.441406 33.074219-12.503906c4.144531-3.652344 4.539062-9.972656.882812-14.113282-3.652343-4.140624-9.972656-4.535156-14.113281-.882812zm0 0"/><path d="m379 200h60c5.523438 0 10-4.476562 10-10s-4.476562-10-10-10h-60c-5.523438 0-10 4.476562-10 10s4.476562 10 10 10zm0 0"/></svg>