<?xml version="1.0" encoding="iso-8859-1"?>
<!-- Generator: Adobe Illustrator 19.0.0, SVG Export Plug-In . SVG Version: 6.00 Build 0)  -->
<svg version="1.1" id="Capa_1" xmlns="http://www.w3.org/2000/svg" xmlns:xlink="http://www.w3.org/1999/xlink" x="0px" y="0px"
	 viewBox="0 0 512 512" style="enable-background:new 0 0 512 512;" xml:space="preserve">
<g>
	<g>
		<path d="M440.501,361.043c-0.059-0.097-0.117-0.195-0.176-0.293c-0.43-0.703-0.871-1.4-1.322-2.092
			c-0.248-0.382-0.498-0.763-0.752-1.141c-0.309-0.459-0.621-0.916-0.94-1.37c-0.411-0.589-0.83-1.171-1.255-1.749
			c-0.127-0.172-0.245-0.348-0.372-0.519c-0.091-0.121-0.187-0.236-0.278-0.357c-0.512-0.679-1.035-1.348-1.566-2.01
			c-0.186-0.232-0.37-0.465-0.557-0.694c-0.529-0.646-1.07-1.282-1.617-1.912c-0.228-0.263-0.453-0.528-0.683-0.788
			c-0.456-0.514-0.924-1.017-1.392-1.519c-0.349-0.376-0.695-0.754-1.05-1.123c-0.266-0.276-0.541-0.544-0.811-0.816
			c-10.356-10.482-23.117-18.137-37.485-22.367c-0.246-0.073-0.496-0.133-0.749-0.18c-0.003,0-67.797-12.594-67.8-12.595
			c-0.12-0.022-0.24-0.028-0.36-0.047c-3.172-0.516-6.413-0.091-9.322,1.183c-2.36-2.898-3.915-6.879-3.915-10.557v-12.274
			c4.285-2.736,8.446-5.811,12.462-9.269c16.801-14.466,27.382-35.347,29.665-58.126c12.336-0.57,22.195-10.784,22.195-23.258
			v-17.488c0-7.072-3.169-13.616-8.504-17.984v-40.202c24.514-12.081,29.841-26.166,29.841-36.104
			c0-17.052-15.882-38.396-41.448-55.704C335.931,18.601,301.639,0,255.999,0s-79.931,18.601-96.31,29.688
			c-25.566,17.307-41.448,38.651-41.448,55.704c0,9.938,5.327,24.023,29.841,36.104v40.202c-5.334,4.368-8.504,10.912-8.504,17.984
			v17.488c0,12.474,9.859,22.688,22.195,23.258c2.282,22.779,12.864,43.661,29.665,58.126c4.016,3.458,8.177,6.533,12.462,9.269
			v12.274c0,3.678-1.555,7.658-3.915,10.556c-3.019-1.323-6.397-1.747-9.682-1.135l-67.799,12.595
			c-0.253,0.047-0.503,0.107-0.749,0.18c-14.361,4.228-27.116,11.877-37.47,22.351c-0.277,0.279-0.557,0.554-0.83,0.836
			c-0.35,0.363-0.691,0.737-1.035,1.107c-0.473,0.508-0.945,1.016-1.407,1.535c-0.227,0.256-0.449,0.518-0.674,0.777
			c-0.55,0.633-1.093,1.272-1.624,1.921c-0.187,0.228-0.369,0.46-0.554,0.69c-0.532,0.664-1.056,1.333-1.568,2.012
			c-0.091,0.121-0.187,0.235-0.278,0.357c-0.128,0.171-0.246,0.347-0.372,0.519c-0.425,0.578-0.844,1.16-1.255,1.749
			c-0.319,0.455-0.632,0.913-0.941,1.372c-0.253,0.377-0.502,0.756-0.749,1.137c-0.451,0.693-0.893,1.391-1.324,2.094
			c-0.059,0.097-0.118,0.195-0.176,0.292c-8.289,13.659-12.648,29.169-12.648,45.346v9.144c0,4.144,3.359,7.502,7.502,7.502
			s7.502-3.359,7.502-7.502v-9.144c0-7.312,1.084-14.457,3.172-21.283c4.415,3.511,9.773,5.381,15.342,5.381
			c0.89,0,1.787-0.048,2.684-0.145c6.569-0.704,12.471-3.925,16.618-9.068l8.164-10.125c4.147-5.143,6.043-11.594,5.339-18.163
			c-0.56-5.22-2.714-10.016-6.154-13.848c2.156-0.877,4.358-1.668,6.615-2.345l43.261-8.036l34.328,48.037
			c3.436,4.806,8.816,7.456,14.396,7.456c2.341,0,4.717-0.466,6.999-1.435l2.285-0.971l9.99,11.614l-14.409,103.538H128.21v-60.833
			c0-4.144-3.359-7.502-7.502-7.502s-7.502,3.358-7.502,7.502v60.833h-30.01c-5.151,0-9.34-4.19-9.34-9.34v-37.214
			c0-4.144-3.359-7.502-7.502-7.502s-7.502,3.359-7.502,7.502v37.214c0,13.423,10.921,24.345,24.345,24.345h345.608
			c13.424,0,24.345-10.922,24.345-24.345V406.39C453.148,390.212,448.79,374.702,440.501,361.043z M108.153,361.732l-8.164,10.126
			c-1.631,2.023-3.952,3.289-6.536,3.567c-2.58,0.276-5.121-0.468-7.144-2.1l-3.131-2.524c0.672-1.198,1.376-2.374,2.11-3.527
			c0.008-0.013,0.018-0.026,0.026-0.04c0.63-0.988,1.293-1.95,1.968-2.903c0.205-0.288,0.409-0.576,0.618-0.862
			c0.602-0.824,1.221-1.633,1.856-2.429c0.164-0.206,0.325-0.415,0.491-0.619c0.717-0.879,1.457-1.737,2.214-2.58
			c0.221-0.247,0.446-0.489,0.67-0.732c0.75-0.813,1.512-1.614,2.299-2.391c0.067-0.067,0.133-0.136,0.201-0.203
			c2.901-2.845,6.046-5.451,9.413-7.789l1.644,1.326c2.023,1.631,3.29,3.952,3.567,6.536
			C110.53,357.171,109.785,359.707,108.153,361.732z M405.312,348.05l1.644-1.326c3.368,2.338,6.512,4.944,9.413,7.789
			c0.068,0.067,0.133,0.136,0.201,0.203c0.787,0.778,1.549,1.579,2.299,2.391c0.224,0.243,0.449,0.485,0.67,0.732
			c0.757,0.843,1.497,1.702,2.214,2.58c0.166,0.204,0.327,0.413,0.491,0.619c0.635,0.796,1.254,1.606,1.856,2.429
			c0.209,0.285,0.414,0.574,0.618,0.862c0.675,0.953,1.338,1.916,1.968,2.903c0.009,0.013,0.018,0.026,0.026,0.04
			c0.735,1.153,1.439,2.329,2.11,3.527l-3.131,2.524c-2.024,1.631-4.563,2.375-7.144,2.1c-2.584-0.277-4.905-1.544-6.537-3.568
			l-8.164-10.125C400.478,357.554,401.137,351.418,405.312,348.05z M315.739,326.047c0.01-0.007,0.02-0.015,0.03-0.023l1.963-1.468
			c0.349-0.261,0.796-0.362,1.222-0.285l7.869,1.462l-30.254,42.336c-0.757,1.06-2.123,1.444-3.322,0.935l-22.304-9.475
			L315.739,326.047z M255.999,351.965l-43.717-32.676c4.13-5.422,6.623-12.323,6.623-19.192v-4.392
			c11.572,4.848,23.937,7.383,37.011,7.529c0.028,0,0.056,0,0.084,0s0.056,0,0.084,0c13.074-0.147,25.439-2.682,37.011-7.529v4.392
			c0,6.87,2.493,13.77,6.622,19.192L255.999,351.965z M270.603,375.687l-6.834,7.945h-15.537l-6.834-7.945l14.602-6.203
			L270.603,375.687z M148.082,104.394c-9.642-5.944-14.836-12.51-14.836-19.003c0-13.524,18.067-31.914,34.854-43.278
			c14.956-10.123,46.262-27.108,87.899-27.108c41.637,0,72.943,16.985,87.899,27.109c16.787,11.364,34.854,29.754,34.854,43.278
			c0,6.492-5.194,13.059-14.836,19.003V90.752c0-10.595-7.171-19.828-17.44-22.453c-19.423-4.964-57.616-13.292-95.174-13.307
			c-0.034,0-0.062,0-0.096,0c-32.523,0-64.835,7.161-86.218,13.171c-9.954,2.798-16.906,11.972-16.906,22.309V104.394z
			 M174.101,130.734c-0.105-0.067-0.212-0.133-0.316-0.2c-0.486-0.311-0.954-0.624-1.409-0.938
			c-0.185-0.128-0.368-0.256-0.548-0.385c-0.372-0.264-0.733-0.53-1.083-0.796c-0.241-0.184-0.474-0.368-0.704-0.552
			c-0.276-0.22-0.547-0.44-0.807-0.661c-0.277-0.236-0.54-0.471-0.798-0.707c-0.194-0.177-0.39-0.353-0.574-0.53
			c-0.294-0.284-0.569-0.567-0.836-0.85c-0.128-0.135-0.262-0.271-0.384-0.406c-0.013-0.015-0.024-0.03-0.037-0.044h125.954
			c4.143,0,7.502-3.359,7.502-7.502c0-4.144-3.359-7.502-7.502-7.502H163.087V90.473c0-3.644,2.451-6.878,5.961-7.864
			c20.477-5.756,51.341-12.612,82.158-12.612c0.028,0,0.061,0,0.089,0c35.919,0.015,72.724,8.05,91.465,12.84
			c3.621,0.925,6.15,4.18,6.15,7.915v18.908h-20.12c-4.143,0-7.502,3.359-7.502,7.502c0,4.145,3.359,7.503,7.503,7.503h16.606
			c-0.013,0.015-0.024,0.03-0.037,0.044c-0.122,0.135-0.256,0.271-0.384,0.406c-0.268,0.283-0.542,0.566-0.836,0.85
			c-0.184,0.177-0.38,0.353-0.574,0.53c-0.258,0.236-0.521,0.471-0.798,0.707c-0.26,0.221-0.531,0.441-0.807,0.661
			c-0.23,0.184-0.463,0.368-0.704,0.552c-0.35,0.266-0.711,0.532-1.083,0.796c-0.18,0.128-0.363,0.257-0.548,0.385
			c-0.456,0.314-0.923,0.627-1.409,0.938c-0.104,0.067-0.21,0.133-0.316,0.2c-3.118,1.962-6.833,3.855-11.079,5.611
			c-0.089,0.037-0.169,0.089-0.256,0.129c-16.074,6.626-40.229,11.633-70.565,11.633s-54.491-5.007-70.565-11.633
			c-0.087-0.04-0.167-0.092-0.256-0.129C180.934,134.589,177.219,132.696,174.101,130.734z M174.809,148.168v14.616
			c-4.125-2.138-8.299-3.288-11.721-3.903v-17.434C166.306,143.734,170.176,145.992,174.809,148.168z M337.19,148.167
			c4.633-2.175,8.502-4.433,11.721-6.72v17.432c-3.422,0.615-7.596,1.766-11.721,3.904V148.167z M201.228,267.183
			c-15.365-13.229-24.44-33.055-24.898-54.394c-0.087-4.079-3.42-7.341-7.5-7.341h-5.969c-4.564,0-8.278-3.713-8.278-8.278v-17.488
			c0-2.517,1.135-4.849,3.044-6.403c2.645,0.234,7.583,1.027,11.771,3.687c0.042,0.027,0.083,0.053,0.125,0.08
			c0.591,0.382,1.165,0.803,1.716,1.264c0.064,0.053,0.128,0.107,0.191,0.162c0.268,0.231,0.531,0.469,0.786,0.721
			c0.223,0.22,0.456,0.425,0.694,0.621c0.07,0.058,0.141,0.112,0.212,0.168c0.18,0.141,0.363,0.275,0.55,0.402
			c0.074,0.05,0.146,0.101,0.221,0.149c0.254,0.164,0.511,0.319,0.776,0.458c0.001,0.001,0.003,0.002,0.004,0.003
			c0.269,0.141,0.544,0.267,0.823,0.383c0.077,0.032,0.155,0.061,0.233,0.091c0.212,0.083,0.425,0.158,0.641,0.226
			c0.081,0.026,0.161,0.052,0.243,0.075c0.283,0.082,0.568,0.154,0.856,0.211c0.005,0.001,0.009,0.002,0.014,0.003
			c0.296,0.058,0.595,0.099,0.895,0.131c0.081,0.009,0.162,0.014,0.242,0.02c0.227,0.019,0.455,0.03,0.684,0.033
			c0.052,0.001,0.103,0.007,0.154,0.007c0.033,0,0.067-0.005,0.1-0.005c0.295-0.003,0.591-0.015,0.887-0.043
			c0.008-0.001,0.016-0.001,0.023-0.001c0.303-0.03,0.606-0.077,0.908-0.135c0.085-0.016,0.17-0.036,0.255-0.054
			c0.224-0.049,0.447-0.105,0.67-0.168c0.088-0.025,0.176-0.049,0.264-0.077c0.296-0.094,0.59-0.196,0.881-0.317
			c3.868-1.615,6.367-5.363,6.367-9.551v-17.942c19.318,6.084,43.071,9.23,66.186,9.23s46.868-3.146,66.186-9.23v17.942
			c0,4.188,2.499,7.937,6.367,9.551c0.292,0.122,0.588,0.225,0.885,0.319c0.084,0.026,0.168,0.049,0.252,0.074
			c0.228,0.065,0.457,0.123,0.687,0.172c0.08,0.017,0.16,0.036,0.241,0.051c0.607,0.116,1.219,0.175,1.829,0.18
			c0.031,0,0.063,0.005,0.094,0.005c0.048,0,0.096-0.006,0.145-0.007c0.235-0.003,0.469-0.015,0.703-0.034
			c0.076-0.006,0.152-0.011,0.228-0.019c0.6-0.063,1.193-0.179,1.773-0.347c0.079-0.023,0.157-0.048,0.236-0.073
			c0.218-0.068,0.433-0.145,0.647-0.228c0.077-0.03,0.155-0.059,0.231-0.091c0.279-0.116,0.555-0.242,0.824-0.383
			c0.002-0.001,0.004-0.002,0.006-0.003c0.264-0.139,0.521-0.294,0.774-0.457c0.075-0.048,0.148-0.1,0.223-0.15
			c0.186-0.127,0.369-0.261,0.548-0.401c0.072-0.056,0.144-0.111,0.214-0.169c0.238-0.197,0.471-0.401,0.693-0.621
			c0.252-0.25,0.514-0.485,0.779-0.714c0.069-0.06,0.139-0.119,0.209-0.178c0.246-0.206,0.495-0.405,0.75-0.594
			c0.024-0.018,0.046-0.036,0.07-0.054c0.276-0.203,0.557-0.393,0.841-0.578c0.076-0.05,0.153-0.098,0.23-0.147
			c0.253-0.159,0.509-0.313,0.766-0.459c0.037-0.021,0.074-0.044,0.112-0.065c0.293-0.163,0.588-0.317,0.885-0.464
			c0.074-0.037,0.148-0.072,0.222-0.108c0.266-0.128,0.533-0.252,0.8-0.368c0.037-0.016,0.073-0.033,0.11-0.049
			c0.308-0.132,0.616-0.255,0.923-0.372c0.055-0.021,0.109-0.041,0.164-0.061c0.292-0.109,0.583-0.212,0.873-0.308
			c0.016-0.005,0.032-0.011,0.048-0.016c0.325-0.107,0.648-0.206,0.967-0.298c0.012-0.003,0.024-0.007,0.036-0.01
			c2.285-0.656,4.379-0.945,5.803-1.072c1.91,1.555,3.045,3.886,3.045,6.404v17.488c0,4.565-3.714,8.278-8.278,8.278h-5.969
			c-4.081,0-7.413,3.262-7.5,7.341c-0.458,21.339-9.533,41.165-24.898,54.394c-15.933,13.719-34.359,20.8-54.771,21.046
			C235.588,287.983,217.163,280.903,201.228,267.183z M218.751,369.004c-1.201,0.508-2.566,0.123-3.322-0.934l-30.254-42.336
			l7.869-1.462c0.428-0.078,0.873,0.024,1.222,0.285l1.963,1.467c0.011,0.008,0.021,0.016,0.032,0.024l44.793,33.481
			L218.751,369.004z M237.632,496.995l13.687-98.358h9.36l13.687,98.358H237.632z M428.804,496.995h-30.008v-60.833
			c0-4.144-3.359-7.502-7.502-7.502s-7.502,3.358-7.502,7.502v60.833h-94.275l-14.409-103.538l9.99-11.614l2.285,0.971
			c2.282,0.969,4.657,1.435,6.998,1.435c5.579,0,10.962-2.649,14.397-7.457l34.327-48.036l43.261,8.036
			c2.257,0.677,4.46,1.468,6.616,2.345c-7.934,8.864-8.523,22.455-0.819,32.01l8.165,10.126c4.147,5.143,10.048,8.363,16.617,9.067
			c0.898,0.097,1.794,0.145,2.685,0.145c5.567,0,10.926-1.871,15.341-5.381c2.088,6.826,3.172,13.971,3.172,21.283v81.268h0.001
			C438.145,492.805,433.954,496.995,428.804,496.995z"/>
	</g>
</g>
<g>
	<g>
		<path d="M358.408,428.66h-39.509c-6.758,0-12.256,5.498-12.256,12.256v21.049c0,6.758,5.498,12.256,12.256,12.256h39.509
			c6.758,0,12.255-5.498,12.255-12.256v-21.049C370.663,434.157,365.165,428.66,358.408,428.66z M321.646,459.215v-15.551h34.011
			v15.551H321.646z"/>
	</g>
</g>
<g>
	<g>
		<path d="M193.101,428.659h-39.509c-6.758,0-12.255,5.498-12.255,12.256v21.049c0,6.758,5.498,12.256,12.255,12.256h39.509
			c6.758,0,12.256-5.498,12.256-12.256v-21.049C205.358,434.157,199.859,428.659,193.101,428.659z M190.353,459.215h-34.011v-15.551
			h34.011V459.215z"/>
	</g>
</g>
<g>
</g>
<g>
</g>
<g>
</g>
<g>
</g>
<g>
</g>
<g>
</g>
<g>
</g>
<g>
</g>
<g>
</g>
<g>
</g>
<g>
</g>
<g>
</g>
<g>
</g>
<g>
</g>
<g>
</g>
</svg>
