<?xml version="1.0" encoding="iso-8859-1"?>
<!-- Generator: Adobe Illustrator 17.1.0, SVG Export Plug-In . SVG Version: 6.00 Build 0)  -->
<!DOCTYPE svg PUBLIC "-//W3C//DTD SVG 1.1//EN" "http://www.w3.org/Graphics/SVG/1.1/DTD/svg11.dtd">
<svg version="1.1" id="Capa_1" xmlns="http://www.w3.org/2000/svg" xmlns:xlink="http://www.w3.org/1999/xlink" x="0px" y="0px"
	 viewBox="0 0 211.077 211.077" style="enable-background:new 0 0 211.077 211.077;" xml:space="preserve">
<path d="M105.47,211.077c-37.51,0-68.027-30.517-68.027-68.027v-0.987h-1.488c-11.568,0-20.979-9.411-20.979-20.979v-9.606
	c0-11.567,9.411-20.979,20.979-20.979h1.488V59.58c0-11.853,5.486-23.12,14.753-30.465c-0.333-1.606-0.506-3.262-0.506-4.943
	c0-4.318,2.3-8.755,6.153-11.867c0.039-0.031,0.078-0.062,0.118-0.091l2.334-1.666c0.083-0.059,0.169-0.112,0.258-0.161
	c0.363-0.197,0.774-0.445,1.245-0.728c2.199-1.319,5.523-3.313,11.019-4.99c7.577-2.485,15.577-3.941,24.416-4.438
	c33.894-1.904,64.061,8.079,73.374,24.27c0.004,0.007,0.007,0.013,0.011,0.02c1.202,1.946,1.999,3.408,2.774,5.074
	c7.62,16.389,1.421,33.59,0.106,36.863v24.04h1.624c11.568,0,20.979,9.411,20.979,20.979v9.606c0,11.568-9.411,20.979-20.979,20.979
	h-1.624v0.987C173.498,180.561,142.981,211.077,105.47,211.077z M42.443,139.563v3.487c0,34.753,28.274,63.027,63.027,63.027
	c34.753,0,63.027-28.274,63.027-63.027v-21.19h-4.429c-0.668,0-1.309-0.268-1.777-0.742c-0.47-0.476-0.73-1.118-0.723-1.786
	c0.004-0.29,0.303-29.082-1.926-37.997c-2.013-8.056-7.763-11.271-8.006-11.404c-0.597-0.325-1.041-0.882-1.221-1.537
	c-0.18-0.654-0.092-1.357,0.255-1.941c0.032-0.055,3.431-5.876,3.581-11.457c0.023-0.88-3.689-3.057-8.553-4.406
	c-5.291-1.099-9.327-1.027-9.431-1.027c-0.021,0.001-0.042,0.001-0.063,0.001h-52c-7.519,0-14.017-1.292-19.313-3.841
	c-0.886-0.427-1.739-0.908-2.555-1.44c-2.334,2.7-5.657,7.304-5.648,10.775c0.014,5.524,3.523,11.303,3.559,11.36
	c0.361,0.589,0.464,1.302,0.283,1.968s-0.63,1.229-1.24,1.553c-0.231,0.126-5.98,3.342-7.994,11.397
	c-2.229,8.915-1.929,37.707-1.925,37.997c0.007,0.668-0.252,1.311-0.722,1.786c-0.47,0.475-1.11,0.742-1.778,0.742h-4.429V139.563z
	 M173.634,137.063h1.487c8.812,0,15.979-7.168,15.979-15.979v-9.606c0-8.811-7.168-15.979-15.979-15.979h-1.487V137.063z
	 M35.955,95.498c-8.811,0-15.979,7.168-15.979,15.979v9.606c0,8.812,7.168,15.979,15.979,15.979h1.488V95.498H35.955z
	 M166.585,116.86h1.913V66.594c-2.177-4.749-5.54-8.176-9.286-10.647c-0.299,4.373-1.991,8.562-3.147,10.971
	c2.526,1.973,6.664,6.138,8.431,13.204C166.493,88.119,166.608,109.461,166.585,116.86z M42.443,116.86h1.913
	c-0.023-7.398,0.092-28.741,2.091-36.738c1.761-7.043,5.876-11.204,8.404-13.185c-1.272-2.576-3.15-7.171-3.162-11.869
	c-0.013-5.307,4.219-11.004,6.778-13.963c-1.923-1.964-3.501-4.273-4.648-6.826c-7.177,6.391-11.377,15.622-11.377,25.302V116.86z
	 M136.651,44.478c3.389,0,23.563,0.639,33.743,15.312c0.354-1.348,0.71-2.915,1.002-4.646c-2.934-2.858-13.531-12.211-29.298-15.209
	c-11.021-2.096-24.043-1.285-36.633-0.499c-9.36,0.584-19.039,1.188-27.616,0.536c-8.314-0.632-14.077-2.802-18.02-5.228
	c1.809,2.759,4.323,5.017,7.344,6.452c4.59,2.181,10.316,3.287,17.021,3.287h52C136.258,44.481,136.414,44.478,136.651,44.478z
	 M125.357,33.6c6.125,0,12.095,0.361,17.675,1.422c13.856,2.635,23.881,9.605,29.016,13.95c0.089-2.201,0.025-4.529-0.271-6.914
	c-6.97-6.977-19.329-11.842-35.825-14.09c-8.737-1.19-18.695,0.165-29.238,1.599c-10.626,1.445-21.614,2.939-31.5,1.64
	c-10.966-1.442-15.992-5.392-18.282-8.933c-0.158,0.638-0.241,1.275-0.241,1.898c0,0.235,0.004,0.47,0.013,0.703
	c0.811,1.57,5.428,8.887,21.526,10.109c8.231,0.627,17.312,0.059,26.926-0.54C111.87,34.026,118.705,33.6,125.357,33.6z
	 M128.72,22.521c2.713,0,5.358,0.146,7.906,0.492c13.972,1.904,25.27,5.679,33.214,11.042c-0.293-0.786-0.62-1.57-0.982-2.352
	c-0.706-1.516-1.441-2.856-2.538-4.628c-0.02-0.03-0.039-0.064-0.058-0.099c-8.29-14.376-37.203-23.52-68.75-21.753
	c-8.398,0.472-15.979,1.849-23.177,4.209c-0.04,0.014-0.087,0.027-0.128,0.039c-4.84,1.478-7.847,3.281-9.837,4.476
	c-0.48,0.288-0.907,0.543-1.289,0.755l-2.152,1.536c-0.292,0.239-0.573,0.49-0.84,0.75c0.315,1.971,2.401,7.501,15.775,9.261
	c9.224,1.216,19.874-0.236,30.173-1.637C113.631,23.579,121.414,22.521,128.72,22.521z M105.47,164.541
	c-38.871,0-54.901-17.846-55.565-18.605c-0.908-1.04-0.801-2.619,0.239-3.527c1.039-0.906,2.614-0.803,3.522,0.232l0,0
	c0.15,0.169,15.381,16.9,51.804,16.9c36.34,0,50.364-16.655,50.502-16.823c0.87-1.066,2.441-1.232,3.513-0.365
	c1.07,0.866,1.241,2.432,0.379,3.505C159.251,146.62,144.403,164.541,105.47,164.541z M81.116,126.744
	c-9.801,0-17.775-7.974-17.775-17.775c0-9.801,7.974-17.774,17.775-17.774s17.775,7.974,17.775,17.774
	C98.891,118.77,90.917,126.744,81.116,126.744z M81.116,96.194c-7.044,0-12.775,5.73-12.775,12.774s5.731,12.775,12.775,12.775
	s12.775-5.731,12.775-12.775S88.16,96.194,81.116,96.194z M129.834,125.646c-9.196,0-16.678-7.481-16.678-16.678
	c0-9.195,7.481-16.677,16.678-16.677c9.195,0,16.677,7.481,16.677,16.677C146.51,118.164,139.029,125.646,129.834,125.646z
	 M129.834,97.291c-6.439,0-11.678,5.238-11.678,11.677c0,6.439,5.238,11.678,11.678,11.678c6.438,0,11.677-5.238,11.677-11.678
	C141.51,102.53,136.272,97.291,129.834,97.291z M134.834,113.718c-1.381,0-2.5-1.119-2.5-2.5v-0.25c0-1.381,1.119-2.5,2.5-2.5
	s2.5,1.119,2.5,2.5v0.25C137.334,112.599,136.215,113.718,134.834,113.718z M75.116,109.718c-1.381,0-2.5-1.119-2.5-2.5v-0.25
	c0-1.381,1.119-2.5,2.5-2.5s2.5,1.119,2.5,2.5v0.25C77.616,108.599,76.497,109.718,75.116,109.718z M70.312,85.801
	c-1.027,0-1.99-0.638-2.354-1.661c-0.464-1.301,0.214-2.73,1.515-3.194l19.607-6.993c1.3-0.466,2.73,0.214,3.194,1.515
	s-0.214,2.73-1.515,3.194l-19.607,6.993C70.875,85.754,70.591,85.801,70.312,85.801z M138.969,83.715
	c-0.443,0-0.892-0.117-1.298-0.364l-17.782-10.823c-1.18-0.718-1.554-2.256-0.836-3.436c0.719-1.181,2.258-1.553,3.436-0.836
	l17.782,10.823c1.18,0.718,1.554,2.256,0.836,3.436C140.636,83.288,139.812,83.715,138.969,83.715z"/>
<g>
</g>
<g>
</g>
<g>
</g>
<g>
</g>
<g>
</g>
<g>
</g>
<g>
</g>
<g>
</g>
<g>
</g>
<g>
</g>
<g>
</g>
<g>
</g>
<g>
</g>
<g>
</g>
<g>
</g>
</svg>
