<?xml version="1.0" encoding="iso-8859-1"?>
<!-- Generator: Adobe Illustrator 19.0.0, SVG Export Plug-In . SVG Version: 6.00 Build 0)  -->
<svg xmlns="http://www.w3.org/2000/svg" xmlns:xlink="http://www.w3.org/1999/xlink" version="1.1" id="Capa_1" x="0px" y="0px" viewBox="0 0 512 512" style="enable-background:new 0 0 512 512;" xml:space="preserve" width="512" height="512">
<g>
	<path d="M67.084,146.4c14.145,3.143,32.84,4.875,52.641,4.875c19.802,0,38.497-1.731,52.642-4.875   c11.592-2.576,27.004-7.313,27.004-18.658c0-11.345-15.412-16.082-27.004-18.658c-14.145-3.144-32.84-4.874-52.642-4.874   c-19.801,0-38.497,1.73-52.641,4.874c-11.592,2.576-27.004,7.313-27.004,18.658C40.081,139.087,55.492,143.824,67.084,146.4z    M119.726,119.21c33.217,0,54.652,4.892,62.33,8.532c-7.677,3.64-29.112,8.532-62.33,8.532c-33.217,0-54.652-4.893-62.329-8.532   C65.074,124.102,86.508,119.21,119.726,119.21z"/>
	<path d="M63.989,312.765c-2.267,5.051-1.388,10.758,2.292,14.893c13.582,15.266,33.062,24.021,53.445,24.021   s39.864-8.755,53.446-24.021c3.68-4.136,4.558-9.843,2.291-14.894c-2.256-5.027-7.079-8.151-12.585-8.151H76.575   C71.068,304.613,66.245,307.736,63.989,312.765z M160.169,319.613c-10.622,10.877-25.215,17.065-40.444,17.065   c-15.228,0-29.821-6.189-40.443-17.065H160.169z"/>
	<path d="M87.146,272.033v-8.016c0-4.142-3.358-7.5-7.5-7.5s-7.5,3.358-7.5,7.5v8.016c0,4.142,3.358,7.5,7.5,7.5   S87.146,276.175,87.146,272.033z"/>
	<path d="M167.307,272.033v-8.016c0-4.142-3.358-7.5-7.5-7.5s-7.5,3.358-7.5,7.5v8.016c0,4.142,3.358,7.5,7.5,7.5   S167.307,276.175,167.307,272.033z"/>
	<path d="M427.409,304.613h-86.302c-5.507,0-10.33,3.124-12.586,8.152c-2.267,5.051-1.388,10.758,2.292,14.893   c13.582,15.266,33.063,24.021,53.446,24.021s39.863-8.755,53.445-24.02c3.68-4.135,4.558-9.842,2.292-14.893   C437.739,307.736,432.916,304.613,427.409,304.613z M384.258,336.678c-15.228,0-29.822-6.189-40.444-17.065h80.887   C414.08,330.49,399.487,336.678,384.258,336.678z"/>
	<path d="M512,151.79c0-2.657-1.406-5.116-3.696-6.464c-2.291-1.348-5.123-1.383-7.446-0.092   c-0.33,0.183-32.633,18.106-65.553,34.548c-15.493-7.333-32.798-11.444-51.047-11.444c-17.829,0-35.211,3.914-51.094,11.42   c-32.892-16.43-65.176-34.342-65.506-34.525c-2.323-1.291-5.155-1.256-7.446,0.092c-2.29,1.348-3.696,3.807-3.696,6.464   c0,1.65,0.32,39.412,26.748,71.969c-12.16,19.108-18.732,41.445-18.732,64.306c0,66.017,53.709,119.726,119.726,119.726   s119.726-53.708,119.726-119.726c0-23.637-6.887-45.694-18.757-64.274C511.68,191.226,512,153.44,512,151.79z M495.511,165.254   c-2.109,11.764-7.21,29.489-19.513,45.974c-7.24-8.63-15.668-16.23-25.037-22.539C468.353,179.845,484.768,171.074,495.511,165.254   z M384.258,392.79c-57.746,0-104.726-46.979-104.726-104.726c0-24.605,8.702-48.514,24.502-67.321   c2.664-3.172,2.253-7.903-0.918-10.567c-3.171-2.664-7.901-2.253-10.567,0.918c-0.022,0.027-0.044,0.054-0.066,0.081   c-12.204-16.402-17.31-34.125-19.441-45.9c10.738,5.817,27.125,14.572,44.485,23.4c-3.122,2.38-3.902,6.803-1.693,10.115   c2.298,3.446,6.955,4.377,10.401,2.079c17.197-11.467,37.261-17.529,58.023-17.529c57.746,0,104.726,46.979,104.726,104.726   S442.004,392.79,384.258,392.79z"/>
	<path d="M332.807,262.708l3.871,1.936v7.389c0,4.142,3.358,7.5,7.5,7.5s7.5-3.358,7.5-7.5v-0.544c0.17,0.012,0.34,0.029,0.51,0.029   c2.751,0,5.4-1.52,6.714-4.147c1.853-3.705,0.351-8.21-3.354-10.063l-16.032-8.016c-3.705-1.853-8.21-0.351-10.062,3.354   C327.601,256.351,329.102,260.855,332.807,262.708z"/>
	<path d="M416.329,271.518c0.17,0,0.34-0.017,0.51-0.029v0.544c0,4.142,3.358,7.5,7.5,7.5s7.5-3.358,7.5-7.5v-7.389l3.87-1.936   c3.705-1.853,5.207-6.357,3.354-10.062c-1.852-3.705-6.357-5.207-10.062-3.354l-16.032,8.016   c-3.705,1.853-5.207,6.357-3.354,10.063C410.929,269.999,413.577,271.518,416.329,271.518z"/>
	<path d="M119.726,168.339c-23.734,0-46.676,6.933-66.345,20.049c-3.446,2.298-4.377,6.955-2.079,10.401s6.956,4.377,10.401,2.079   c17.197-11.467,37.261-17.529,58.023-17.529c57.746,0,104.726,46.979,104.726,104.726S177.472,392.79,119.726,392.79   S15,345.811,15,288.064c0-24.605,8.702-48.514,24.502-67.321c2.664-3.172,2.253-7.903-0.918-10.567   c-3.172-2.664-7.902-2.253-10.567,0.918C9.95,232.6,0,259.935,0,288.064C0,354.082,53.708,407.79,119.726,407.79   s119.726-53.708,119.726-119.726S185.743,168.339,119.726,168.339z"/>
</g>















</svg>
