<?xml version="1.0" encoding="iso-8859-1"?>
<!-- Generator: Adobe Illustrator 19.0.0, SVG Export Plug-In . SVG Version: 6.00 Build 0)  -->
<svg version="1.1" id="Capa_1" xmlns="http://www.w3.org/2000/svg" xmlns:xlink="http://www.w3.org/1999/xlink" x="0px" y="0px"
	 viewBox="0 0 512.002 512.002" style="enable-background:new 0 0 512.002 512.002;" xml:space="preserve">
<g>
	<g>
		<path d="M376.355,209.314c-5.189-1.89-10.928,0.78-12.818,5.969c-1.89,5.189,0.79,10.928,5.979,12.818
			c5.189,1.89,10.918-0.79,12.808-5.979C384.214,216.933,381.544,211.194,376.355,209.314z"/>
	</g>
</g>
<g>
	<g>
		<path d="M140.066,39.993c-5.519,0-9.998,4.479-9.998,9.998s4.479,9.998,9.998,9.998c5.519,0,9.998-4.479,9.998-9.998
			S145.585,39.993,140.066,39.993z"/>
	</g>
</g>
<g>
	<g>
		<path d="M507.946,236.394c-66.485-50.282-145.102-81.039-227.903-89.269V29.545c0-4.389-2.862-8.266-7.059-9.556
			C229.864,6.725,185.144,0,140.066,0S50.267,6.725,7.148,19.989c-4.195,1.291-7.059,5.167-7.059,9.556v169.021
			c0,34.629,10.875,67.664,31.451,95.535c20.575,27.854,48.951,47.965,82.058,58.156c8.657,2.667,17.561,3.999,26.467,3.999
			c8.906,0,17.813-1.333,26.472-3.999c5.248-1.618,10.397-3.514,15.435-5.647c-6.696,56.201,16.686,112.269,62.71,147.081
			c18.281,13.836,37.336,18.312,58.049,18.312c65.707-0.001,127.202-40.622,150.917-105.81l43.185-118.636
			c0.01-0.025,0.018-0.05,0.027-0.075l14.448-39.693C512.811,243.664,511.446,239.042,507.946,236.394z M190.351,320.097
			c-9.3,5.45-19.294,9.84-29.701,13.048c-13.467,4.145-27.702,4.146-41.169,0c-28.993-8.924-53.841-26.534-71.855-50.923
			c-18.017-24.405-27.54-53.333-27.54-83.656V79.262c28.408-9.111,57.759-14.983,87.329-17.457c5.503-0.46,9.59-5.294,9.129-10.797
			c-0.46-5.503-5.298-9.579-10.797-9.129c-28.962,2.424-57.721,7.947-85.661,16.435V36.995
			c39.026-11.283,79.349-16.998,119.979-16.998s80.953,5.715,119.979,16.998v21.324c-27.758-8.438-56.317-13.947-85.089-16.391
			c-5.481-0.467-10.341,3.614-10.808,9.116c-0.468,5.502,3.613,10.341,9.116,10.809c29.388,2.496,58.545,8.353,86.781,17.414
			v119.298c0,49.831-26.701,96.397-69.685,121.526C190.357,320.093,190.354,320.095,190.351,320.097z M482.831,267.563
			c-23.211-17.424-48.164-32.369-74.357-44.505c-5.014-2.322-10.954-0.142-13.275,4.869c-2.322,5.01-0.142,10.954,4.868,13.275
			c26.753,12.394,52.151,27.871,75.599,46.044l-40.808,112.106c-21.266,58.454-77.296,95.609-139.434,92.466
			c-14.076-0.712-27.448-5.579-38.676-14.077c-44.097-33.354-64.443-88.984-52.539-142.668
			c26.12-16.255,46.667-39.559,59.747-66.604c3.117,1.124,6.72,0.685,9.53-1.498c5.479-4.255,12.632-5.386,19.135-3.021
			c6.973,2.537,11.943,8.682,12.974,16.037c0.766,5.47,5.823,9.281,11.288,8.515c5.469-0.766,9.28-5.82,8.516-11.289
			c-2.059-14.699-11.998-26.981-25.94-32.055c-8.636-3.142-17.84-3.186-26.256-0.382c3.632-12.039,5.861-24.565,6.574-37.337
			c19.768,2.264,39.378,6.006,58.432,11.189c0.879,0.239,1.762,0.353,2.631,0.353c4.399,0,8.432-2.926,9.642-7.377
			c1.449-5.328-1.695-10.822-7.023-12.272c-20.673-5.623-41.963-9.65-63.414-12.001V167.23
			c75.971,7.905,148.192,35.651,209.927,80.719L482.831,267.563z"/>
	</g>
</g>
<g>
	<g>
		<path d="M215.073,191.317c-3.084-1.79-6.886-1.801-9.979-0.032c-19.762,11.297-42.247,17.268-65.026,17.268
			c-22.779,0-45.267-5.97-65.028-17.268c-3.094-1.769-6.895-1.758-9.979,0.032c-3.083,1.789-4.98,5.083-4.98,8.648
			c0,44.104,35.882,79.986,79.986,79.986c44.142,0,79.986-35.703,79.986-79.986C220.053,196.4,218.156,193.106,215.073,191.317z
			 M140.066,259.955c-27.094,0-50.051-18.057-57.47-42.767c18.172,7.47,37.725,11.362,57.47,11.362
			c19.754,0,39.317-3.897,57.496-11.373C190.309,241.521,167.63,259.955,140.066,259.955z"/>
	</g>
</g>
<g>
	<g>
		<path d="M235.39,121.226c-6.939-13.052-20.519-21.242-35.334-21.242c-14.187,0-27.439,7.624-34.586,19.895
			c-2.779,4.77-1.163,10.891,3.608,13.671c4.772,2.779,10.893,1.162,13.672-3.608c3.577-6.144,10.209-9.96,17.306-9.96
			c7.508,0,14.253,4.192,17.677,10.632c2.595,4.88,8.651,6.725,13.521,4.135C236.129,132.156,237.981,126.102,235.39,121.226z"/>
	</g>
</g>
<g>
	<g>
		<path d="M115.41,121.225c-6.939-13.052-20.521-21.242-35.334-21.242c-14.187,0-27.439,7.624-34.586,19.895
			c-2.779,4.771-1.163,10.893,3.608,13.672c4.773,2.779,10.893,1.162,13.672-3.609c3.577-6.144,10.209-9.96,17.306-9.96
			c7.508,0,14.253,4.192,17.677,10.632c2.595,4.88,8.651,6.725,13.521,4.135C116.15,132.155,118.002,126.101,115.41,121.225z"/>
	</g>
</g>
<g>
	<g>
		<path d="M328.474,340.844c-41.436-15.081-87.426,6.364-102.519,47.807c-1.22,3.349-0.563,7.095,1.722,9.831
			c2.286,2.737,5.852,4.047,9.367,3.444c44.926-7.724,91.629,8.344,122.212,44.477c2.306,2.724,5.885,4.009,9.386,3.383
			c3.508-0.625,6.419-3.07,7.64-6.419c3.213-8.815,4.843-18.018,4.843-27.35C381.125,382.508,359.965,352.298,328.474,340.844z
			 M361.028,419.473c-30.169-27.554-69.224-40.92-108.018-39.307c15.428-20.68,43.173-29.792,68.627-20.529
			c23.62,8.59,39.491,31.248,39.491,56.381C361.128,417.172,361.095,418.324,361.028,419.473z"/>
	</g>
</g>
<g>
	<g>
		<path d="M438.14,318.258c-2.008-14.437-11.813-26.931-25.938-32.068c-13.33-4.841-28.388-2.208-39.294,6.873
			c-4.243,3.533-4.82,9.838-1.287,14.082c3.534,4.243,9.836,4.821,14.082,1.287c5.462-4.547,12.999-5.867,19.671-3.446
			c7.168,2.607,11.976,8.94,12.96,16.025c0.76,5.47,5.812,9.287,11.279,8.527C435.082,328.777,438.9,323.727,438.14,318.258z"/>
	</g>
</g>
<g>
</g>
<g>
</g>
<g>
</g>
<g>
</g>
<g>
</g>
<g>
</g>
<g>
</g>
<g>
</g>
<g>
</g>
<g>
</g>
<g>
</g>
<g>
</g>
<g>
</g>
<g>
</g>
<g>
</g>
</svg>
