<svg height="512" viewBox="0 0 512 512" width="512" xmlns="http://www.w3.org/2000/svg"><path d="m95.394531 206.605469c5.855469 5.859375 15.355469 5.859375 21.210938 0l19.394531-19.390625 19.394531 19.390625c5.855469 5.859375 15.355469 5.859375 21.210938 0 5.859375-5.855469 5.859375-15.351563 0-21.210938l-19.390625-19.394531 19.390625-19.394531c5.859375-5.859375 5.859375-15.355469 0-21.210938-5.855469-5.859375-15.351563-5.859375-21.210938 0l-19.394531 19.390625-19.394531-19.390625c-5.855469-5.859375-15.355469-5.859375-21.210938 0-5.859375 5.855469-5.859375 15.351563 0 21.210938l19.390625 19.394531-19.390625 19.394531c-5.859375 5.859375-5.859375 15.355469 0 21.210938zm0 0"/><path d="m215.394531 206.605469c5.855469 5.859375 15.355469 5.859375 21.210938 0l19.394531-19.390625 19.394531 19.390625c5.855469 5.859375 15.355469 5.859375 21.210938 0 5.859375-5.855469 5.859375-15.351563 0-21.210938l-19.390625-19.394531 19.390625-19.394531c5.859375-5.859375 5.859375-15.355469 0-21.210938-5.855469-5.859375-15.351563-5.859375-21.210938 0l-19.394531 19.390625-19.394531-19.390625c-5.855469-5.859375-15.355469-5.859375-21.210938 0-5.859375 5.855469-5.859375 15.351563 0 21.210938l19.390625 19.394531-19.390625 19.394531c-5.859375 5.859375-5.859375 15.355469 0 21.210938zm0 0"/><path d="m335.394531 206.605469c5.855469 5.859375 15.355469 5.859375 21.210938 0l19.394531-19.390625 19.394531 19.390625c5.855469 5.859375 15.355469 5.859375 21.210938 0 5.859375-5.855469 5.859375-15.351563 0-21.210938l-19.390625-19.394531 19.390625-19.394531c5.859375-5.859375 5.859375-15.355469 0-21.210938-5.855469-5.859375-15.351563-5.859375-21.210938 0l-19.394531 19.390625-19.394531-19.390625c-5.855469-5.859375-15.355469-5.859375-21.210938 0-5.859375 5.855469-5.859375 15.351563 0 21.210938l19.390625 19.394531-19.390625 19.394531c-5.859375 5.859375-5.859375 15.355469 0 21.210938zm0 0"/><path d="m497 0h-482c-8.285156 0-15 6.714844-15 15v391c0 8.285156 6.714844 15 15 15h166v36.730469l-51.707031 25.851562c-6.222657 3.113281-9.488281 10.09375-7.890625 16.863281 1.597656 6.773438 7.640625 11.542969 14.597656 11.542969h239.929688c.019531 0 .039062.003907.058593.003907 15.46875 0 21.140625-21.230469 6.71875-28.410157l-51.707031-25.851562v-36.730469h166c8.285156 0 15-6.714844 15-15v-391c0-8.285156-6.714844-15-15-15zm-15 30v271c-17.910156 0-432.96875 0-452 0v-271zm-172.707031 450.417969 3.167969 1.582031h-112.921876l3.167969-1.582031c5.082031-2.542969 8.292969-7.734375 8.292969-13.417969v-46h90v46c0 5.683594 3.210938 10.875 8.292969 13.417969zm-279.292969-89.417969v-60h211.011719v15c0 8.285156 6.703125 15 14.988281 15 8.28125 0 15-6.714844 15-15v-15h211v60zm0 0"/></svg>