<?xml version="1.0" encoding="iso-8859-1"?>
<!-- Generator: Adobe Illustrator 19.0.0, SVG Export Plug-In . SVG Version: 6.00 Build 0)  -->
<svg version="1.1" id="Layer_1" xmlns="http://www.w3.org/2000/svg" xmlns:xlink="http://www.w3.org/1999/xlink" x="0px" y="0px"
	 viewBox="0 0 512 512" style="enable-background:new 0 0 512 512;" xml:space="preserve">
<g>
	<g>
		<g>
			<path d="M349.867,392.533c4.71,0,8.533-3.823,8.533-8.533v-8.533h8.533c4.71,0,8.533-3.823,8.533-8.533s-3.823-8.533-8.533-8.533
				H358.4v-8.533c0-4.71-3.823-8.533-8.533-8.533s-8.533,3.823-8.533,8.533v8.533H332.8c-4.71,0-8.533,3.823-8.533,8.533
				s3.823,8.533,8.533,8.533h8.533V384C341.333,388.71,345.156,392.533,349.867,392.533z"/>
			<path d="M469.333,59.733c0,4.71,3.823,8.533,8.533,8.533s8.533-3.823,8.533-8.533c4.71,0,8.533-3.823,8.533-8.533
				s-3.823-8.533-8.533-8.533c0-4.71-3.823-8.533-8.533-8.533s-8.533,3.823-8.533,8.533c-4.71,0-8.533,3.823-8.533,8.533
				S464.623,59.733,469.333,59.733z"/>
			<path d="M256,102.4c-65.877,0-119.467,53.589-119.467,119.467c0,4.71,3.823,8.533,8.533,8.533c4.71,0,8.533-3.823,8.533-8.533
				c0-56.465,45.935-102.4,102.4-102.4s102.4,45.935,102.4,102.4c0,4.71,3.823,8.533,8.533,8.533s8.533-3.823,8.533-8.533
				C375.467,155.989,321.877,102.4,256,102.4z"/>
			<path d="M332.8,25.6c0,4.71,3.823,8.533,8.533,8.533s8.533-3.823,8.533-8.533c4.71,0,8.533-3.823,8.533-8.533
				s-3.823-8.533-8.533-8.533c0-4.71-3.823-8.533-8.533-8.533S332.8,3.823,332.8,8.533c-4.71,0-8.533,3.823-8.533,8.533
				S328.09,25.6,332.8,25.6z"/>
			<path d="M76.8,230.4c4.71,0,8.533-3.823,8.533-8.533C85.333,127.761,161.894,51.2,256,51.2s170.667,76.561,170.667,170.667
				c0,4.71,3.823,8.533,8.533,8.533s8.533-3.823,8.533-8.533c0-103.518-84.215-187.733-187.733-187.733
				S68.267,118.349,68.267,221.867C68.267,226.577,72.09,230.4,76.8,230.4z"/>
			<path d="M177.92,299.947l-7.424-37.086c-0.794-3.994-4.292-6.861-8.363-6.861c-4.07,0-7.569,2.867-8.363,6.861l-7.424,37.086
				l-37.086,7.424c-3.994,0.794-6.861,4.292-6.861,8.363c0,4.07,2.867,7.569,6.861,8.363l37.086,7.424l7.424,37.086
				c0.794,3.994,4.292,6.861,8.363,6.861c4.07,0,7.569-2.867,8.363-6.861l7.424-37.086l37.086-7.424
				c3.994-0.794,6.861-4.292,6.861-8.363c0-4.07-2.867-7.569-6.861-8.363L177.92,299.947z M168.994,315.904
				c-3.379,0.674-6.016,3.311-6.69,6.69l-0.171,0.828l-0.171-0.828c-0.674-3.379-3.311-6.016-6.69-6.69l-0.828-0.171l0.828-0.171
				c3.379-0.674,6.016-3.311,6.69-6.69l0.171-0.828l0.171,0.828c0.674,3.379,3.311,6.016,6.69,6.69l0.828,0.171L168.994,315.904z"/>
			<path d="M503.467,128c-4.71,0-8.533,3.823-8.533,8.533v332.8c0,14.114-11.486,25.6-25.6,25.6h-204.8v-19.635
				c12.442-4.352,44.843-14.498,76.8-14.498c74.325,0,124.8,16.461,125.312,16.631c2.586,0.862,5.453,0.418,7.68-1.178
				c2.219-1.604,3.541-4.181,3.541-6.921V93.867c0-3.413-2.031-6.502-5.171-7.842c-0.759-0.324-18.91-7.962-54.349-10.914
				c-4.753-0.435-8.815,3.098-9.207,7.791c-0.393,4.702,3.098,8.823,7.791,9.216c21.982,1.826,36.668,5.572,43.87,7.808v358.067
				c-19.337-5.069-62.276-14.259-119.467-14.259c-37.18,0-73.702,12.211-85.001,16.35c-10.044-4.437-40.405-16.35-77.133-16.35
				c-58.778,0-107.204,9.694-128,14.618V100.463c7.987-1.971,23.287-5.436,43.409-8.533c4.659-0.717,7.859-5.069,7.142-9.728
				c-0.725-4.659-5.12-7.876-9.728-7.134C60.749,79.872,41.139,85.427,40.32,85.666c-3.661,1.041-6.187,4.395-6.187,8.201v375.467
				c0,2.671,1.254,5.197,3.388,6.81c1.502,1.135,3.311,1.724,5.146,1.724c0.785,0,1.57-0.111,2.338-0.333
				c0.589-0.162,59.597-16.734,134.195-16.734c31.198,0,57.856,9.711,68.267,14.071v20.062h-204.8c-14.114,0-25.6-11.486-25.6-25.6
				v-332.8c0-4.71-3.823-8.533-8.533-8.533S0,131.823,0,136.533v332.8C0,492.86,19.14,512,42.667,512h426.667
				C492.86,512,512,492.86,512,469.333v-332.8C512,131.823,508.177,128,503.467,128z"/>
			<path d="M76.8,34.133h8.533v8.533c0,4.71,3.823,8.533,8.533,8.533c4.71,0,8.533-3.823,8.533-8.533v-8.533h8.533
				c4.71,0,8.533-3.823,8.533-8.533c0-4.71-3.823-8.533-8.533-8.533H102.4V8.533C102.4,3.823,98.577,0,93.867,0
				c-4.71,0-8.533,3.823-8.533,8.533v8.533H76.8c-4.71,0-8.533,3.823-8.533,8.533C68.267,30.31,72.09,34.133,76.8,34.133z"/>
			<path d="M247.467,145.067V435.2c0,4.71,3.823,8.533,8.533,8.533s8.533-3.823,8.533-8.533V145.067c0-4.71-3.823-8.533-8.533-8.533
				S247.467,140.356,247.467,145.067z"/>
			<path d="M401.067,230.4c4.71,0,8.533-3.823,8.533-8.533c0-84.693-68.907-153.6-153.6-153.6s-153.6,68.907-153.6,153.6
				c0,4.71,3.823,8.533,8.533,8.533s8.533-3.823,8.533-8.533c0-75.281,61.252-136.533,136.533-136.533
				s136.533,61.252,136.533,136.533C392.533,226.577,396.356,230.4,401.067,230.4z"/>
		</g>
	</g>
</g>
<g>
</g>
<g>
</g>
<g>
</g>
<g>
</g>
<g>
</g>
<g>
</g>
<g>
</g>
<g>
</g>
<g>
</g>
<g>
</g>
<g>
</g>
<g>
</g>
<g>
</g>
<g>
</g>
<g>
</g>
</svg>
