<?xml version="1.0" encoding="iso-8859-1"?>
<!-- Generator: Adobe Illustrator 19.0.0, SVG Export Plug-In . SVG Version: 6.00 Build 0)  -->
<svg version="1.1" id="Layer_1" xmlns="http://www.w3.org/2000/svg" xmlns:xlink="http://www.w3.org/1999/xlink" x="0px" y="0px"
	 viewBox="0 0 512 512" style="enable-background:new 0 0 512 512;" xml:space="preserve">
<g>
	<g>
		<g>
			<path d="M379.321,101.701c-0.222-2.962-1.724-5.681-4.113-7.444C340.484,68.624,299.263,55.076,256,55.076
				C145.21,55.076,55.076,145.21,55.076,256c0,43.263,13.549,84.484,39.181,119.207c1.764,2.39,4.483,3.891,7.444,4.113
				c0.254,0.019,0.508,0.029,0.762,0.029c2.695,0,5.291-1.067,7.212-2.986l266.687-266.688
				C378.462,107.574,379.542,104.663,379.321,101.701z M103.906,353.283C85.268,324.261,75.474,290.871,75.474,256
				c0-99.542,80.984-180.526,180.526-180.526c34.871,0,68.261,9.794,97.283,28.432L103.906,353.283z"/>
			<path d="M417.744,136.792c-1.764-2.39-4.483-3.891-7.444-4.113c-2.959-0.218-5.873,0.859-7.974,2.959L135.638,402.325
				c-2.1,2.101-3.18,5.012-2.959,7.974c0.222,2.962,1.724,5.681,4.113,7.444c34.723,25.633,75.944,39.181,119.207,39.181
				c110.79,0,200.924-90.134,200.924-200.924C456.924,212.737,443.376,171.516,417.744,136.792z M256,436.526
				c-34.871,0-68.261-9.794-97.283-28.432l249.377-249.377c18.638,29.022,28.432,62.412,28.432,97.283
				C436.526,355.542,355.542,436.526,256,436.526z"/>
			<path d="M437.02,74.98C388.667,26.628,324.38,0,256,0S123.333,26.628,74.98,74.98C26.628,123.333,0,187.62,0,256
				s26.628,132.667,74.98,181.02C123.333,485.372,187.62,512,256,512s132.667-26.628,181.02-74.98
				C485.372,388.667,512,324.38,512,256S485.372,123.333,437.02,74.98z M256,491.602c-129.911,0-235.602-105.69-235.602-235.602
				S126.089,20.398,256,20.398S491.602,126.089,491.602,256S385.911,491.602,256,491.602z"/>
		</g>
	</g>
</g>
<g>
	<g>
		<path d="M354.767,375.436c-3.321-4.549-9.703-5.543-14.251-2.223c-25.632,18.714-56.012,28.606-87.856,28.606
			c-5.633,0-10.199,4.566-10.199,10.199c0,5.633,4.566,10.199,10.199,10.199c36.197,0,70.737-11.249,99.884-32.529
			C357.094,386.365,358.088,379.985,354.767,375.436z"/>
	</g>
</g>
<g>
	<g>
		<path d="M386.612,339.617c-4.516-3.365-10.906-2.434-14.273,2.082c-1.693,2.271-3.471,4.52-5.284,6.685
			c-3.617,4.317-3.049,10.75,1.269,14.368c1.91,1.599,4.234,2.38,6.545,2.38c2.914,0,5.806-1.241,7.823-3.648
			c2.059-2.459,4.08-5.014,6.002-7.593C392.06,349.374,391.128,342.984,386.612,339.617z"/>
	</g>
</g>
<g>
</g>
<g>
</g>
<g>
</g>
<g>
</g>
<g>
</g>
<g>
</g>
<g>
</g>
<g>
</g>
<g>
</g>
<g>
</g>
<g>
</g>
<g>
</g>
<g>
</g>
<g>
</g>
<g>
</g>
</svg>
