<svg height="512" viewBox="0 0 512 512" width="512" xmlns="http://www.w3.org/2000/svg"><path d="m502 0h-492c-5.523438 0-10 4.476562-10 10v492c0 5.523438 4.476562 10 10 10h492c5.523438 0 10-4.476562 10-10v-492c0-5.523438-4.476562-10-10-10zm-482 492v-392h99.929688c-3.101563 16.046875-10.816407 45.417969-27.464844 60h-42.464844c-5.523438 0-10 4.476562-10 10v200c0 5.523438 4.476562 10 10 10h11.339844c2.867187 44.027344 23.605468 89.125 35.65625 112zm98.484375-332c13.441406-20.3125 19.441406-46.464844 21.796875-60h231.4375c2.355469 13.535156 8.351562 39.6875 21.792969 60zm333.515625 20v180h-392v-180zm-206 312h-126.1875c-8.683594-15.339844-34.957031-65.167969-38.433594-112h164.621094zm20 0v-112h164.617188c-3.476563 46.761719-29.753907 96.644531-38.433594 112zm226 0h-76.996094c12.050782-22.875 32.789063-67.972656 35.65625-112h11.339844c5.523438 0 10-4.476562 10-10v-200c0-5.523438-4.476562-10-10-10h-42.464844c-16.644531-14.582031-24.363281-43.953125-27.464844-60h99.929688zm0-412h-472v-60h472zm0 0"/><path d="m173 60h43c5.511719 0 10-4.488281 10-10s-4.488281-10-10-10h-43c-5.511719 0-10 4.488281-10 10s4.488281 10 10 10zm0 0"/><path d="m379 60c5.511719 0 10-4.488281 10-10s-4.488281-10-10-10c-5.519531 0-10 4.488281-10 10s4.480469 10 10 10zm0 0"/><path d="m256 60c5.511719 0 10-4.488281 10-10s-4.488281-10-10-10-10 4.488281-10 10 4.488281 10 10 10zm0 0"/><path d="m296 60h43c5.511719 0 10-4.488281 10-10s-4.488281-10-10-10h-43c-5.519531 0-10 4.488281-10 10s4.480469 10 10 10zm0 0"/><path d="m50 60h43c5.511719 0 10-4.488281 10-10s-4.488281-10-10-10h-43c-5.511719 0-10 4.488281-10 10s4.488281 10 10 10zm0 0"/><path d="m419 60h43c5.511719 0 10-4.488281 10-10s-4.488281-10-10-10h-43c-5.519531 0-10 4.488281-10 10s4.480469 10 10 10zm0 0"/><path d="m133 60c5.511719 0 10-4.488281 10-10s-4.488281-10-10-10-10 4.488281-10 10 4.488281 10 10 10zm0 0"/><path d="m209.753906 327.808594c1.84375 1.476562 4.050782 2.191406 6.238282 2.191406 2.9375 0 5.84375-1.285156 7.816406-3.753906l32.191406-40.238282 32.191406 40.238282c1.976563 2.46875 4.878906 3.753906 7.816406 3.753906 2.1875 0 4.394532-.71875 6.238282-2.191406 4.3125-3.449219 5.011718-9.742188 1.5625-14.054688l-35.003906-43.753906 35.003906-43.753906c3.449218-4.3125 2.75-10.605469-1.5625-14.054688-4.3125-3.453125-10.605469-2.75-14.054688 1.5625l-32.191406 40.238282-32.191406-40.238282c-3.449219-4.3125-9.742188-5.011718-14.054688-1.5625-4.3125 3.449219-5.011718 9.742188-1.5625 14.054688l35.003906 43.753906-35.003906 43.753906c-3.449218 4.3125-2.75 10.605469 1.5625 14.054688zm0 0"/><path d="m335.753906 327.808594c1.84375 1.476562 4.050782 2.191406 6.238282 2.191406 2.933593 0 5.84375-1.285156 7.816406-3.753906l32.191406-40.238282 32.191406 40.238282c1.976563 2.46875 4.878906 3.753906 7.816406 3.753906 2.1875 0 4.394532-.71875 6.238282-2.191406 4.3125-3.449219 5.011718-9.742188 1.5625-14.054688l-35.003906-43.753906 35.003906-43.753906c3.449218-4.3125 2.75-10.605469-1.5625-14.054688-4.3125-3.453125-10.605469-2.75-14.054688 1.5625l-32.191406 40.238282-32.191406-40.238282c-3.449219-4.3125-9.742188-5.011718-14.054688-1.5625-4.3125 3.449219-5.011718 9.742188-1.5625 14.054688l35.003906 43.753906-35.003906 43.753906c-3.449218 4.3125-2.75 10.605469 1.5625 14.054688zm0 0"/><path d="m83.753906 327.808594c1.84375 1.476562 4.050782 2.191406 6.238282 2.191406 2.9375 0 5.84375-1.285156 7.816406-3.753906l32.191406-40.238282 32.191406 40.238282c1.972656 2.46875 4.878906 3.753906 7.816406 3.753906 2.1875 0 4.394532-.71875 6.238282-2.191406 4.3125-3.449219 5.011718-9.742188 1.5625-14.054688l-35.003906-43.753906 35.003906-43.753906c3.449218-4.3125 2.75-10.605469-1.5625-14.054688-4.3125-3.453125-10.605469-2.753906-14.054688 1.5625l-32.191406 40.238282-32.191406-40.238282c-3.449219-4.3125-9.742188-5.011718-14.054688-1.5625-4.3125 3.449219-5.011718 9.742188-1.5625 14.054688l35.003906 43.753906-35.003906 43.753906c-3.449218 4.3125-2.75 10.605469 1.5625 14.054688zm0 0"/><path d="m266 128c0 5.523438-4.476562 10-10 10s-10-4.476562-10-10 4.476562-10 10-10 10 4.476562 10 10zm0 0"/></svg>