<svg height="480" viewBox="-1 0 480 480.00023" width="480" xmlns="http://www.w3.org/2000/svg"><path d="m19.765625 282.769531c-1.953125-10.113281-3.203125-20.347656-3.753906-30.632812-.238281-4.417969-4.011719-7.808594-8.433594-7.570313-4.417969.242188-7.804687 4.015625-7.5664062 8.433594.5820312 11.011719 1.9179692 21.972656 4.0000002 32.800781.726562 3.757813 4.011719 6.472657 7.839843 6.480469.511719 0 1.023438-.050781 1.527344-.144531 2.089844-.390625 3.941406-1.601563 5.136719-3.359375 1.199219-1.757813 1.648437-3.917969 1.25-6.007813zm0 0"/><path d="m55.492188 367.519531c-2.515626-3.632812-7.503907-4.539062-11.136719-2.023437-3.632813 2.515625-4.539063 7.503906-2.023438 11.136718 6.285157 9.066407 13.183594 17.691407 20.65625 25.808594 2.988281 3.253906 8.050781 3.46875 11.304688.480469 3.253906-2.992187 3.46875-8.050781.480469-11.304687-6.972657-7.582032-13.414063-15.632813-19.28125-24.097657zm0 0"/><path d="m7.835938 228.558594c.222656.015625.441406.015625.664062 0 4.175781.015625 7.65625-3.183594 8-7.34375.839844-10.265625 2.398438-20.460938 4.65625-30.511719.96875-4.316406-1.75-8.601563-6.070312-9.570313-4.316407-.96875-8.601563 1.75-9.570313 6.066407-2.429687 10.78125-4.109375 21.71875-5.03125 32.730469-.175781 2.121093.503906 4.222656 1.882813 5.84375 1.378906 1.617187 3.347656 2.621093 5.46875 2.785156zm0 0"/><path d="m122.285156 430.824219c-8.773437-5.40625-17.160156-11.414063-25.105468-17.976563-3.40625-2.8125-8.449219-2.332031-11.265626 1.074219-2.8125 3.40625-2.332031 8.449219 1.074219 11.261719 8.515625 7.023437 17.496094 13.457031 26.886719 19.257812 2.433594 1.628906 5.5625 1.800782 8.15625.445313 2.597656-1.355469 4.246094-4.019531 4.296875-6.949219.050781-2.925781-1.5-5.648438-4.042969-7.097656zm0 0"/><path d="m19.636719 165.824219c.898437.335937 1.851562.511719 2.816406.511719 3.332031 0 6.3125-2.066407 7.488281-5.183594 2.699219-7.207032 5.777344-14.269532 9.222656-21.152344 1.933594-3.945312.324219-8.710938-3.609374-10.675781-3.929688-1.964844-8.707032-.390625-10.703126 3.523437-3.683593 7.382813-6.988281 14.949219-9.894531 22.671875-1.554687 4.136719.539063 8.753907 4.679688 10.304688zm0 0"/><path d="m27.683594 312.585938c-1.429688-4.183594-5.980469-6.414063-10.164063-4.980469-4.183593 1.429687-6.410156 5.980469-4.980469 10.164062 3.589844 10.4375 7.890626 20.621094 12.871094 30.472657 2.050782 3.835937 6.789063 5.332031 10.671875 3.367187 3.878907-1.964844 5.480469-6.667969 3.601563-10.59375-4.648438-9.1875-8.660156-18.6875-12-28.429687zm0 0"/><path d="m178.683594 455.601562c-9.914063-2.792968-19.621094-6.265624-29.054688-10.402343-4.015625-1.605469-8.578125.265625-10.308594 4.226562-1.730468 3.960938 0 8.578125 3.90625 10.429688 10.117188 4.441406 20.523438 8.183593 31.152344 11.199219.710938.199218 1.441406.300781 2.175782.304687 4 .007813 7.390624-2.941406 7.9375-6.90625.546874-3.960937-1.917969-7.71875-5.769532-8.796875zm0 0"/><path d="m45.585938 307.265625c1.683593 4.085937 6.359374 6.035156 10.445312 4.355469 4.085938-1.683594 6.039062-6.359375 4.355469-10.445313-3.90625-9.441406-7-19.203125-9.238281-29.175781-.957032-4.316406-5.230469-7.039062-9.546876-6.082031-4.320312.953125-7.042968 5.230469-6.085937 9.546875 2.445313 10.867187 5.816406 21.503906 10.070313 31.800781zm0 0"/><path d="m47.035156 186.65625c.777344.242188 1.585938.367188 2.402344.367188 3.492188 0 6.582031-2.265626 7.628906-5.597657 3.058594-9.777343 6.890625-19.292969 11.464844-28.457031 1.988281-3.949219.398438-8.761719-3.546875-10.75-3.949219-1.988281-8.761719-.398438-10.75 3.550781-4.957031 9.929688-9.113281 20.238281-12.429687 30.832031-.644532 2.027344-.453126 4.226563.527343 6.113282.980469 1.886718 2.675781 3.304687 4.703125 3.941406zm0 0"/><path d="m47.683594 241.640625v-1.535156c.128906-9.625.929687-19.226563 2.398437-28.738281.492188-2.851563-.597656-5.746094-2.847656-7.566407-2.25-1.824219-5.308594-2.289062-8-1.214843-2.6875 1.070312-4.585937 3.511718-4.964844 6.382812-1.582031 10.234375-2.445312 20.566406-2.585937 30.917969v2.128906c.007812 2.105469.855468 4.117187 2.359375 5.585937 1.507812 1.46875 3.539062 2.273438 5.640625 2.230469 4.457031-.085937 8.019531-3.734375 8-8.191406zm0 0"/><path d="m136.355469 396.679688c-8.351563-6.023438-16.277344-12.621094-23.710938-19.742188-3.207031-2.933594-8.167969-2.769531-11.175781.371094-3.003906 3.136718-2.957031 8.101562.109375 11.179687 7.972656 7.648438 16.472656 14.726563 25.433594 21.183594 3.585937 2.582031 8.585937 1.765625 11.167969-1.824219 2.582031-3.585937 1.765624-8.585937-1.824219-11.167968zm0 0"/><path d="m190.882812 424.382812c-9.746093-3.078124-19.214843-6.96875-28.3125-11.628906-3.933593-2.011718-8.753906-.453125-10.761718 3.480469-2.011719 3.9375-.453125 8.753906 3.484375 10.765625 9.894531 5.066406 20.199219 9.296875 30.796875 12.648438 4.21875 1.324218 8.707031-1.015626 10.035156-5.230469 1.324219-4.214844-1.019531-8.707031-5.234375-10.035157zm0 0"/><path d="m90.539062 365.34375c3.453126-2.753906 4.023438-7.785156 1.273438-11.238281-6.4375-8.058594-12.316406-16.546875-17.601562-25.402344-1.386719-2.597656-4.09375-4.222656-7.042969-4.230469-2.945313-.003906-5.660157 1.613282-7.054688 4.207032-1.398437 2.597656-1.257812 5.75.371094 8.207031 5.652344 9.480469 11.941406 18.570312 18.824219 27.203125 2.753906 3.457031 7.792968 4.023437 11.246094 1.261718zm0 0"/><path d="m239.683594 0c-45.917969-.0742188-90.886719 13.078125-129.527344 37.886719l-32.59375-35.308594c-2.101562-2.28125-5.332031-3.136719-8.289062-2.203125-2.957032.9375-5.105469 3.496094-5.519532 6.570312l-16 120c-.328125 2.480469.523438 4.972657 2.296875 6.734376 1.777344 1.761718 4.277344 2.589843 6.753907 2.242187l112-16c2.9375-.425781 5.402343-2.445313 6.394531-5.242187.996093-2.800782.355469-5.921876-1.660157-8.101563l-30.128906-32.632813c69.871094-40.554687 157.648438-33.035156 219.601563 18.808594s84.828125 136.921875 57.226562 212.84375c-27.597656 75.921875-99.769531 126.449219-180.554687 126.402344h-.097656c-6.316407 0-12.628907-.386719-18.902344-1.152344-4.386719-.53125-8.375 2.597656-8.902344 6.984375-.53125 4.386719 2.59375 8.375 6.984375 8.902344 6.898437.839844 13.847656 1.261719 20.796875 1.265625h.121094c88.789062.070312 167.835937-56.230469 196.792968-140.164062 28.957032-83.9375 1.441407-177-68.507812-231.691407-69.945312-54.691406-166.898438-58.953125-241.371094-10.609375-1.972656 1.289063-3.277344 3.378906-3.570312 5.714844-.289063 2.339844.464844 4.683594 2.0625 6.414062l26.402344 28.578126-86.480469 12.367187 12.351562-92.65625 25.601563 27.792969c2.691406 2.921875 7.121094 3.425781 10.398437 1.183594 79.488281-54.199219 184.703125-51.589844 261.40625 6.484374 76.699219 58.070313 107.753907 158.636719 77.148438 249.84375-30.601563 91.207032-116.027344 152.6875-212.234375 152.742188-10.300782.003906-20.585938-.699219-30.792969-2.09375-4.332031-.527344-8.289063 2.523438-8.882813 6.847656-.597656 4.324219 2.386719 8.332032 6.699219 9 88.808594 12.238282 177.03125-26.035156 228.769531-99.246094 51.738282-73.207031 58.359376-169.148437 17.171876-248.773437s-123.320313-129.65625-212.964844-129.734375zm0 0"/><path d="m239.683594 88c-4.417969 0-8 3.582031-8 8v144c0 2.121094.84375 4.15625 2.34375 5.65625l80 80c3.140625 3.03125 8.128906 2.988281 11.214844-.097656 3.085937-3.085938 3.128906-8.074219.097656-11.214844l-77.65625-77.65625v-140.6875c0-4.417969-3.582032-8-8-8zm0 0"/></svg>