<svg height="512" viewBox="0 0 56 58" width="512" xmlns="http://www.w3.org/2000/svg"><g id="023---Alien" transform="translate(-1 -1)"><path id="Shape" d="m17.72 39.91c-1.3703551 1.0815367-2.5851169 2.3467734-3.61 3.76-.1434162.196627-.1434162.463373 0 .66 1.027771 1.41081 2.242177 2.6756761 3.61 3.76-.9580202-2.642516-.9580202-5.537484 0-8.18z"/><path id="Shape" d="m29 40c-2.209139 0-4 1.790861-4 4s1.790861 4 4 4 4-1.790861 4-4-1.790861-4-4-4zm0 4c0 .5522847-.4477153 1-1 1s-1-.4477153-1-1c0-2.13 3-2.71 3-1 0 .5522847-.4477153 1-1 1z"/><circle id="Oval" cx="29" cy="6" r="3"/><path id="Shape" d="m53.38 35.25c-4-3.23-5.94-8-5.94-11.25 0-3.6 4-6.69 4-11 0-3.78-2.33-5.09-2.88-9.07-.0243868-.39107545-.2749296-.73187542-.6409239-.8718144-.3659943-.13993899-.7799965-.05322977-1.0590761.2218144-.2187434.20514091-.3264785.50234113-.29.8.57 4.47 2.87 5.77 2.87 8.92 0 3.6-4 6.69-4 11-.0268381 1.5781979.1615627 3.1526898.56 4.68.2084832.6600716.0153885 1.381147-.4950576 1.8486985-.5104462.4675516-1.2456584.596774-1.8849424.3313015-5.32-2.26-10.88-5.17-13.72-11.26-.1670864-.3449903-.5166774-.5641101-.9-.5641101s-.7329136.2191198-.9.5641101c-2.84 6.09-8.4 9-13.71 11.26-.640332.2711992-1.379963.1446726-1.8937347-.323956s-.7075967-1.1935388-.4962653-1.856044c.3984373-1.5273102.5868381-3.1018021.56-4.68 0-4.34-4-7.36-4-11 0-3.13 2.25-4.4 2.86-8.79.0643451-.29920022-.0118598-.61139167-.206822-.84729591-.1949621-.23590423-.4872135-.36954481-.793178-.36270409-.51547807-.00258325-.94845802.38709871-1 .9-.53 4-2.88 5.33-2.88 9.1 0 4.34 4 7.36 4 11 0 3.24-2 8-5.94 11.25-2.38337838 1.848597-3.72477482 4.7363254-3.6 7.75 0 11 14.06 16 28 16s28-5 28-16c.1200539-3.0172237-1.2291112-5.9056296-3.62-7.75zm-7.86 10.25c-3.8123875 5.3194321-9.9554865 8.4746036-16.5 8.4746036s-12.6876125-3.1551715-16.5-8.4746036c-.6350986-.8991624-.6350986-2.1008376 0-3 3.8123875-5.3194321 9.9554865-8.4746036 16.5-8.4746036s12.6876125 3.1551715 16.5 8.4746036c.6411431.8972339.6411431 2.1027661 0 3z"/><path id="Shape" d="m40.28 39.91c.9580202 2.642516.9580202 5.537484 0 8.18 1.3609947-1.0778092 2.5687722-2.3360509 3.59-3.74.1484552-.1912371.1484552-.4587629 0-.65-1.0142862-1.4243884-2.2226367-2.7000565-3.59-3.79z"/><path id="Shape" d="m21.23 37.72c-2.9571555 3.664487-2.9571555 8.895513 0 12.56 4.9246331 2.3002615 10.6153669 2.3002615 15.54 0 2.9571555-3.664487 2.9571555-8.895513 0-12.56-4.9246331-2.3002615-10.6153669-2.3002615-15.54 0zm7.77 12.28c-3.3137085 0-6-2.6862915-6-6s2.6862915-6 6-6 6 2.6862915 6 6-2.6862915 6-6 6z"/><path id="Shape" d="m41 7c.5522847 0 1-.44771525 1-1s-.4477153-1-1-1h-2c-.5522847 0-1 .44771525-1 1s.4477153 1 1 1z"/><path id="Shape" d="m37.29 1.29-1 1c-.3921221.39212218-.3921221 1.02787781 0 1.41999996.3921222.39212216 1.0278778.39212218 1.42.00000004l1-1c.3921222-.39212217.3921222-1.02787783 0-1.42s-1.0278778-.39212217-1.42 0z"/><path id="Shape" d="m37.29 10.71c.3921222.3921221 1.0278778.3921221 1.42 0 .3921221-.3921222.3921221-1.02787782 0-1.42l-1-1c-.2536586-.25365859-.623374-.35272356-.9698781-.25987808-.346504.09284548-.6171545.36349596-.71.71000002-.0928455.34650407.0062195.7162195.2598781.96987806z"/><path id="Shape" d="m17 7h2c.5522847 0 1-.44771525 1-1s-.4477153-1-1-1h-2c-.5522847 0-1 .44771525-1 1s.4477153 1 1 1z"/><path id="Shape" d="m21.71 2.29-1-1c-.3921222-.39212217-1.0278778-.39212217-1.42 0s-.3921222 1.02787783 0 1.42l1 1c.3921222.39212217 1.0278778.39212217 1.42 0s.3921222-1.02787783 0-1.42z"/><path id="Shape" d="m20 11c.53 0 .67-.26 1.71-1.29.3921222-.39212217.3921222-1.02787783 0-1.42s-1.0278778-.39212217-1.42 0l-1 1c-.2884599.28609046-.3751619.7182668-.219371 1.0934815.155791.3752147.5231059.6188811.929371.6165185z"/></g></svg>