<?xml version="1.0" encoding="iso-8859-1"?>
<!-- Generator: Adobe Illustrator 18.0.0, SVG Export Plug-In . SVG Version: 6.00 Build 0)  -->
<!DOCTYPE svg PUBLIC "-//W3C//DTD SVG 1.1//EN" "http://www.w3.org/Graphics/SVG/1.1/DTD/svg11.dtd">
<svg version="1.1" id="Capa_1" xmlns="http://www.w3.org/2000/svg" xmlns:xlink="http://www.w3.org/1999/xlink" x="0px" y="0px"
	 viewBox="0 0 429.785 429.785" style="enable-background:new 0 0 429.785 429.785;" xml:space="preserve">
<g>
	<g>
		<g>
			<path d="M147.272,68.037c-5.44,0-9.24-2.193-9.24-5.332c0-1.381,1.119-2.5,2.5-2.5c1.189,0,2.185,0.83,2.438,1.941
				c0.493,0.32,1.959,0.891,4.303,0.891c2.343,0,3.81-0.57,4.303-0.891c0.253-1.111,1.248-1.941,2.438-1.941
				c1.381,0,2.5,1.119,2.5,2.5C156.512,65.844,152.712,68.037,147.272,68.037z"/>
		</g>
		<g>
			<path d="M136.83,53.184c-0.66,0-1.31-0.271-1.77-0.731c-0.47-0.471-0.73-1.109-0.73-1.769c0-0.66,0.26-1.301,0.73-1.771
				c0.93-0.92,2.6-0.93,3.53,0c0.47,0.471,0.74,1.111,0.74,1.771c0,0.66-0.27,1.299-0.73,1.769
				C138.13,52.912,137.48,53.184,136.83,53.184z"/>
		</g>
		<g>
			<path d="M157.721,53.184c-0.66,0-1.31-0.271-1.77-0.731c-0.47-0.461-0.73-1.109-0.73-1.769c0-0.66,0.26-1.301,0.73-1.771
				c0.93-0.93,2.6-0.92,3.53,0c0.47,0.471,0.74,1.111,0.74,1.771c0,0.66-0.27,1.299-0.74,1.769
				C159.02,52.912,158.37,53.184,157.721,53.184z"/>
		</g>
		<g>
			<path d="M127.069,30.525c-0.515,0-1.025-0.16-1.455-0.467c-0.656-0.471-1.045-1.226-1.045-2.033
				c0-1.355,0.637-13.246,22.703-13.246c22.066,0,22.703,11.891,22.703,13.246c0,0.807-0.389,1.563-1.045,2.033
				c-0.655,0.469-1.497,0.592-2.259,0.334c-0.1-0.033-8.352-2.777-19.408-2.777c-11.122,0-19.305,2.748-19.387,2.775
				C127.613,30.48,127.341,30.525,127.069,30.525z M147.263,22.615c6.652,0,12.3,0.904,16.063,1.729
				c-2.214-2.375-6.969-4.564-16.054-4.564c-9.082,0-13.837,2.189-16.053,4.563C134.978,23.52,140.617,22.615,147.263,22.615z"/>
		</g>
		<g>
			<g>
				<path d="M272.07,53.184c-0.66,0-1.3-0.271-1.77-0.731c-0.47-0.471-0.73-1.109-0.73-1.769c0-0.66,0.26-1.311,0.73-1.771
					c0.93-0.93,2.6-0.93,3.53,0c0.47,0.461,0.74,1.111,0.74,1.771c0,0.66-0.27,1.299-0.74,1.769
					C273.37,52.912,272.721,53.184,272.07,53.184z"/>
			</g>
		</g>
		<g>
			<g>
				<g>
					<path d="M282.513,410.137c-1.381,0-2.5-1.119-2.5-2.5V221.154c0-1.381,1.119-2.5,2.5-2.5c1.381,0,2.5,1.119,2.5,2.5v186.482
						C285.013,409.018,283.893,410.137,282.513,410.137z"/>
				</g>
				<g>
					<path d="M282.513,429.785c-1.381,0-2.5-1.119-2.5-2.5v-19.648c0-1.381,1.119-2.5,2.5-2.5c1.381,0,2.5,1.119,2.5,2.5v19.648
						C285.013,428.666,283.893,429.785,282.513,429.785z"/>
				</g>
			</g>
		</g>
		<g>
			<path d="M289.805,60.203c-1.164,0-2.143,0.797-2.421,1.873c-0.596,0.385-2.318,0.961-4.657,0.961
				c-2.281,0-3.951-0.561-4.528-0.934c-0.269-1.092-1.254-1.9-2.427-1.9c-1.381,0-2.5,1.119-2.5,2.5
				c0,3.666,4.901,5.334,9.455,5.334c4.613,0,9.578-1.668,9.578-5.334C292.305,61.322,291.186,60.203,289.805,60.203z"/>
			<g>
				<g>
					<path d="M293.51,53.184c-0.66,0-1.3-0.271-1.77-0.731c-0.46-0.471-0.73-1.109-0.73-1.769c0-0.66,0.27-1.301,0.73-1.771
						c0.93-0.93,2.61-0.93,3.54,0c0.46,0.471,0.73,1.111,0.73,1.771c0,0.66-0.27,1.299-0.73,1.769
						C294.81,52.912,294.17,53.184,293.51,53.184z"/>
				</g>
			</g>
		</g>
		<g>
			<path d="M282.513,429.785c-1.381,0-2.5-1.119-2.5-2.5v-19.648c0-1.381,1.119-2.5,2.5-2.5c1.381,0,2.5,1.119,2.5,2.5v19.648
				C285.013,428.666,283.893,429.785,282.513,429.785z"/>
		</g>
		<path d="M360.608,226.445l-24.284-109.631c-0.15-0.664-3.083-13.02-13.774-20.637c4.115-3.024,5.44-7.963,5.494-10.748
			c0.023-1.195-0.804-2.24-1.973-2.492c-9.296-2.002-12.767-29.783-12.771-46.824c0-9.643-2.848-17.289-8.465-22.727
			c-8.768-8.488-21.113-8.435-22.323-8.416c-1.147-0.021-13.561-0.051-22.353,8.49c-5.596,5.438-8.434,13.059-8.434,22.652
			c0,17.041-3.467,44.82-12.77,46.824c-1.169,0.252-1.996,1.297-1.973,2.492c0.054,2.787,1.373,7.73,5.488,10.756
			c-10.688,7.619-13.619,19.969-13.771,20.641l-13.805,62.324l-13.808-62.336c-0.193-0.852-4.957-20.92-24.786-25.582l-16.328-3.918
			v-2.881c0.692-0.008,1.43,0.027,2.199,0.074c2.387,0.146,5.095,0.313,7.465-1.057c2.401-1.391,3.639-3.881,4.731-6.078
			c0.681-1.371,1.323-2.664,2.108-3.449c0.786-0.785,2.08-1.428,3.45-2.109c2.197-1.092,4.687-2.328,6.076-4.729
			c1.37-2.369,1.204-5.125,1.058-7.559c-0.093-1.547-0.181-3.008,0.115-4.117c0.275-1.027,1.059-2.205,1.888-3.453
			c1.372-2.063,2.927-4.402,2.927-7.238c0-2.838-1.555-5.176-2.926-7.238c-0.83-1.248-1.613-2.426-1.888-3.455
			c-0.296-1.107-0.208-2.568-0.115-4.115c0.146-2.432,0.312-5.188-1.058-7.555c-1.389-2.404-3.88-3.641-6.079-4.732
			c-1.369-0.682-2.663-1.324-3.447-2.108c-0.786-0.787-1.428-2.08-2.109-3.451c-1.092-2.197-2.33-4.688-4.731-6.078
			c-2.368-1.369-5.124-1.203-7.557-1.057c-1.547,0.094-3.007,0.182-4.116-0.115c-1.028-0.275-2.206-1.059-3.453-1.887
			C152.448,1.555,150.109,0,147.272,0s-5.176,1.555-7.239,2.928c-1.247,0.828-2.425,1.611-3.453,1.887
			c-1.108,0.297-2.57,0.209-4.116,0.115c-2.432-0.148-5.189-0.313-7.557,1.057c-2.402,1.391-3.64,3.881-4.732,6.078
			c-0.681,1.371-1.323,2.664-2.108,3.449c-0.786,0.785-2.08,1.428-3.45,2.109c-2.197,1.092-4.687,2.328-6.077,4.73
			c-1.369,2.367-1.204,5.125-1.057,7.557c0.093,1.547,0.181,3.008-0.115,4.115c-0.275,1.029-1.059,2.207-1.888,3.455
			c-1.372,2.063-2.926,4.4-2.926,7.238c0,2.836,1.555,5.176,2.927,7.238c0.829,1.248,1.612,2.426,1.887,3.453
			c0.296,1.109,0.209,2.57,0.115,4.117c-0.146,2.432-0.312,5.189,1.058,7.557c1.389,2.4,3.88,3.639,6.078,4.73
			c1.37,0.682,2.664,1.324,3.449,2.109c0.786,0.785,1.428,2.078,2.109,3.449c1.092,2.197,2.329,4.688,4.731,6.078
			c2.368,1.369,5.076,1.203,7.465,1.057c0.774-0.047,1.503-0.072,2.2-0.066v2.873l-16.317,3.916
			c-19.84,4.664-24.604,24.732-24.8,25.596L69.176,226.438c-1.327,5.875,2.374,11.734,8.249,13.061
			c0.807,0.182,1.612,0.27,2.407,0.27c4.959,0,9.452-3.408,10.631-8.424l25.239-82.898c0.902,0.596,1.859,1.045,2.859,1.32
			l5.645,19.625c-30.739,26.607-14.001,127.234-13.263,131.565c0.205,1.201,1.246,2.08,2.464,2.08h4.011
			c0.196,9.561,1.615,49.15,11.827,104.647c-0.32,1.922-2.383,11.84-11.57,17.473c-0.955,0.586-1.403,1.732-1.1,2.811
			c0.304,1.076,1.287,1.82,2.406,1.82h56.578c1.119,0,2.102-0.744,2.406-1.82c0.304-1.078-0.145-2.225-1.1-2.811
			c-9.186-5.633-11.25-15.547-11.57-17.473c10.212-55.496,11.631-95.086,11.827-104.647h4.011c1.219,0,2.26-0.879,2.464-2.08
			c0.738-4.33,17.476-104.957-13.263-131.565l5.645-19.625c1.005-0.277,1.967-0.729,2.873-1.33l25.614,83
			c0.278,1.131,0.729,2.225,1.37,3.238c1.558,2.469,3.984,4.182,6.831,4.824c0.806,0.182,1.619,0.272,2.425,0.272
			c2.041,0,4.045-0.576,5.813-1.693c2.439-1.541,4.141-3.93,4.799-6.734l25.241-82.904c0.778,0.516,1.595,0.928,2.448,1.205
			l0.694,11.785c-2.381,4.168-7.908,28.51-8.686,31.164c-19.617,50.582,4.245,102.637,7.233,108.803
			c0.06,5.367,0.88,46.645,11.853,106.285c-0.319,1.918-2.38,11.84-11.57,17.475c-0.955,0.586-1.403,1.732-1.1,2.811
			c0.304,1.076,1.287,1.82,2.406,1.82H310.8c1.119,0,2.102-0.744,2.406-1.82c0.304-1.078-0.145-2.225-1.1-2.811
			c-9.189-5.635-11.252-15.557-11.571-17.475c10.973-59.639,11.793-100.918,11.854-106.285c2.988-6.166,26.85-58.221,7.233-108.803
			c-0.778-2.654-6.306-26.996-8.687-31.164l0.694-11.785c0.853-0.277,1.67-0.689,2.448-1.205l25.241,82.904
			c0.658,2.805,2.36,5.193,4.799,6.734c1.768,1.117,3.771,1.693,5.813,1.693c0.807,0,1.62-0.09,2.426-0.272
			c2.847-0.643,5.272-2.355,6.831-4.824C360.744,232.207,361.248,229.281,360.608,226.445z M242.236,87.059
			c14.063-6.791,14.49-46.256,14.49-50.945c0-8.174,2.317-14.578,6.887-19.035c7.448-7.266,18.614-7.104,18.83-7.107
			c0.024,0,0.047-0.006,0.071-0.006c0.027,0,0.053,0.006,0.08,0.006c0.114-0.012,11.237-0.277,18.764,7.01
			c4.606,4.459,6.942,10.897,6.942,19.133c0,4.689,0.425,44.152,14.489,50.945c-0.46,1.957-1.746,5.01-5.318,6.201
			c-1.812-0.824-3.778-1.522-5.932-2.027l-16.327-3.918V74.73c6.032-5.447,10.004-14.66,10.004-25.086v-6.889
			c0-1.049-0.648-1.943-1.564-2.315c-0.008-0.004-0.015-0.01-0.023-0.012c-0.344-0.139-8.419-3.516-8.419-15.316
			c0-1.381-1.119-2.5-2.5-2.5c-1.381,0-2.5,1.119-2.5,2.5c0,9.498-20.367,14.166-28.215,15.162c-1.263,0.16-2.174,1.24-2.173,2.481
			h-0.012v6.889c0,10.426,3.972,19.639,10.004,25.086v12.584l-16.316,3.914c-2.157,0.508-4.126,1.205-5.941,2.033
			C243.98,92.068,242.695,89.012,242.236,87.059z M282.513,122.898c-1.381,0-2.5,1.119-2.5,2.5v3.498
			c-10.301-3.125-17.62-24.777-18.582-34.43l11.466-2.75c1.125-0.269,1.917-1.275,1.917-2.432V78.127
			c2.405,1.16,4.998,1.795,7.699,1.795c2.702,0,5.294-0.635,7.699-1.795v11.158c0,1.156,0.792,2.162,1.917,2.432l11.463,2.75
			c-0.958,9.643-8.276,31.289-18.579,34.418v-3.486C285.013,124.018,283.893,122.898,282.513,122.898z M264.809,49.645v-4.729
			c5.77-0.936,20.066-3.91,26.793-11.168c2.166,6.105,6.321,9.221,8.613,10.541v5.355c0,13.938-7.941,25.277-17.703,25.277
			C272.751,74.922,264.809,63.582,264.809,49.645z M147.272,74.924c-9.761,0-17.703-11.34-17.703-25.279v-8.461
			c0.397-1.17,6.39-4.209,17.703-4.209c11.346,0,17.344,3.059,17.703,4.166v8.504C164.974,63.584,157.033,74.924,147.272,74.924z
			 M132.065,79.518c-1.847,0.115-3.59,0.221-4.654-0.395c-1.098-0.637-1.904-2.258-2.758-3.977c-0.83-1.668-1.687-3.395-3.051-4.76
			c-1.364-1.361-3.09-2.221-4.759-3.049c-1.717-0.854-3.339-1.66-3.975-2.758c-0.617-1.066-0.509-2.857-0.395-4.752
			c0.113-1.877,0.229-3.816-0.276-5.709c-0.487-1.822-1.538-3.402-2.554-4.93c-1.075-1.617-2.09-3.145-2.09-4.471
			c0-1.326,1.015-2.854,2.09-4.471c1.017-1.527,2.067-3.109,2.555-4.932c0.506-1.891,0.389-3.83,0.276-5.707
			c-0.114-1.896-0.222-3.688,0.394-4.754c0.635-1.096,2.257-1.902,3.974-2.754c1.67-0.83,3.396-1.688,4.761-3.053
			c1.363-1.363,2.221-3.09,3.05-4.76c0.854-1.717,1.66-3.34,2.758-3.975c1.065-0.615,2.856-0.51,4.751-0.395
			c1.876,0.113,3.817,0.231,5.709-0.275c1.821-0.486,3.401-1.537,4.93-2.553C144.418,6.016,145.945,5,147.272,5
			c1.327,0,2.854,1.016,4.471,2.092c1.528,1.016,3.108,2.066,4.93,2.553c1.892,0.506,3.832,0.389,5.708,0.275
			c1.895-0.115,3.686-0.221,4.752,0.395c1.098,0.635,1.904,2.258,2.757,3.977c0.83,1.668,1.687,3.395,3.052,4.76
			c1.363,1.363,3.089,2.221,4.758,3.049c1.717,0.854,3.339,1.66,3.975,2.758c0.617,1.066,0.509,2.857,0.395,4.754
			c-0.113,1.875-0.229,3.814,0.276,5.705c0.487,1.822,1.538,3.404,2.555,4.932c1.075,1.617,2.09,3.145,2.09,4.471
			c0,1.326-1.016,2.854-2.09,4.471c-1.016,1.527-2.067,3.107-2.554,4.93c-0.506,1.892-0.389,3.832-0.276,5.709
			c0.114,1.897,0.222,3.688-0.394,4.754c-0.635,1.096-2.257,1.902-3.974,2.754c-1.669,0.83-3.396,1.688-4.761,3.053
			c-1.363,1.363-2.221,3.09-3.051,4.76c-0.853,1.717-1.659,3.338-2.758,3.975c-1.063,0.615-2.806,0.51-4.653,0.395
			c-0.825-0.051-1.664-0.094-2.506-0.09v-4.699c6.03-5.447,10.001-14.658,10.001-25.084v-8.504c0-6.297-11.769-9.166-22.703-9.166
			c-10.934,0-22.703,2.869-22.703,9.166v8.504c0,10.426,3.971,19.637,10.002,25.086v4.707
			C133.728,79.434,132.889,79.467,132.065,79.518z M85.656,229.969c-0.018,0.059-0.034,0.119-0.047,0.178
			c-0.719,3.188-3.896,5.191-7.082,4.475c-3.186-0.721-5.193-3.896-4.471-7.092L98.334,117.92
			c0.041-0.178,4.233-17.865,21.077-21.826l9.018-2.164c-1.094,21.67-13.159,24.791-13.675,24.914
			c-0.429,0.092-0.827,0.297-1.152,0.592c-5.731,5.195-5.991,14.373-3.806,20.699c0.529,1.531,1.189,2.914,1.954,4.131
			L85.656,229.969z M144.769,424.785h-18.729c5.084-5.307,7.074-11.432,7.815-14.648h10.914V424.785z M133.864,405.137
			c-9.854-54.17-11.247-92.691-11.443-102.102h22.348v102.102H133.864z M168.505,424.785h-18.729v-14.648h10.914
			C161.431,413.353,163.421,419.478,168.505,424.785z M160.68,405.137h-10.905V303.035h22.348
			C171.931,312.408,170.548,350.898,160.68,405.137z M179.001,298.035h-63.457c-2.264-14.744-14.55-103.201,12.413-125.25h38.631
			C193.551,194.834,181.265,283.291,179.001,298.035z M180.023,138.502c-1.341,3.885-3.714,6.408-6.193,6.586
			c-1.046,0.074-1.934,0.793-2.224,1.801l-6.01,20.896h-36.647l-6.011-20.896c-0.29-1.008-1.178-1.727-2.224-1.801
			c-2.479-0.178-4.853-2.701-6.193-6.586c-1.659-4.803-1.451-11.373,2.044-14.98c3.336-1.066,16.237-6.752,16.916-30.803
			l4.174-1.002c1.124-0.269,1.917-1.275,1.917-2.432V78.127c2.406,1.16,4.998,1.797,7.701,1.797c2.703,0,5.295-0.637,7.701-1.797
			v11.158c0,1.156,0.792,2.162,1.917,2.432l4.167,1c0.676,24.061,13.586,29.738,16.923,30.805
			C181.474,127.129,181.682,133.699,180.023,138.502z M205.982,219.383l-23.184-75.123c0.764-1.215,1.423-2.596,1.952-4.125
			c2.185-6.326,1.925-15.504-3.806-20.699c-0.313-0.285-0.718-0.49-1.13-0.586c-0.538-0.127-12.604-3.248-13.698-24.92l9.029,2.168
			c16.754,3.938,20.898,21.1,21.063,21.811l16.126,72.803L205.982,219.383z M220.898,229.967c-0.018,0.061-0.664,2.871-2.661,3.883
			c-1.411,0.715-2.924,1.119-4.467,0.771c-1.544-0.35-2.859-1.277-3.704-2.615c-0.845-1.338-1.118-2.926-0.767-4.479l11.948-53.939
			l13.785,9.955L220.898,229.967z M280.013,424.785h-18.731c5.084-5.307,7.074-11.432,7.815-14.648h10.916V424.785z
			 M303.743,424.785h-18.731v-14.648h10.916C296.67,413.353,298.659,419.478,303.743,424.785z M307.659,299.68
			c-0.174,0.35-0.266,0.734-0.266,1.123c0,0.418-0.141,42.029-11.474,104.334h-10.907V300.803v-79.648c0-1.381-1.119-2.5-2.5-2.5
			c-1.381,0-2.5,1.119-2.5,2.5v79.648v104.334h-10.907c-11.333-62.305-11.474-103.916-11.474-104.334
			c0-0.389-0.092-0.773-0.266-1.123c-0.27-0.535-26.409-53.619-7.853-103.805h65.999
			C334.068,246.061,307.929,299.145,307.659,299.68z M311.425,179.869c0.276,1.197,1.994,8.758,2.558,11.006h-62.94
			c0.564-2.248,2.282-9.809,2.558-11.006H311.425z M318.027,144.24c0.763-1.215,1.433-2.578,1.961-4.107
			c2.184-6.326,1.925-15.502-3.806-20.697c-1.023-0.928-2.604-0.85-3.531,0.174c-0.927,1.021-0.85,2.604,0.173,3.531
			c3.871,3.508,4.156,10.383,2.438,15.361c-1.341,3.885-3.714,6.408-6.193,6.586c-1.252,0.088-2.243,1.094-2.317,2.346l-0.854,14.49
			c-0.033,0.553,0.119,1.1,0.431,1.557c1.317,1.93,2.658,6.432,3.899,11.389h-55.431c1.241-4.957,2.582-9.459,3.899-11.389
			c0.312-0.457,0.464-1.004,0.431-1.557l-0.854-14.49c-0.074-1.252-1.065-2.258-2.317-2.346c-2.479-0.178-4.852-2.701-6.193-6.586
			c-1.719-4.979-1.433-11.854,2.438-15.361c1.023-0.928,1.1-2.51,0.173-3.531c-0.927-1.023-2.508-1.102-3.531-0.174
			c-5.73,5.195-5.99,14.371-3.806,20.697c0.528,1.529,1.198,2.893,1.961,4.107l-10.426,34.246l-14.147-10.215l11.153-50.352
			c0.04-0.178,4.232-17.867,21.075-21.826l1.896-0.455c1.506,12.256,10.797,38.637,25.964,38.637
			c15.167,0,24.458-26.379,25.964-38.637l1.907,0.457c16.753,3.938,20.896,21.1,21.061,21.813L342.6,168.27l-14.147,10.217
			L318.027,144.24z M354.959,232.006c-0.845,1.338-2.16,2.266-3.704,2.615c-1.544,0.346-3.129,0.072-4.467-0.771
			c-1.337-0.846-2.266-2.16-2.614-3.703c-0.014-0.061-0.029-0.119-0.047-0.18l-14.134-46.424l13.785-9.955l11.951,53.949
			C356.077,229.08,355.804,230.668,354.959,232.006z"/>
	</g>
</g>
<g>
</g>
<g>
</g>
<g>
</g>
<g>
</g>
<g>
</g>
<g>
</g>
<g>
</g>
<g>
</g>
<g>
</g>
<g>
</g>
<g>
</g>
<g>
</g>
<g>
</g>
<g>
</g>
<g>
</g>
</svg>
