<?xml version="1.0" encoding="iso-8859-1"?>
<!-- Generator: Adobe Illustrator 19.0.0, SVG Export Plug-In . SVG Version: 6.00 Build 0)  -->
<svg version="1.1" id="Capa_1" xmlns="http://www.w3.org/2000/svg" xmlns:xlink="http://www.w3.org/1999/xlink" x="0px" y="0px"
	 viewBox="0 0 511.999 511.999" style="enable-background:new 0 0 511.999 511.999;" xml:space="preserve">
<g>
	<g>
		<path d="M430.13,200.707l-25.808-31.642l14.802-38.156c2.67-6.866,2.67-14.428,0.001-21.293
			c-4.426-11.387-15.179-18.744-27.395-18.744c-3.643,0-7.224,0.673-10.634,1.999l-38.164,14.804l-31.641-25.808
			c-0.204-0.166-0.413-0.324-0.626-0.471c-5.557-4.308-12.521-6.502-19.6-6.107c-7.822,0.435-15.007,3.889-20.231,9.728
			c-5.225,5.839-7.862,13.363-7.427,21.188l2.282,40.815l-34.447,22.199c-0.264,0.17-0.517,0.351-0.759,0.541
			c-5.75,3.966-9.886,9.828-11.69,16.603c-4.169,15.646,5.168,31.767,20.835,35.942l2.167,0.573L7.583,457.088
			c-5.647,5.647-8.343,13.827-7.397,22.443c0.869,7.92,4.662,15.597,10.682,21.616c7.164,7.164,16.349,10.839,25.038,10.839
			c7.141,0,13.948-2.484,19.02-7.555l234.203-234.203l0.234,0.887c1.671,7.642,6.202,14.174,12.784,18.419
			c4.761,3.07,10.263,4.692,15.909,4.692c10.043-0.001,19.284-5.035,24.723-13.469l22.198-34.447l39.73,2.221
			c7.657,0.711,15.402-1.666,21.338-6.539C438.555,231.722,440.379,213.191,430.13,200.707z M40.784,490.288
			c-2.954,2.954-10.158,2.331-15.774-3.284c-2.772-2.772-4.573-6.291-4.943-9.655c-0.164-1.501-0.168-4.292,1.659-6.118
			l242.443-242.444l15.063,3.979l3.986,15.088L40.784,490.288z M416.732,220.22c-0.245,2.486-1.443,4.728-3.374,6.313
			c-2.138,1.754-4.4,2.123-5.921,2.123c-0.318,0-0.641-0.017-0.957-0.048c-0.15-0.016-0.301-0.027-0.451-0.036l-45.745-2.557
			c-3.584-0.198-7.015,1.543-8.965,4.567l-25.35,39.338c-1.738,2.695-4.696,4.305-7.913,4.305c-1.794,0-3.548-0.519-5.07-1.501
			c-2.129-1.373-3.586-3.496-4.104-5.978c-0.036-0.171-0.076-0.342-0.121-0.511l-11.68-44.205c-0.919-3.479-3.636-6.195-7.114-7.114
			l-45.21-11.943c-2.417-0.645-4.439-2.191-5.692-4.356c-1.254-2.165-1.59-4.688-0.945-7.105c0.601-2.256,2.011-4.194,3.971-5.457
			c0.215-0.138,0.422-0.283,0.622-0.435l38.704-24.942c3.024-1.949,4.768-5.372,4.567-8.964l-2.607-46.622
			c-0.138-2.488,0.701-4.881,2.363-6.739c1.661-1.857,3.947-2.956,6.437-3.095c2.972-0.162,5.183,1.075,6.435,2.104
			c0.18,0.147,0.363,0.288,0.55,0.421l35.641,29.069c2.787,2.274,6.583,2.875,9.937,1.574l43.598-16.912
			c1.097-0.426,2.239-0.643,3.395-0.643c3.903,0,7.339,2.351,8.753,5.991c0.853,2.192,0.853,4.606-0.003,6.805l-16.909,43.591
			c-1.301,3.355-0.7,7.149,1.574,9.937l29.506,36.177C416.239,215.302,416.976,217.734,416.732,220.22z"/>
	</g>
</g>
<g>
	<g>
		<path d="M327.287,0.015c-5.522,0-10,4.477-10,10v28.809c0,5.522,4.477,9.999,10,9.999c5.522,0,10-4.477,10-10V10.015
			C337.287,4.492,332.809,0.015,327.287,0.015z"/>
	</g>
</g>
<g>
	<g>
		<path d="M249.477,29.964L235.073,5.015c-2.762-4.782-8.877-6.422-13.66-3.66c-4.783,2.761-6.422,8.877-3.66,13.66l14.404,24.949
			c1.853,3.208,5.213,5.002,8.67,5.002c1.696,0,3.416-0.433,4.99-1.342C250.6,40.863,252.239,34.747,249.477,29.964z"/>
	</g>
</g>
<g>
	<g>
		<path d="M154.348,174.734h-28.809c-5.522,0-10,4.477-10,10s4.477,10,10,10h28.809c5.522,0,10-4.477,10-10
			C164.348,179.211,159.87,174.734,154.348,174.734z"/>
	</g>
</g>
<g>
	<g>
		<path d="M436.82,354.454l-14.404-24.95c-2.76-4.781-8.874-6.421-13.66-3.661c-4.783,2.762-6.422,8.878-3.66,13.661l14.404,24.95
			c1.852,3.208,5.213,5.002,8.67,5.002c1.696,0,3.415-0.433,4.99-1.341C437.943,365.353,439.582,359.238,436.82,354.454z"/>
	</g>
</g>
<g>
	<g>
		<path d="M501.999,174.734h-29.586c-5.523,0-10,4.477-10,10c0,5.523,4.477,10,10,10h29.586c5.523,0,10-4.477,10-10
			C511.999,179.211,507.522,174.734,501.999,174.734z"/>
	</g>
</g>
<g>
	<g>
		<path d="M433.162,1.355c-4.784-2.763-10.9-1.123-13.66,3.66l-14.404,24.949c-2.762,4.783-1.123,10.899,3.66,13.66
			c1.575,0.91,3.294,1.342,4.99,1.342c3.456,0,6.818-1.794,8.67-5.002l14.404-24.949C439.583,10.232,437.945,4.116,433.162,1.355z"
			/>
	</g>
</g>
<g>
	<g>
		<path d="M205.924,103.119l-17.921-10.347c-4.785-2.763-10.9-1.123-13.66,3.66c-2.762,4.783-1.123,10.899,3.66,13.66l17.921,10.347
			c1.575,0.91,3.294,1.342,4.99,1.342c3.456,0,6.818-1.794,8.67-5.002C212.346,111.996,210.707,105.88,205.924,103.119z"/>
	</g>
</g>
<g>
	<g>
		<path d="M327.287,320.645c-5.522,0-10,4.477-10,10v28.81c0,5.523,4.478,10,10,10c5.522,0,10-4.477,10-10v-28.81
			C337.287,325.122,332.809,320.645,327.287,320.645z"/>
	</g>
</g>
<g>
	<g>
		<path d="M473.914,257.842l-15.265-8.812c-4.784-2.761-10.899-1.122-13.66,3.661c-2.762,4.783-1.123,10.899,3.66,13.661
			l15.265,8.813c1.575,0.909,3.294,1.341,4.99,1.341c3.456,0,6.818-1.794,8.67-5.002
			C480.335,266.719,478.697,260.603,473.914,257.842z"/>
	</g>
</g>
<g>
	<g>
		<path d="M492.289,89.469c-2.759-4.782-8.875-6.421-13.66-3.66l-29.98,17.309c-4.783,2.761-6.422,8.877-3.66,13.66
			c1.851,3.209,5.213,5.002,8.67,5.002c1.696,0,3.415-0.433,4.99-1.342l29.98-17.309C493.412,100.368,495.051,94.252,492.289,89.469
			z"/>
	</g>
</g>
<g>
	<g>
		<path d="M327.287,378.89c-5.522,0-10,4.477-10,10v0.452c0,5.523,4.478,10,10,10c5.522,0,10-4.477,10-10v-0.452
			C337.287,383.367,332.809,378.89,327.287,378.89z"/>
	</g>
</g>
<g>
	<g>
		<path d="M398.921,49.546c-5.522,0-10,4.477-10,10v0.453c0,5.523,4.478,10,10,10c5.522,0,10-4.477,10-10v-0.453
			C408.921,54.023,404.443,49.546,398.921,49.546z"/>
	</g>
</g>
<g>
</g>
<g>
</g>
<g>
</g>
<g>
</g>
<g>
</g>
<g>
</g>
<g>
</g>
<g>
</g>
<g>
</g>
<g>
</g>
<g>
</g>
<g>
</g>
<g>
</g>
<g>
</g>
<g>
</g>
</svg>
