<?xml version="1.0" encoding="iso-8859-1"?>
<!-- Generator: Adobe Illustrator 19.0.0, SVG Export Plug-In . SVG Version: 6.00 Build 0)  -->
<svg version="1.1" id="Capa_1" xmlns="http://www.w3.org/2000/svg" xmlns:xlink="http://www.w3.org/1999/xlink" x="0px" y="0px"
	 viewBox="0 0 512.001 512.001" style="enable-background:new 0 0 512.001 512.001;" xml:space="preserve">
<g>
	<g>
		<path d="M496.15,71.783c-21.135-21.134-55.522-21.134-76.657,0l-5.678,5.678c-7.671,7.671-12.543,17.09-14.645,26.987
			l-1.702-1.702c-13.424-13.424-32.956-18.053-50.975-12.08l-42.727,14.159c-3.546,1.175-7.391,0.265-10.034-2.378L264.374,73.09
			c-3.92-3.92-10.276-3.92-14.196,0l-1.038,1.038l-13.265-13.265c0.558-8.111-2.248-16.412-8.435-22.598l-10.642-10.642
			c-11.351-11.35-29.817-11.35-41.168,0l-16.447,16.447c-11.35,11.35-11.35,29.818,0,41.168l10.643,10.643
			c5.675,5.674,13.13,8.512,20.584,8.512c0.673,0,1.344-0.031,2.015-0.077l13.265,13.265l-0.846,0.846
			c-3.92,3.92-3.92,10.276,0,14.197l7.515,7.515L92.649,74.49c-1.191-0.654-2.47-1.04-3.762-1.177l-42.18-26.325
			c-12.126-7.569-27.652-5.796-37.759,4.311c-6.621,6.621-9.81,15.754-8.747,25.056c1.063,9.302,6.227,17.481,14.17,22.439
			l31.468,19.641c0.625,2.158,1.956,4.067,3.819,5.39l38.98,27.69c4.519,3.21,10.785,2.149,13.996-2.37
			c3.21-4.519,2.15-10.786-2.37-13.996L70.97,114.34l18.627-18.627l159.73,87.593l-42.671,26.797l-51.908-35.656
			c-4.57-3.139-10.818-1.979-13.958,2.591c-3.139,4.569-1.979,10.819,2.591,13.958l44.752,30.741l-0.16,0.1
			c-2.591,1.627-4.298,4.347-4.637,7.388c-0.339,3.041,0.728,6.07,2.896,8.228l52.761,52.493v149.756v28.095
			c0,13.837,11.257,25.095,25.095,25.095h85.257c5.544,0,10.038-4.494,10.038-10.038v-3c0-26.566-20.751-48.365-46.894-50.069
			l30.17-135.897l8.312,8.312c5.675,5.674,13.13,8.512,20.584,8.512s14.909-2.838,20.584-8.512l8.615-8.615
			c0.573-0.573,1.113-1.17,1.632-1.782l51.571-51.156c11.211-11.121,17.404-25.942,17.436-41.734
			c0.022-10.76-2.824-21.076-8.167-30.093c9.991-2.072,19.509-6.964,27.247-14.702l5.678-5.678
			C517.284,127.305,517.284,92.916,496.15,71.783z M55.881,101.037L25,81.763c-2.72-1.698-4.49-4.5-4.853-7.686
			c-0.363-3.186,0.729-6.315,2.996-8.582c2.028-2.028,4.691-3.076,7.385-3.076c1.906,0,3.827,0.525,5.548,1.599l34.987,21.836
			L55.881,101.037z M403.751,140.185c2.529,5.026,5.874,9.742,10.064,13.932c1.86,1.86,3.827,3.547,5.875,5.08l-26.84,5.115
			L403.751,140.185z M196.798,81.684c-3.522,3.523-9.254,3.523-12.776,0l-10.643-10.643c-3.522-3.522-3.522-9.254,0-12.776
			l16.447-16.447c1.761-1.762,4.074-2.642,6.388-2.642s4.626,0.88,6.388,2.642l10.643,10.643c3.522,3.522,3.522,9.254,0,12.776
			L196.798,81.684z M211.685,95.185l15.061-15.059l8.094,8.094l-15.06,15.06L211.685,95.185z M338.475,472.815h-74.388
			c-2.767,0-5.019-2.252-5.019-5.019v-18.057h40.935h9.189C323.374,449.739,335.298,459.593,338.475,472.815z M291.949,429.664
			h-32.882V309.918l27.457,27.318c1.892,1.882,4.442,2.922,7.08,2.922c0.378,0,0.759-0.021,1.139-0.064
			c3.031-0.346,5.741-2.053,7.363-4.637l16.645-26.521L291.949,429.664z M311.997,281.931l-24.235-24.235
			c-3.92-3.92-10.276-3.92-14.196,0c-3.92,3.92-3.92,10.276,0,14.197l27.483,27.483l-9.27,14.771l-82.44-82.021l58.375-36.658
			l60.668,60.361L311.997,281.931z M337.962,237.039l-57.596-57.304l40.686-9.154c5.408-1.217,8.806-6.588,7.591-11.996
			c-1.218-5.409-6.589-8.806-11.996-7.591l-53.094,11.945l-37.417-37.417l31.14-31.14l22.259,22.261
			c8.043,8.043,19.747,10.818,30.545,7.238l42.727-14.16c10.767-3.569,22.442-0.803,30.463,7.219l6.167,6.166L337.962,237.039z
			 M387.43,278.358l-3.272,3.245c-0.38,0.377-0.713,0.783-1.021,1.203l-5.198,5.198c-3.519,3.522-9.251,3.522-12.773-0.001
			l-14.107-14.107c-1.671-1.67-2.54-3.838-2.625-6.032l1.009-4.545c0.414-0.791,0.952-1.534,1.616-2.198l8.615-8.615
			c1.762-1.762,4.075-2.642,6.388-2.642c1.003,0,2.003,0.176,2.96,0.507c0.975,0.881,2.076,1.54,3.245,1.97
			c0.059,0.056,0.123,0.106,0.182,0.165l14.107,14.107c1.706,1.706,2.646,3.975,2.646,6.388
			C389.201,274.957,388.574,276.814,387.43,278.358z M439.818,226.394l-33.691,33.419c-1.374-2.697-3.172-5.195-5.374-7.397
			l-10.147-10.147l15.993-15.993c3.92-3.92,3.92-10.276,0-14.197c-3.92-3.92-10.276-3.92-14.197,0l-18.731,18.731
			c-3.418-0.919-6.969-1.215-10.471-0.872l19.547-43.263l60.539-11.539c5.221,6.778,8.048,15.036,8.03,23.734
			C451.295,209.287,447.212,219.06,439.818,226.394z M481.954,134.243l-5.678,5.678c-13.306,13.307-34.959,13.307-48.265,0
			c-13.307-13.306-13.307-34.959,0-48.265l5.678-5.678c6.653-6.653,15.393-9.981,24.133-9.981c8.74,0,17.48,3.327,24.133,9.981
			C495.261,99.285,495.261,120.936,481.954,134.243z"/>
	</g>
</g>
<g>
	<g>
		<path d="M129.631,155.846c-1.867-1.867-4.457-2.941-7.097-2.941s-5.23,1.074-7.097,2.941c-1.867,1.867-2.941,4.457-2.941,7.097
			c0,2.65,1.074,5.24,2.941,7.097c1.867,1.877,4.457,2.941,7.097,2.941s5.23-1.064,7.097-2.941c1.867-1.857,2.941-4.447,2.941-7.097
			C132.572,160.302,131.498,157.713,129.631,155.846z"/>
	</g>
</g>
<g>
	<g>
		<path d="M259.902,229.834c-1.867-1.867-4.457-2.941-7.097-2.941c-2.65,0-5.23,1.074-7.097,2.941
			c-1.867,1.867-2.941,4.457-2.941,7.097c0,2.64,1.074,5.23,2.941,7.097c1.867,1.867,4.447,2.941,7.097,2.941
			c2.64,0,5.23-1.074,7.097-2.941c1.867-1.867,2.941-4.457,2.941-7.097C262.843,234.291,261.769,231.701,259.902,229.834z"/>
	</g>
</g>
<g>
	<g>
		<path d="M143.227,222.852l-81.97-57.821c-4.53-3.195-10.793-2.113-13.989,2.416c-3.196,4.53-2.114,10.793,2.416,13.989
			l81.97,57.821c1.759,1.241,3.777,1.837,5.777,1.837c3.152,0,6.257-1.482,8.211-4.253
			C148.839,232.31,147.758,226.047,143.227,222.852z"/>
	</g>
</g>
<g>
</g>
<g>
</g>
<g>
</g>
<g>
</g>
<g>
</g>
<g>
</g>
<g>
</g>
<g>
</g>
<g>
</g>
<g>
</g>
<g>
</g>
<g>
</g>
<g>
</g>
<g>
</g>
<g>
</g>
</svg>
