<svg height="512" viewBox="0 0 512 512.0008" width="512" xmlns="http://www.w3.org/2000/svg"><path d="m447.671875 304.402344-42.675781-8.417969h-.003906c-5.460938-1.074219-10.753907 2.480469-11.828126 7.9375l-2.984374 15.164063-32.792969-6.464844c-5.453125-1.078125-10.75 2.476562-11.828125 7.933594-1.074219 5.457031 2.476562 10.75 7.933594 11.828124l42.675781 8.414063c.660156.132813 1.3125.195313 1.960937.195313 4.710938 0 8.921875-3.328126 9.867188-8.125 0 0 .003906-.003907.003906-.003907l2.984375-15.167969 32.792969 6.46875c.65625.128907 1.3125.191407 1.957031.191407 4.714844 0 8.925781-3.324219 9.871094-8.125 1.074219-5.457031-2.476563-10.75-7.933594-11.828125zm0 0"/><path d="m196.230469 162.863281c1.425781 4.1875 5.339843 6.820313 9.527343 6.820313 1.078126 0 2.179688-.171875 3.253907-.542969 5.265625-1.796875 8.074219-7.519531 6.277343-12.785156l-10.800781-31.640625 14.636719-4.996094c5.257812-1.792969 8.066406-7.5 6.289062-12.757812-.003906-.007813-.003906-.015626-.007812-.023438l-14.027344-41.144531c-1.792968-5.265625-7.515625-8.078125-12.78125-6.285157-5.265625 1.796876-8.074218 7.519532-6.28125 12.78125l10.777344 31.617188-14.640625 4.996094s0 0-.003906 0c-5.261719 1.796875-8.074219 7.523437-6.277344 12.785156zm0 0"/><path d="m507.589844 35.078125-30.636719-30.609375c-5.511719-5.582031-14.3125-5.976562-20.914063-.945312l-70.878906 53.863281c-3.324218 2.492187-5.398437 6.359375-5.683594 10.605469-.308593 4.507812 1.433594 9.09375 4.601563 12.21875l2.839844 2.84375-105.835938 105.839843-3.929687-3.929687c-5.652344-5.648438-18.289063-13.386719-39.425782-1.691406l-219.566406 121.375c-12.941406 7.167968-19.921875 20.570312-17.777344 34.144531 2.269532 14.386719 13.882813 25.308593 30.304688 28.503906l83.605469 16.320313c5.59375 1.105468 8.894531 2.324218 10.390625 3.835937 1.46875 1.492187 2.609375 4.640625 3.691406 10.234375l16.320312 83.621094c3.203126 16.425781 14.125 28.039062 28.507813 30.308594 1.628906.257812 3.253906.382812 4.867187.382812 11.832032 0 22.96875-6.769531 29.277344-18.164062l34.230469-61.921876c2.691406-4.867187.929687-10.992187-3.941406-13.683593-4.867188-2.691407-10.992188-.929688-13.683594 3.9375l-34.230469 61.917969c-3.109375 5.613281-8.109375 8.46875-13.382812 7.636718-5.875-.929687-10.3125-6.261718-11.875-14.269531l-16.320313-83.613281c-3.671875-18.953125-10.953125-26.238282-29.976562-29.988282l-83.625-16.324218c-8.003907-1.558594-13.335938-5.996094-14.265625-11.875-.832032-5.269532 2.023437-10.273438 7.632812-13.378906l219.566406-121.375c7.316407-4.046876 12.507813-4.617188 15.433594-1.691407l3.929688 3.933594-49.441406 49.441406c-3.574219 3.574219-5.542969 8.335938-5.542969 13.410157 0 5.078124 1.96875 9.839843 5.542969 13.414062l15.160156 15.160156c3.578125 3.605469 8.351562 5.59375 13.441406 5.59375 5.078125 0 9.84375-1.976562 13.410156-5.5625l49.460938-49.453125 3.941406 3.9375c2.925781 2.925781 2.355469 8.121094-1.691406 15.4375l-43.1875 78.074219c-2.691406 4.863281-.929688 10.992188 3.9375 13.683594 1.546875.855468 3.214844 1.261718 4.867187 1.261718 3.542969 0 6.980469-1.875 8.820313-5.199218l43.1875-78.070313c11.691406-21.140625 3.957031-33.777343-1.691406-39.429687l-3.941407-3.9375 105.820313-105.804688 2.886718 2.886719c2.980469 2.9375 6.984376 4.574219 11.128907 4.574219.355469 0 .710937-.015625 1.066406-.039063 4.191406-.28125 8.03125-2.308593 10.535156-5.554687.015625-.019532.027344-.039063.042969-.058594l53.898438-70.960938c4.992187-6.574218 4.613281-15.347656-.902344-20.867187zm-261.589844 244.445313-13.527344-13.527344 168.679688-168.6875 6.785156 6.773437 6.757812 6.765625zm196.21875-169.625-5.933594-5.941407c-.074218-.078125-.140625-.164062-.21875-.242187l-14.203125-14.1875-19.730469-19.742188 63.441407-48.210937 24.863281 24.839843zm0 0"/><path d="m154.179688 305.855469c-3.933594 3.933593-3.9375 10.308593-.003907 14.242187l37.714844 37.746094c1.96875 1.96875 4.546875 2.953125 7.125 2.953125 2.574219 0 5.152344-.980469 7.117187-2.945313 3.9375-3.933593 3.9375-10.308593.007813-14.246093l-37.71875-37.746094c-3.929687-3.933594-10.308594-3.9375-14.242187-.003906zm0 0"/><path d="m225 334.8125c2.578125 0 5.160156-.984375 7.125-2.953125 3.933594-3.9375 3.929688-10.3125-.003906-14.242187l-37.746094-37.71875c-3.933594-3.933594-10.308594-3.929688-14.242188.003906-3.933593 3.933594-3.929687 10.308594.003907 14.242187l37.746093 37.71875c1.964844 1.964844 4.542969 2.949219 7.117188 2.949219zm0 0"/><path d="m260.136719 379.664062c-4.972657-2.488281-11.023438-.472656-13.511719 4.503907l-.082031.167969c-2.488281 4.976562-.472657 11.027343 4.503906 13.515624 1.445313.722657 2.980469 1.0625 4.496094 1.0625 3.691406 0 7.25-2.039062 9.015625-5.566406l.085937-.171875c2.484375-4.976562.46875-11.023437-4.507812-13.511719zm0 0"/></svg>