<?xml version="1.0" encoding="iso-8859-1"?>
<!-- Generator: Adobe Illustrator 19.0.0, SVG Export Plug-In . SVG Version: 6.00 Build 0)  -->
<svg version="1.1" id="Capa_1" xmlns="http://www.w3.org/2000/svg" xmlns:xlink="http://www.w3.org/1999/xlink" x="0px" y="0px"
	 viewBox="0 0 512 512" style="enable-background:new 0 0 512 512;" xml:space="preserve">
<g>
	<g>
		<path d="M123.17,185.756c-9.515-7.433-23.304-5.74-30.738,3.774c-2.55,3.264-1.971,7.977,1.292,10.528
			c1.371,1.071,2.998,1.59,4.612,1.59c2.229,0,4.436-0.99,5.915-2.883c2.343-2.998,6.687-3.53,9.683-1.189
			c3.264,2.55,7.977,1.971,10.527-1.293C127.013,193.019,126.434,188.306,123.17,185.756z"/>
	</g>
</g>
<g>
	<g>
		<path d="M200.163,176.303c-9.516-7.434-23.305-5.741-30.738,3.774c-2.55,3.264-1.972,7.977,1.292,10.528
			c1.371,1.071,2.998,1.59,4.612,1.59c2.229,0,4.436-0.99,5.915-2.883c2.342-2.998,6.685-3.532,9.683-1.189
			c3.264,2.55,7.977,1.971,10.528-1.292C204.005,183.567,203.426,178.854,200.163,176.303z"/>
	</g>
</g>
<g>
	<g>
		<path d="M191.497,233.955l-0.855-6.97c-0.37-3.015-1.892-5.705-4.286-7.576c-2.394-1.87-5.372-2.693-8.386-2.326l-43.071,5.288
			c-3.015,0.37-5.705,1.892-7.575,4.286c-1.871,2.394-2.696,5.372-2.326,8.386l0.856,6.972
			c2.223,18.101,18.753,31.013,36.852,28.792C180.804,268.585,193.72,252.053,191.497,233.955z M160.878,255.918
			c-9.878,1.222-18.921-5.843-20.135-15.732l-0.414-3.369l35.867-4.403l0.414,3.369
			C177.824,245.672,170.767,254.704,160.878,255.918z"/>
	</g>
</g>
<g>
	<g>
		<path d="M245.693,34.573C238.332,18.8,225.806,7.029,209.469,0.532c-3.59-1.427-7.677,0.105-9.442,3.541
			c-8.069,15.704-27.562,26.881-52.142,29.899l-43.37,5.325c-4.111,0.504-7.035,4.247-6.53,8.358
			c0.504,4.112,4.251,7.034,8.358,6.53l43.37-5.325c26.391-3.241,48.21-14.921,59.927-31.745
			c24.445,13.052,30.377,40.412,27.727,60.982c-2.755,21.382-13.997,37.459-27.337,39.097L64.101,135.113
			c-12.112,1.487-20.756,12.552-19.269,24.664l1.793,14.604l-11.366,1.396l-11.393-92.79c-0.604-4.914,0.743-9.769,3.79-13.67
			c3.048-3.901,7.433-6.382,12.347-6.985l36.401-4.469c4.111-0.505,7.035-4.247,6.53-8.358s-4.249-7.031-8.358-6.53l-36.401,4.47
			C19.822,49.697,6.724,66.461,8.978,84.814l11.776,95.912c-7.605,5.423-11.875,14.697-10.695,24.268
			c1.598,12.977,12.648,22.763,25.703,22.763c1.016,0,2.076-0.064,3.186-0.196l13.995-1.724l1.374,11.174
			c2.875,23.418,14.698,44.315,33.289,58.841c15.686,12.257,34.605,18.74,54.199,18.74c3.629,0,7.283-0.223,10.941-0.672
			c11.3-1.39,22.033-4.858,31.897-10.307c9.553-5.27,17.958-12.19,24.983-20.567c2.662-3.174,2.247-7.904-0.927-10.566
			c-3.174-2.662-7.904-2.246-10.566,0.927c-5.832,6.954-12.809,12.699-20.739,17.074c-8.182,4.519-17.09,7.396-26.477,8.551
			c-19.437,2.387-38.642-2.94-54.075-14.999c-15.434-12.06-25.249-29.408-27.636-48.851l-2.29-18.62
			c-0.243-1.974-1.26-3.771-2.828-4.996c-1.568-1.225-3.556-1.777-5.532-1.533l-21.405,2.637c-0.492,0.059-0.959,0.088-1.389,0.088
			c-5.493,0-10.142-4.125-10.816-9.597c-0.602-4.882,2.152-9.585,6.696-11.437c0.008-0.003,0.015-0.008,0.023-0.011
			c0.881-0.362,1.82-0.607,2.789-0.726l21.442-2.633c4.111-0.504,7.035-4.247,6.53-8.358l-2.707-22.049
			c-0.479-3.903,2.307-7.469,6.209-7.948l138.481-17.003l10.356,84.318c1.356,11.008,0.258,21.883-3.263,32.326
			c-1.323,3.925,0.785,8.18,4.71,9.503c0.795,0.268,1.603,0.395,2.397,0.395c3.13,0,6.05-1.975,7.106-5.105
			c4.246-12.59,5.57-25.696,3.937-38.95l-10.458-85.146c16.93-6.03,29.814-25.211,33.05-50.322
			C254.289,64.144,251.963,48.006,245.693,34.573z"/>
	</g>
</g>
<g>
	<g>
		<path d="M419.566,386.938c-7.433-9.515-21.223-11.208-30.738-3.774c-3.264,2.55-3.843,7.264-1.292,10.528
			c2.55,3.264,7.263,3.843,10.528,1.292c2.997-2.343,7.341-1.808,9.683,1.189c1.479,1.893,3.686,2.883,5.915,2.883
			c1.615,0,3.241-0.52,4.612-1.591C421.538,394.915,422.116,390.202,419.566,386.938z"/>
	</g>
</g>
<g>
	<g>
		<path d="M342.574,377.485c-7.433-9.514-21.222-11.209-30.737-3.774c-3.264,2.55-3.843,7.263-1.293,10.527
			c2.549,3.263,7.262,3.844,10.527,1.293c2.997-2.341,7.341-1.809,9.684,1.189c1.479,1.893,3.685,2.883,5.915,2.883
			c1.615,0,3.241-0.52,4.612-1.59C344.546,385.463,345.124,380.749,342.574,377.485z"/>
	</g>
</g>
<g>
	<g>
		<path d="M377.101,419.78l-43.073-5.289c-3.013-0.367-5.993,0.457-8.385,2.326c-5.386,4.207-4.128,9.869-5.141,14.546
			c-3.607,29.372,30.215,48.029,53.18,30.088c13.802-10.783,12.416-25.654,13.319-28.999
			C387.765,426.23,383.325,420.545,377.101,419.78z M364.447,449.631c-3.803,2.971-8.535,4.283-13.326,3.696
			c-9.911-1.216-16.948-10.222-15.732-20.135l0.414-3.37l35.867,4.404C371.233,435.816,371.895,443.812,364.447,449.631z"/>
	</g>
</g>
<g>
	<g>
		<path d="M496.162,257.489c-5.515-7.058-13.448-11.547-22.339-12.638l-103.057-12.654c-3.847-0.472-7.364-2.563-9.651-5.736
			c-7.136-9.903-16.841-17.584-28.065-22.214c-3.83-1.579-8.214,0.245-9.793,4.074c-1.579,3.83,0.245,8.214,4.074,9.793
			c8.64,3.563,16.114,9.482,21.615,17.116c4.723,6.554,12.01,10.875,19.992,11.855l103.057,12.654
			c10.144,1.246,17.384,10.512,16.137,20.655l-11.392,92.79l-11.367-1.396l1.793-14.605c1.486-12.112-7.158-23.176-19.27-24.663
			l-145.929-17.918c-13.711-1.684-25.83-8.697-34.125-19.749c-8.29-11.045-11.634-24.657-9.415-38.33
			c3.567-21.983,21.553-39.199,43.738-41.866c4.112-0.494,7.046-4.228,6.551-8.341c-0.494-4.112-4.231-7.049-8.341-6.551
			c-28.784,3.459-52.123,25.812-56.755,54.356c-2.877,17.736,1.464,35.399,12.225,49.737c9.249,12.322,22.167,20.762,36.907,24.286
			l-10.409,84.746c-1.387,11.287-0.618,22.546,2.286,33.462c0.893,3.357,3.926,5.574,7.243,5.574c0.638,0,1.287-0.082,1.933-0.254
			c4.003-1.065,6.385-5.173,5.32-9.176c-2.409-9.056-3.046-18.401-1.894-27.778l10.355-84.314l138.481,17.003
			c3.903,0.479,6.689,4.045,6.21,7.948l-2.708,22.049c-0.242,1.974,0.31,3.964,1.534,5.532c1.225,1.567,3.022,2.584,4.996,2.826
			l21.442,2.633c0.912,0.112,1.794,0.345,2.631,0.673c4.667,1.797,7.492,6.502,6.878,11.501c-0.673,5.471-5.323,9.596-10.816,9.596
			c-0.429,0-0.895-0.029-1.354-0.084l-21.44-2.64c-1.975-0.244-3.965,0.309-5.533,1.533s-2.585,3.021-2.828,4.996l-2.29,18.621
			c-2.387,19.442-12.202,36.79-27.636,48.85C399.72,493.5,380.52,498.83,361.076,496.44c-10.201-1.25-19.817-4.533-28.581-9.758
			c-8.475-5.052-15.741-11.656-21.595-19.627c-2.452-3.339-7.146-4.056-10.484-1.605c-3.338,2.452-4.057,7.146-1.605,10.484
			c7.048,9.596,15.797,17.547,26.005,23.632c10.567,6.3,22.154,10.258,34.436,11.762c3.66,0.45,7.31,0.672,10.94,0.672
			c19.592,0,38.514-6.484,54.199-18.74c18.591-14.527,30.413-35.424,33.288-58.84l1.374-11.175
			c13.388,1.59,14.43,1.919,17.182,1.919c13.055,0,24.106-9.786,25.704-22.766c1.187-9.678-3.063-18.898-10.692-24.292
			l11.772-95.885C504.113,273.331,501.677,264.548,496.162,257.489z"/>
	</g>
</g>
<g>
	<g>
		<path d="M389.982,62.914c-4.142,0-7.5,3.358-7.5,7.5v18.359c0,4.142,3.358,7.5,7.5,7.5c4.142,0,7.5-3.358,7.5-7.5V70.414
			C397.482,66.272,394.124,62.914,389.982,62.914z"/>
	</g>
</g>
<g>
	<g>
		<path d="M389.982,119.35c-4.142,0-7.5,3.358-7.5,7.5v18.359c0,4.142,3.358,7.5,7.5,7.5c4.142,0,7.5-3.358,7.5-7.5V126.85
			C397.482,122.708,394.124,119.35,389.982,119.35z"/>
	</g>
</g>
<g>
	<g>
		<path d="M427.38,100.312h-18.359c-4.142,0-7.5,3.358-7.5,7.5c0,4.142,3.358,7.5,7.5,7.5h18.359c4.142,0,7.5-3.358,7.5-7.5
			C434.88,103.67,431.522,100.312,427.38,100.312z"/>
	</g>
</g>
<g>
	<g>
		<path d="M370.944,100.312h-18.359c-4.142,0-7.5,3.358-7.5,7.5c0,4.142,3.358,7.5,7.5,7.5h18.359c4.142,0,7.5-3.358,7.5-7.5
			C378.444,103.67,375.086,100.312,370.944,100.312z"/>
	</g>
</g>
<g>
	<g>
		<path d="M122.017,359.286c-4.142,0-7.5,3.358-7.5,7.5v18.359c0,4.142,3.358,7.5,7.5,7.5c4.142,0,7.5-3.358,7.5-7.5v-18.359
			C129.517,362.644,126.159,359.286,122.017,359.286z"/>
	</g>
</g>
<g>
	<g>
		<path d="M122.017,415.723c-4.142,0-7.5,3.358-7.5,7.5v18.359c0,4.142,3.358,7.5,7.5,7.5c4.142,0,7.5-3.358,7.5-7.5v-18.359
			C129.517,419.08,126.159,415.723,122.017,415.723z"/>
	</g>
</g>
<g>
	<g>
		<path d="M159.414,396.684h-18.359c-4.142,0-7.5,3.358-7.5,7.5c0,4.142,3.358,7.5,7.5,7.5h18.359c4.142,0,7.5-3.358,7.5-7.5
			C166.914,400.042,163.557,396.684,159.414,396.684z"/>
	</g>
</g>
<g>
	<g>
		<path d="M102.978,396.684H84.62c-4.142,0-7.5,3.358-7.5,7.5c0,4.142,3.358,7.5,7.5,7.5h18.359c4.142,0,7.5-3.358,7.5-7.5
			C110.479,400.042,107.12,396.684,102.978,396.684z"/>
	</g>
</g>
<g>
</g>
<g>
</g>
<g>
</g>
<g>
</g>
<g>
</g>
<g>
</g>
<g>
</g>
<g>
</g>
<g>
</g>
<g>
</g>
<g>
</g>
<g>
</g>
<g>
</g>
<g>
</g>
<g>
</g>
</svg>
