<svg viewBox="0 -19 512 511" xmlns="http://www.w3.org/2000/svg"><path d="m110.769531 289.363281c-4.089843-3.703125-10.371093-3.367187-14.082031.714844-3.714844 4.085937-3.378906 10.4375.707031 14.152344 1.914063 1.742187 4.324219 2.601562 6.722657 2.601562 2.71875 0 5.429687-1.101562 7.402343-3.273437 3.714844-4.085938 3.414063-10.410156-.671875-14.125-.011718-.011719-.058594-.050782-.078125-.070313zm0 0"/><path d="m430.792969 242.316406c-4.695313 0-9.359375.429688-13.9375 1.265625 26.664062-35.320312 40.144531-69.21875 40.144531-101.15625 0-78.257812-61.261719-141.925781-136.5625-141.925781-34.5 0-66.769531 13.050781-91.9375 36.972656-25.171875-23.921875-57.4375-36.972656-91.9375-36.972656-75.300781 0-136.5625 63.667969-136.5625 141.925781 0 41.890625 23.195312 87.179688 68.9375 134.609375 3.835938 3.976563 10.167969 4.089844 14.140625.253906 3.976563-3.832031 4.089844-10.164062.257813-14.136718-42.027344-43.578125-63.335938-84.195313-63.335938-120.726563 0-67.230469 52.289062-121.925781 116.5625-121.925781 32.273438 0 62.292969 13.492188 84.535156 37.992188 1.894532 2.085937 4.582032 3.277343 7.402344 3.277343s5.507812-1.191406 7.402344-3.277343c22.242187-24.5 52.261718-37.992188 84.535156-37.992188 64.273438 0 116.5625 54.695312 116.5625 121.925781 0 35.617188-20.242188 75.082031-60.160156 117.382813-14.105469-11.222656-31.5625-17.492188-49.503906-17.492188-44.777344 0-81.207032 37.785156-81.207032 84.230469 0 10.847656 2.644532 21.570313 7.148438 31.980469-11.023438 6.988281-19.738282 12.132812-24.773438 15.035156-12.800781-7.382812-49.359375-29.253906-88.222656-59.660156-4.347656-3.40625-10.632812-2.640625-14.035156 1.710937-3.402344 4.351563-2.636719 10.636719 1.714844 14.039063 49.3125 38.589844 93.859374 63.148437 95.730468 64.171875 1.496094.824219 3.152344 1.234375 4.808594 1.234375s3.3125-.414063 4.808594-1.234375c.546875-.296875 11.929687-6.558594 29.480468-17.648438 33.769532 52.535157 107.441407 93.441407 111.46875 95.648438 1.496094.824219 3.148438 1.234375 4.804688 1.234375s3.3125-.414063 4.808594-1.234375c5.234375-2.867188 128.128906-71.109375 128.128906-145.277344 0-46.445313-36.429688-84.230469-81.207031-84.230469zm3.585937 170.507813c-22.652344 18.820312-45.609375 32.988281-55.316406 38.703125-9.667969-5.683594-32.457031-19.746094-55.082031-38.507813-26.394531-21.890625-57.851563-54.660156-57.851563-86.472656 0-35.417969 27.457032-64.230469 61.207032-64.230469 16.90625 0 32.648437 7.082032 44.324218 19.941406 1.894532 2.089844 4.582032 3.277344 7.402344 3.277344s5.507812-1.1875 7.40625-3.277344c11.671875-12.859374 27.414062-19.941406 44.320312-19.941406 33.75 0 61.210938 28.8125 61.210938 64.230469 0 31.742187-31.335938 64.4375-57.621094 86.277344zm0 0"/><path d="m320.515625 68.5c5.523437 0 9.960937-4.476562 9.960937-10s-4.515624-10-10.035156-10c-5.523437 0-10 4.476562-10 10s4.476563 10 10 10zm0 0"/><path d="m389 142.425781c0 5.523438 4.476562 10 10 10s10-4.476562 10-10c0-36.605469-20.3125-70.140625-51.746094-85.425781-4.96875-2.414062-10.953125-.347656-13.367187 4.621094-2.414063 4.964844-.347657 10.949218 4.621093 13.363281 24.597657 11.964844 40.492188 38.4375 40.492188 67.441406zm0 0"/></svg>