<svg height="512" viewBox="0 0 50 60" width="512" xmlns="http://www.w3.org/2000/svg"><path id="Shape" d="m2.314 45.5c-.20200323.8181993-.30738918 1.6572594-.314 2.5v9c0 1.6568542 1.34314575 3 3 3h40c1.6568542 0 3-1.3431458 3-3v-9c-.0066108-.8427406-.1119968-1.6818007-.314-2.5 1.1059446-1.4432839 1.8747453-3.1158525 2.25-4.895.1817707-.8828223-.043024-1.8005892-.6122128-2.4994739-.5691889-.6988848-1.4224463-1.1048163-2.3237872-1.1055261h-14v-4.76c.159-.173.313-.346.493-.519 2.918-2.806 2.8-5.367 2.691-7.845-.022-.472-.044-.953-.044-1.446.0038768-.6682872.0671255-1.3349084.189-1.992l1.51 6.04c.2176412.894855 1.0200609 1.5240579 1.941 1.522h3.22c.6412248-.0007187 1.2435461-.3076388 1.621-.826.3703749-.5102538.4761686-1.1661747.285-1.767 0 0-4.353-14.191-4.406-14.339-.7843977-2.27409945-2.0650142-4.34515256-3.749-6.063.1519668-.98871144.2351665-1.98677359.249-2.987.0105693-.53009398-.1943983-1.04179116-.568-1.418-.3782778-.38287739-.8937734-.59886716-1.432-.6h-2.04c-.8008715.00077317-1.5240586.47922562-1.838 1.216-3.9345437-1.54802755-8.3094563-1.54802755-12.244 0-.3139414-.73677438-1.0371285-1.21522683-1.838-1.216h-2.04c-.5382266.00113284-1.0537222.21712261-1.432.6-.3726367.37480052-.5775531.8845662-.568 1.413.0149451 1.00029019.0991465 1.99834454.252 2.987-1.6773349 1.70980562-2.9540641 3.77074298-3.738 6.034l-.01.029c-.062.168-.117.338-.17.51l-4.234 13.815c-.19863294.6079034-.09347263 1.2742021.28272925 1.7913807.37620187.5171786.97774096.8224055 1.61727075.8206193h3.22c.9192253.0025194 1.7208098-.6242866 1.94-1.517l1.511-6.045c.1223701.6570222.185623 1.3236878.189 1.992 0 .493-.022.974-.044 1.446-.111 2.478-.227 5.039 2.691 7.845.18.173.333.346.493.519v4.76h-13.995c-.90114319-.0004843-1.75477199.4041393-2.32489258 1.1020087-.57012058.6978695-.79633621 1.6150548-.61610742 2.4979913.37454896 1.780903 1.14338222 3.455251 2.25 4.9zm1.686 11.5v-9c0-.279.032-.55.057-.822 1.44577979 1.0478407 3.16062971 1.6612039 4.943 1.768v9.054h-4c-.55228475 0-1-.4477153-1-1zm9-18v19h-2v-10-9zm4.422 0 6.156 10.7-1.078 1.748-7.5-12.112v-.336zm6.018-1h3.12c2.409 0 3.416-1.469 4.44-3.06v2.775l-6.226 10.058-5.774-10.04v-2.793c1.024 1.591 2.031 3.06 4.44 3.06zm11.56 1v.336l-11.557 18.664h-2.643l2.521-4.073 9.236-14.927zm4 0v9 10h-2v-19zm-4 19h-9.2l9.2-14.866zm-20 0v-14.865l6.323 10.213-2.88 4.652zm31-1c0 .5522847-.4477153 1-1 1h-4v-9.054c1.7823703-.1067961 3.4972202-.7201593 4.943-1.768.025.272.057.543.057.822zm1.779-17.627c.188259.2277305.2619424.5290956.2.818-.406 1.926-1.879 6.253-6.979 6.758v-7.949h6c.3025442.0008692.5886322.1378535.779.373zm-38.322-21.373h2.762l-.749 3h-2.933zm1.6-5.221c.8667247.520991 1.535238 1.3158181 1.9 2.259l-.238.962h-2.649zm3.224 5.221.5-2h20.438l.5 2zm8.719-6c0-1.1045695.8954305-2 2-2s2 .8954305 2 2-.8954305 2-2 2-2-.8954305-2-2zm15.943.778.988 3.222h-2.65l-.241-.963c.3642658-.9443845 1.034197-1.7396418 1.903-2.259zm-1.162 5.222h2.764l.921 3h-2.935zm2 8-.749-3h3.048l.92 3zm-1.525-15.134c-1.3064365.6843518-2.3447594 1.7881862-2.948 3.134h-3.415c2.1451527-1.6498365 3.6707931-3.975293 4.33-6.6.8374199 1.05388961 1.5218419 2.22073984 2.033 3.466zm-3.256-8.872c-.038 3.021-.807 9.37-6.256 11.373.4209275-1.0920474.3188743-2.3166861-.277-3.324 1.933-1.034 4.218-3.268 4.493-8.049zm-4.2 1.257c-.549 3.2-2.265 4.645-3.832 5.29-1.2150682-.72110008-2.7269318-.72110008-3.942 0-1.564-.641-3.28-2.091-3.826-5.29 3.7017236-1.59722244 7.8982764-1.59722244 11.6 0zm-13.758-1.257c.274 4.791 2.56 7.015 4.491 8.049-.5958743 1.0073139-.6979275 2.2319526-.277 3.324-5.449-2.003-6.218-8.367-6.256-11.373zm1.065 12.006h-3.415c-.6033831-1.3459678-1.6416364-2.4500804-2.948-3.135.5102163-1.24541833 1.1947171-2.41206636 2.033-3.465.6592069 2.624707 2.1848473 4.9501635 4.33 6.6zm-11.1 12 .918-3h3.045l-.75 3zm8.808-2.03c.1130447-1.3259028.0491507-2.6609529-.19-3.97h18.75c-.2390823 1.3080504-.3026426 2.6421447-.189 3.967.1 2.309.186 4.134-2.08 6.312-1.0382816 1.0347414-1.9451135 2.1934711-2.7 3.45-1.042 1.616-1.516 2.271-2.846 2.271h-3.12c-1.33 0-1.8-.655-2.842-2.271-.7546429-1.2566965-1.6614972-2.4154548-2.7-3.45-2.27-2.179-2.188-4.003-2.084-6.312zm-13.594 15.403c.19147057-.2365074.47970357-.3736387.784-.373l5.995-.0000022v7.9490022c-5.1-.5-6.573-4.832-6.979-6.758-.06194243-.2889044.01174096-.5902695.2-.818z"/></svg>