<?xml version="1.0" encoding="iso-8859-1"?>
<!-- Generator: Adobe Illustrator 21.0.0, SVG Export Plug-In . SVG Version: 6.00 Build 0)  -->
<svg xmlns="http://www.w3.org/2000/svg" xmlns:xlink="http://www.w3.org/1999/xlink" version="1.1" id="Capa_1" x="0px" y="0px" viewBox="0 0 512.001 512.001" style="enable-background:new 0 0 512.001 512.001;" xml:space="preserve" width="512" height="512">
<g>
	<path style="fill-rule:evenodd;clip-rule:evenodd;" d="M136.885,403.423c33.561,27.153,75.864,42.106,119.116,42.106   c104.506,0,189.528-85.022,189.528-189.529S360.507,66.471,256.001,66.471c-43.252,0-85.554,14.953-119.116,42.105   c-33.067,26.752-56.415,64.207-65.742,105.464c-1.218,5.387,2.162,10.741,7.549,11.959c5.387,1.216,10.741-2.162,11.959-7.549   c17.567-77.708,85.562-131.979,165.35-131.979c93.478,0,169.528,76.051,169.528,169.529S349.479,425.53,256.001,425.53   c-79.788,0-147.782-54.271-165.35-131.979c-1.218-5.387-6.575-8.768-11.959-7.549c-5.387,1.218-8.767,6.572-7.549,11.959   C80.471,339.217,103.818,376.671,136.885,403.423z"/>
	<path style="fill-rule:evenodd;clip-rule:evenodd;" d="M491.599,155.708c-2.165-5.08-8.039-7.442-13.12-5.278   c-5.081,2.165-7.444,8.039-5.279,13.12c12.476,29.273,18.801,60.378,18.801,92.45c0,130.131-105.869,236-236,236   C125.87,492,20,386.131,20,256S125.87,20,256.001,20c32.078,0,63.183,6.325,92.45,18.801c5.081,2.164,10.954-0.196,13.12-5.278   c2.165-5.08-0.198-10.954-5.278-13.12C324.533,6.865,290.79,0.001,256.001,0.001c-68.38,0-132.668,26.629-181.02,74.98   C26.629,123.334,0,187.621,0,256s26.629,132.667,74.981,181.02c48.353,48.352,112.64,74.98,181.02,74.98   c68.38,0,132.667-26.629,181.019-74.98c48.352-48.352,74.981-112.64,74.981-181.02   C512.001,221.218,505.137,187.475,491.599,155.708z"/>
	<path style="fill-rule:evenodd;clip-rule:evenodd;" d="M376.34,86.36h44.228v46.428c0,5.523,4.477,10,10,10c5.523,0,10-4.477,10-10   V86.36h44.228c5.523,0,10-4.478,10-10c0-5.522-4.477-10-10-10h-44.228V19.932c0-5.522-4.477-10-10-10c-5.523,0-10,4.478-10,10   V66.36H376.34c-5.523,0-10,4.478-10,10C366.34,81.882,370.817,86.36,376.34,86.36z"/>
	<path style="fill-rule:evenodd;clip-rule:evenodd;" d="M240.533,310.22c0,33.313,27.103,60.416,60.416,60.416   c33.314,0,60.417-27.103,60.417-60.416c0-21.041-10.818-39.595-27.178-50.416c16.36-10.821,27.178-29.375,27.178-50.416   c0-33.314-27.103-60.417-60.417-60.417c-33.313,0-60.416,27.102-60.416,60.417c0,21.041,10.818,39.595,27.178,50.416   C251.352,270.625,240.533,289.179,240.533,310.22z M260.533,209.388c0-22.286,18.13-40.417,40.416-40.417   c22.286,0,40.417,18.131,40.417,40.417c0,22.285-18.131,40.416-40.417,40.416C278.664,249.804,260.533,231.673,260.533,209.388z    M300.949,269.804c22.286,0,40.417,18.131,40.417,40.416c0,22.285-18.131,40.416-40.417,40.416   c-22.286,0-40.416-18.131-40.416-40.416C260.533,287.935,278.664,269.804,300.949,269.804z"/>
	<path style="fill-rule:evenodd;clip-rule:evenodd;" d="M196.532,162.038c-0.007-0.085-0.006-0.171-0.015-0.255   c-0.032-0.309-0.08-0.618-0.141-0.925c-0.015-0.073-0.034-0.145-0.051-0.217c-0.058-0.262-0.121-0.523-0.201-0.781   c-0.052-0.168-0.119-0.33-0.18-0.495c-0.052-0.142-0.096-0.285-0.155-0.425c-0.123-0.291-0.26-0.574-0.409-0.851   c-0.006-0.011-0.01-0.021-0.016-0.032c-0.158-0.291-0.33-0.571-0.515-0.844c-0.044-0.064-0.096-0.125-0.142-0.189   c-0.146-0.205-0.296-0.409-0.457-0.604c-0.01-0.012-0.018-0.024-0.028-0.036c-0.07-0.084-0.148-0.156-0.221-0.237   c-0.137-0.152-0.273-0.306-0.419-0.449c-0.113-0.112-0.233-0.214-0.351-0.319c-0.124-0.11-0.246-0.224-0.375-0.328   c-0.133-0.108-0.273-0.207-0.411-0.308c-0.124-0.091-0.247-0.184-0.376-0.269c-0.14-0.092-0.284-0.175-0.427-0.26   c-0.139-0.082-0.276-0.165-0.419-0.24c-0.135-0.071-0.273-0.134-0.411-0.198c-0.16-0.074-0.319-0.15-0.484-0.217   c-0.126-0.051-0.255-0.095-0.383-0.141c-0.18-0.064-0.359-0.129-0.543-0.183c-0.124-0.037-0.251-0.066-0.376-0.097   c-0.189-0.048-0.376-0.096-0.568-0.133c-0.14-0.027-0.282-0.044-0.423-0.064c-0.178-0.026-0.355-0.056-0.537-0.072   c-0.181-0.017-0.363-0.02-0.544-0.027c-0.128-0.005-0.253-0.02-0.382-0.02c-0.018,0-0.035,0.003-0.053,0.003   c-0.224,0.001-0.446,0.018-0.67,0.033c-0.107,0.008-0.216,0.008-0.322,0.019c-0.259,0.027-0.516,0.071-0.773,0.118   c-0.205,0.038-0.405,0.085-0.605,0.135c-0.18,0.045-0.36,0.084-0.538,0.139c-0.185,0.058-0.363,0.13-0.544,0.197   c-0.126,0.048-0.253,0.086-0.378,0.139c-0.271,0.114-0.533,0.243-0.792,0.38c-0.037,0.02-0.075,0.037-0.112,0.057   c-0.282,0.154-0.557,0.321-0.821,0.501c-0.074,0.051-0.144,0.11-0.217,0.163c-0.196,0.141-0.39,0.282-0.575,0.436   c-0.013,0.011-0.026,0.02-0.039,0.03l-39.682,33.394c-4.226,3.557-4.768,9.864-1.212,14.09c1.979,2.351,4.807,3.561,7.656,3.561   c2.273,0,4.559-0.77,6.434-2.349l23.243-19.56v172.478c0,5.522,4.477,10,10,10c5.523,0,10-4.478,10-10V162.823   c0-0.016-0.002-0.031-0.002-0.047C196.568,162.53,196.551,162.284,196.532,162.038z"/>
	<path style="fill-rule:evenodd;clip-rule:evenodd;" d="M86.472,256c0-5.508-4.492-10-10-10c-5.508,0-10,4.492-10,10   c0,5.508,4.492,10,10,10C81.979,266,86.472,261.508,86.472,256z"/>
</g>















</svg>
