<svg height="511" viewBox="-82 0 511 511.99838" width="511" xmlns="http://www.w3.org/2000/svg"><path d="m346.921875 494.589844-.261719-67.3125v-.128906c-.054687-14.265626-.117187-30.4375-6.742187-44.757813-6.800781-14.703125-19.28125-25.011719-31.351563-34.980469-8.9375-7.382812-18.175781-15.015625-24.730468-24.246094 2.710937-1.742187 5.371093-3.578124 7.972656-5.519531 9.523437-7.09375 17.042968-16.960937 24.320312-26.503906 2.617188-3.433594 5.089844-6.679687 7.640625-9.785156.894531-1.085938 1.15625-2.558594.691407-3.886719-.464844-1.328125-1.585938-2.320312-2.960938-2.613281-25.382812-5.429688-48.523438-10.898438-74.253906-22.554688 5.753906-10.019531 9.1875-21.304687 9.703125-32.839843 12.792969-1.199219 24.644531-10.753907 28.03125-23.226563 2.175781-7.996094.679687-18.902344-7.734375-23.949219-4.589844-2.753906-9.535156-2.890625-14.316406-1.71875 10.894531-12.679687 19.621093-25.824218 20.085937-41.667968.328125-11.230469-3.753906-21.609376-7.703125-31.644532-.898438-2.285156-1.828125-4.652344-2.675781-6.953125-5.421875-14.75-5.757813-25.878906-1.03125-34.03125 1.089843-1.882812.492187-4.292969-1.355469-5.441406-1.84375-1.152344-4.273438-.632813-5.484375 1.179687l-5.605469 8.382813c-3.171875-15.511719-10.050781-30.382813-19.867187-42.71875-1.050781-1.316406-2.804688-1.84375-4.410157-1.320313-1.601562.523438-2.707031 1.988282-2.773437 3.667969l-.964844 24.066407c-.035156.898437-.136719 1.570312-.246093 2.054687-.648438-1.078125-1.34375-2.824219-1.714844-3.746094-3.824219-9.570312-13.308594-14.691406-20.59375-17.300781-3.304688-1.183594-6.679688-2.101562-9.941406-2.988281-4.574219-1.238281-8.886719-2.410157-12.929688-4.238281-7.378906-3.339844-12.257812-8.71875-13.046875-14.390626-.179687-1.292968-.972656-2.421874-2.132813-3.023437-1.160156-.601563-2.539062-.605469-3.703124-.007813-11.332032 5.824219-19.722657 16.613282-22.914063 28.855469-.84375-1.925781-1.253906-4.035156-1.125-6.105469.101563-1.65625-.820313-3.207031-2.324219-3.90625-1.507812-.699218-3.285156-.40625-4.484375.742188-9.496093 9.074219-15.164062 21.84375-15.84375 34.902344-3.328125-3.78125-5.929687-8.203125-7.574219-12.964844-.640624-1.847656-2.515624-2.96875-4.445312-2.664062-1.933594.308593-3.363281 1.957031-3.398438 3.914062-.25 15.035156-6.832031 28.726562-13.796874 43.226562-4.703126 9.785157-9.566407 19.90625-12.398438 30.605469-6.191406 23.394531-2.121094 48.832031 10.835938 69.167969-5.53125 1.414062-10.535157 4.894531-13.457032 9.882812-5.074218 8.671876-3.105468 20.625 4.484375 27.210938 6.039063 5.238281 14.941407 6.476562 22.289063 3.617188 2.242187 8.769531 5.925781 17.148437 10.765625 24.753906-25.191407 11.207031-51.726563 19.207031-78.933594 23.769531-1.332031.222656-2.464844 1.097656-3.015625 2.335937-.550781 1.234376-.441406 2.667969.285156 3.808594 11.199219 17.558594 26.242188 32.269532 43.765625 43.140625-7 8.335938-15.011719 12.410157-24.253906 17.09375-3.019531 1.53125-6.140625 3.113281-9.425781 4.933594-13.96875 7.746094-29.117188 17.867187-35.527344 34.191406-3.640625 9.273438-3.851562 19.417969-4.039062 28.375l-1.78125 85.4375c-.074219 3.375-.179688 8.46875 3.070312 12.363281 4.011719 4.804688 10.726562 4.867188 14.433594 4.867188h.148437l311.558594-.085938c3.460937 0 9.253906 0 13.199219-3.914062 4.023437-3.988281 4-9.882812 3.988281-13.410156zm-37.207031-208.339844c-6.9375 9.101562-14.109375 18.511719-22.722656 24.929688-11.492188 8.5625-24.097657 15.109374-37.460938 19.453124-1.484375.484376-2.558594 1.78125-2.753906 3.332032-.195313 1.550781.523437 3.074218 1.84375 3.910156l21.121094 13.371094c.214843.132812.6875.433594.984374.671875-.109374.273437-.367187.765625-.964843 1.597656-13.054688 18.292969-29.726563 34.3125-45.851563 49.808594-10.398437 9.992187-21.023437 20.207031-30.847656 31.164062 25.738281-55.304687 43.15625-113.847656 51.867188-174.394531 23.871093 10.703125 45.449218 16.226562 68.53125 21.273438-1.265626 1.625-2.515626 3.269531-3.746094 4.882812zm-84.796875 34.097656c-.757813-.003906-1.523438.203125-2.207031.652344-6.761719 4.414062-12.445313 8.417969-17.941407 12.292969-5.441406 3.835937-11.070312 7.800781-17.710937 12.140625-2.96875 1.9375-5.425782 3.417968-7.820313 3.429687-.011719 0-.019531 0-.03125 0-2.402343 0-4.878906-1.46875-7.863281-3.390625l-40.160156-25.832031c-3.824219-18.304687-6.527344-36.835937-8.070313-55.449219 6.527344 7.015625 14.183594 12.894532 22.636719 17.164063 11.023438 5.574219 23.414062 8.34375 35.75 8.34375 13.546875 0 27.027344-3.34375 38.535156-9.988281 5.773438-3.332032 11.003906-7.4375 15.605469-12.121094-2.8125 17.777344-6.390625 35.375-10.722656 52.757812zm-57.9375 31.90625c3.070312 1.972656 7.265625 4.671875 12.230469 4.671875h.070312c4.960938-.023437 9.136719-2.75 12.1875-4.742187 6.761719-4.417969 12.445312-8.425782 17.945312-12.300782 4.03125-2.839843 8.167969-5.753906 12.742188-8.835937-2.257812 8.414063-4.699219 16.773437-7.3125 25.082031-.714844.058594-1.421875.292969-2.042969.75-8.9375 6.53125-18.492187 12.339844-28.402343 17.269532-1.660157.828124-3.21875 1.582031-4.539063 1.519531-1.441406-.050781-3.203125-1.125-4.757813-2.070313l-35.660156-21.734375c-.117187-.074219-.238281-.117187-.359375-.175781-1.96875-6.910156-3.777343-13.867188-5.421875-20.863281zm3.921875 28.226563c2.164062 1.316406 5.125 3.121093 8.679687 3.246093.132813.003907.265625.007813.398438.007813 2.996093 0 5.597656-1.164063 8.007812-2.363281 7.925781-3.941406 15.628907-8.429688 22.992188-13.378906-9.082031 26.945312-20.039063 53.28125-32.835938 78.867187-14.617187-26.589844-26.546875-54.6875-35.625-83.679687zm-84.578125-261.371094c2.632812-9.957031 7.328125-19.726563 11.871093-29.175781 5.140626-10.695313 10.40625-21.65625 12.980469-33.335938 3.058594 4.253906 6.816407 8.003906 11.105469 11.015625 1.320312.925781 3.0625.976563 4.433594.128907 1.371094-.847657 2.105468-2.429688 1.871094-4.023438-1.652344-11.078125 1.253906-22.644531 7.699218-31.75 1.621094 4.011719 4.425782 7.546875 8.074219 9.945312 1.214844.796876 2.761719.878907 4.050781.21875 1.289063-.664062 2.128906-1.964843 2.191406-3.414062.480469-11.121094 6.617188-22.039062 15.699219-28.527344 2.734375 6.160156 8.429688 11.554688 16.09375 15.019532 4.628907 2.09375 9.460938 3.40625 14.136719 4.675781 3.257812.882812 6.332031 1.714843 9.335938 2.792969 5.726562 2.050781 13.117187 5.921874 15.851562 12.765624 1.414062 3.535157 4.351562 10.882813 11.089844 9.28125 2.253906-.539062 6.082031-2.589843 6.390625-10.316406l.484375-12.066406c7.183594 11.917969 11.726562 25.535156 13.015625 39.328125.15625 1.699219 1.367187 3.113281 3.023437 3.53125 1.652344.417969 3.394532-.25 4.339844-1.667969l.300781-.445312c.441407 6.011718 2.011719 12.65625 4.707031 19.992187.875 2.386719 1.824219 4.792969 2.738282 7.121094 3.820312 9.707031 7.429687 18.878906 7.148437 28.457031-.421875 14.285156-9.351562 26.71875-20.175781 38.988282-.167969-1.902344-.378906-4.003907-.648438-6.335938-.070312-.613281-.125-1.101562-.15625-1.429688-.753906-7.574218-2.3125-15.128906-4.636718-22.453124-4.347656-13.71875-10.078125-24.910157-19.15625-37.417969-1.164063-1.609375-3.328125-2.125-5.097656-1.222657-29.296876 14.972657-59.605469 16.773438-85.34375 5.074219-15.53125-7.054687-21.828126 3.019531-27.382813 11.90625-6.492187 10.394531-11.222656 21.792969-14.0625 33.875-2.4375 10.355469-3.382813 20.765625-2.851563 31.074219-11.019531-18.125-14.535156-41.152344-9.121093-61.609375zm20.546875 97.871094c-.460938-.171875-.941406-.257813-1.417969-.257813-.894531 0-1.78125.300782-2.507813.875-4.84375 3.847656-12.59375 3.679688-17.269531-.378906-4.675781-4.054688-5.933593-11.703125-2.808593-17.042969 3.128906-5.34375 10.414062-7.988281 16.238281-5.902343 1.332031.480468 2.824219.222656 3.917969-.679688 1.097656-.898438 1.640624-2.308594 1.429687-3.710938-1.871094-12.464843-1.285156-25.742187 1.6875-38.390624 2.636719-11.222657 7.03125-21.804688 13.054687-31.449219 6.570313-10.515625 8.949219-12.589844 17.207032-8.835938 27.097656 12.316407 58.660156 10.984375 89.222656-3.6875 7.414062 10.675781 12.273438 20.519531 16.027344 32.347657 2.152344 6.792968 3.597656 13.796874 4.296875 20.8125.035156.355468.09375.882812.167969 1.546874 1.3125 11.453126 1.058593 15.234376.722656 16.480469-1.183594 1.351563-1.347656 3.382813-.285156 4.929688 1.25 1.824219 3.734374 2.296875 5.574218 1.066406 9.699219-6.523437 16.363282-8.273437 20.964844-5.507813 4.558594 2.734376 5.515625 9.726563 4.105469 14.921876-2.800781 10.300781-13.328125 17.9375-24.011719 17.378906-1.132812-.054688-2.203125.347656-3.007812 1.121094-.800782.773437-1.25 1.84375-1.234376 2.960937.320313 22.625-12.917968 45.589844-32.941406 57.148437-19.695312 11.371094-45.847656 11.933594-66.621094 1.433594-20.417968-10.316406-35.730468-31.0625-39.964843-54.132812-.253907-1.394532-1.222657-2.550782-2.546875-3.046875zm-64.886719 65.332031c25-4.671875 49.40625-12.179688 72.710937-22.363281 4.257813 59.078125 20.027344 117.441406 45.996094 170.714843-8.707031-9.359374-17.910156-18.207031-26.949218-26.894531-16.125-15.492187-32.792969-31.511719-45.851563-49.804687-.59375-.832032-.851563-1.324219-.960937-1.597656.292968-.234376.769531-.535157.980468-.671876l21.125-13.371093c1.320313-.835938 2.035156-2.359375 1.84375-3.910157-.195312-1.550781-1.269531-2.847656-2.753906-3.332031-26.300781-8.550781-50.097656-26.164062-66.140625-48.769531zm-23.808594 221.621094c-.007812 0-.015625 0-.023437 0-3.257813 0-6.851563-.152344-8.371094-1.972656-1.214844-1.457032-1.261719-4.152344-1.199219-7.027344l1.78125-85.4375c.183594-8.683594.367188-17.664063 3.484375-25.59375 5.476563-13.949219 19.214844-23.035156 31.929688-30.089844 3.15625-1.75 6.207031-3.296875 9.160156-4.792969 9.878906-5.003906 19.214844-9.734375 27.421875-19.859375.085937-.101562.144531-.214844.214844-.324218 4.902343 2.660156 9.96875 5.03125 15.179687 7.085937l-14.15625 8.960937c-1.28125.8125-3.421875 2.167969-4.367187 4.726563-1.484375 4.019531 1.117187 7.667969 2.097656 9.039063 13.492187 18.902343 30.4375 35.1875 46.828125 50.9375 16.136719 15.503906 32.820312 31.535156 45.878906 49.847656.324219.453125.734375.792968 1.179688 1.066406l-.695313 12.265625c-.574219 10.160156-1.152343 20.652344-.078125 31.128906l-102.53125.027344c.480469-28.378906-1.019531-57.007813-4.511718-85.15625-.273438-2.210937-2.28125-3.773437-4.496094-3.507813-2.210938.277344-3.777344 2.289063-3.503906 4.5 3.449218 27.820313 4.929687 56.117188 4.445312 84.164063zm319.082031-1.660156c-1.46875 1.457031-4.523437 1.578124-7.527343 1.578124l-46.546875.011719c-.632813-27.132812.011718-54.578125 1.949218-81.628906.160157-2.222656-1.511718-4.148437-3.730468-4.308594-2.234375-.15625-4.152344 1.511719-4.3125 3.734375-1.949219 27.238282-2.601563 54.882813-1.96875 82.207032l-92.582032.023437c-1.128906-10.097656-.542968-20.554687.03125-30.671875l.789063-13.953125c.082031-.097656.183594-.175781.257813-.285156 13.058593-18.308594 29.746093-34.34375 45.882812-49.847657 16.386719-15.746093 33.335938-32.03125 46.824219-50.933593.980469-1.371094 3.585937-5.019531 2.097656-9.039063-.945313-2.558594-3.085937-3.914062-4.363281-4.726562l-14.160156-8.964844c5.84375-2.308594 11.527343-5.03125 17.03125-8.140625.035156.0625.0625.128906.101562.1875 7.191406 10.246094 16.957031 18.3125 26.398438 26.109375 11.898437 9.828125 23.136718 19.109375 29.167968 32.148438 5.886719 12.726562 5.949219 27.964843 6 41.40625l.261719 67.441406c.011719 3.058594-.101563 6.167968-1.601563 7.652344zm0 0"/></svg>