<svg id="LGBT_x5F_love3" enable-background="new 0 0 300 300" height="512" viewBox="0 0 300 300" width="512" xmlns="http://www.w3.org/2000/svg"><path d="m179.514 82.23c1.695-7.816-.051-14.596-5.055-19.602-9.453-9.453-19.625-6.455-25.523-2.346-5.898-4.109-16.074-7.1-25.523 2.346-5.004 5.006-6.752 11.785-5.053 19.602 1.768 8.123 6.795 15.301 14.16 20.211l14.197 9.463c.672.447 1.445.672 2.219.672s1.547-.225 2.219-.672l14.195-9.463c7.367-4.91 12.394-12.087 14.164-20.211zm-18.602 13.555-11.977 7.984-11.979-7.984c-5.629-3.752-9.457-9.17-10.781-15.254-1.123-5.17-.176-9.176 2.893-12.246 2.912-2.912 5.77-3.891 8.295-3.891 4.426 0 7.838 3.006 8.756 3.904 1.559 1.539 4.07 1.525 5.629.002 1.441-1.41 9.035-8.031 17.055-.016 3.07 3.07 4.016 7.076 2.891 12.246-1.321 6.083-5.153 11.501-10.782 15.255z"/><path d="m134.332 45.646c.559 1.676 2.119 2.736 3.795 2.736.418 0 .846-.066 1.266-.207 2.096-.699 3.227-2.965 2.529-5.061l-2.27-6.809c-.699-2.094-2.961-3.229-5.061-2.529-2.096.699-3.229 2.965-2.529 5.061z"/><path d="m162.479 48.176c.422.141.848.207 1.266.207 1.676 0 3.234-1.061 3.793-2.736l2.27-6.809c.699-2.096-.434-4.361-2.527-5.061-2.117-.699-4.359.436-5.059 2.529l-2.27 6.809c-.7 2.096.433 4.362 2.527 5.061z"/><path d="m149.936 48c2.211 0 4-1.791 4-4v-8c0-2.209-1.789-4-4-4s-4 1.791-4 4v8c0 2.209 1.789 4 4 4z"/><path d="m245.936 192.164v-49.633-.531-8c0-18.748-15.254-34-34-34s-34 15.252-34 34v7.121c0 .151.073.285.09.434-.018.153-.09.287-.09.445v50.227c-14.174 6.844-24 21.319-24 38.084v33.689c0 2.209 1.789 4 4 4h108.129c2.211 0 4-1.791 4-4v-33.689c-.001-16.816-9.886-31.329-24.129-38.147zm-18.184-4.164h-1.816v-3.487c5.014-2.658 9.174-6.7 12-11.61v16.387c-3.269-.811-6.668-1.29-10.184-1.29zm-37.816-44.7c5.666-2.007 13.607-6.208 20.949-14.975 3.603 6.743 10.806 14.179 23.051 17.032v12.643c0 12.131-9.871 22-22 22s-22-9.869-22-22zm16 44.095c1.939.395 3.946.605 6 .605s4.061-.209 6-.605v6.605c0 3.309-2.691 6-6 6s-6-2.691-6-6zm-20-53.395c0-14.336 11.664-26 26-26s26 11.664 26 26v4.082c-18.617-3.027-21.809-18.078-21.957-18.82-.301-1.605-1.547-2.867-3.152-3.186-1.598-.314-3.246.377-4.137 1.756-7.918 12.264-17.383 16.76-22.754 18.391zm0 38.903c2.826 4.91 6.986 8.951 12 11.61v3.487h-1.688c-3.563 0-7.005.491-10.312 1.324zm76.128 87.097h-12.492v-28c0-2.209-1.789-4-4-4s-4 1.791-4 4v28h-60v-28c0-2.209-1.789-4-4-4s-4 1.791-4 4v28h-11.637v-29.689c0-18.918 15.391-34.311 34.312-34.311h1.89c.981 6.767 6.764 12 13.798 12s12.817-5.233 13.798-12h2.019c18.922 0 34.312 15.393 34.312 34.311z"/><path d="m121.936 192.164v-49.633-.531-8c0-18.748-15.252-34-34-34s-34 15.252-34 34v7.121c0 .151.073.286.09.434-.018.153-.09.287-.09.445v50.226c-14.174 6.844-24 21.319-24 38.084v33.69c0 2.209 1.791 4 4 4h108.129c2.211 0 4-1.791 4-4v-33.689c-.001-16.816-9.886-31.329-24.129-38.147zm-18.184-4.164h-1.816v-3.487c5.014-2.658 9.174-6.7 12-11.61v16.387c-3.269-.811-6.668-1.29-10.184-1.29zm-37.816-44.701c5.667-2.007 13.608-6.208 20.949-14.975 3.601 6.743 10.806 14.179 23.051 17.031v12.645c0 12.131-9.869 22-22 22s-22-9.869-22-22zm16 44.096c1.939.395 3.946.605 6 .605s4.061-.209 6-.605v6.605c0 3.309-2.691 6-6 6s-6-2.691-6-6zm-20-53.395c0-14.336 11.664-26 26-26s26 11.664 26 26v4.082c-18.617-3.027-21.811-18.078-21.957-18.82-.303-1.605-1.549-2.867-3.152-3.186-1.623-.322-3.252.377-4.141 1.756-7.914 12.264-17.379 16.76-22.75 18.391zm0 38.903c2.826 4.91 6.986 8.951 12 11.61v3.487h-1.689c-3.562 0-7.003.491-10.311 1.323zm76.128 87.097h-12.492v-28c0-2.209-1.791-4-4-4s-4 1.791-4 4v28h-60v-28c0-2.209-1.791-4-4-4s-4 1.791-4 4v28h-11.636v-29.689c0-18.918 15.393-34.311 34.311-34.311h1.892c.981 6.767 6.764 12 13.798 12s12.817-5.233 13.798-12h2.019c18.92 0 34.312 15.393 34.312 34.311v29.689z"/></svg>