<?xml version="1.0" encoding="iso-8859-1"?>
<!-- Generator: Adobe Illustrator 19.0.0, SVG Export Plug-In . SVG Version: 6.00 Build 0)  -->
<svg version="1.1" id="Capa_1" xmlns="http://www.w3.org/2000/svg" xmlns:xlink="http://www.w3.org/1999/xlink" x="0px" y="0px"
	 viewBox="0 0 512.002 512.002" style="enable-background:new 0 0 512.002 512.002;" xml:space="preserve">
<g>
	<g>
		<path d="M369.501,0c-28.948,0-52.5,23.551-52.5,52.5v45c0,28.949,23.552,52.5,52.5,52.5s52.5-23.551,52.5-52.5v-45
			C422.001,23.551,398.449,0,369.501,0z M369.501,135c-20.678,0-37.5-16.822-37.5-37.5c0-11.743,5.43-22.239,13.906-29.12
			c13.714,20.517,35.847,33.784,60.412,36.212C402.994,121.889,387.754,135,369.501,135z M359.325,61.414
			C362.563,60.5,365.974,60,369.501,60c17.923,0,32.94,12.641,36.626,29.474C387.253,87.132,370.279,76.956,359.325,61.414z
			 M407.001,60.808C397.464,51.063,384.18,45,369.501,45c-8.734,0-16.969,2.156-24.222,5.945c-0.172,0.076-0.344,0.152-0.513,0.242
			c-0.085,0.045-0.163,0.099-0.246,0.147c-4.641,2.521-8.854,5.728-12.519,9.474V52.5h0c0-20.678,16.822-37.5,37.5-37.5
			c20.678,0,37.5,16.822,37.5,37.5V60.808z"/>
	</g>
</g>
<g>
	<g>
		<path d="M422.001,292.5v-92.786c50.271-3.842,90-45.976,90-97.214c0-4.142-3.357-7.5-7.5-7.5s-7.5,3.358-7.5,7.5
			c0,43.344-33.605,78.961-76.125,82.229c-3.362-11.39-13.91-19.729-26.375-19.729h-50c-12.65,0-23.327,8.589-26.52,20.24
			c-24.683,1.761-46.67,13.43-61.985,31.051c-15.312-17.618-37.295-29.287-61.975-31.05C190.828,173.59,180.151,165,167.501,165h-50
			c-12.465,0-23.013,8.339-26.375,19.729c-42.52-3.268-76.125-38.886-76.125-82.229c0-4.142-3.357-7.5-7.5-7.5
			c-4.143,0-7.5,3.358-7.5,7.5c0,51.239,39.729,93.372,90,97.214V292.5c0,13.401,5.054,25.639,13.347,34.926l9.335,161.774
			l-24.554,8.185c-3.93,1.31-6.053,5.557-4.743,9.487c1.048,3.143,3.974,5.13,7.114,5.13c0.786,0,1.586-0.125,2.373-0.387l30-10
			c3.214-1.072,5.311-4.165,5.115-7.547l-8.922-154.609c7.059,3.537,15.016,5.541,23.434,5.541c8.418,0,16.375-2.003,23.435-5.541
			l-8.922,154.609c-0.195,3.382,1.901,6.476,5.115,7.547l30,10c0.787,0.262,1.587,0.387,2.373,0.387c3.141,0,6.066-1.988,7.114-5.13
			c1.31-3.93-0.813-8.177-4.743-9.487l-24.554-8.185l9.335-161.774C189.946,318.139,195,305.901,195,292.5v-92.123
			c20.969,2.073,39.455,12.726,51.878,28.399c-8.33,13.712-13.128,29.792-13.128,46.975c0,18.548,5.559,36.385,16.074,51.582
			c1.4,2.024,3.705,3.232,6.167,3.232c2.462,0,4.767-1.208,6.167-3.232c10.521-15.205,16.083-33.042,16.083-51.582
			c0-17.183-4.798-33.262-13.128-46.975c12.425-15.675,30.914-26.328,51.887-28.4V292.5c0,13.401,5.054,25.639,13.347,34.926
			l9.335,161.774l-24.554,8.185c-3.93,1.31-6.053,5.557-4.743,9.487c1.048,3.143,3.974,5.13,7.114,5.13
			c0.786,0,1.586-0.125,2.373-0.387l30-10c3.214-1.072,5.311-4.165,5.115-7.547l-8.922-154.609
			c7.06,3.537,15.016,5.541,23.435,5.541s16.375-2.003,23.435-5.541l-8.922,154.609c-0.195,3.382,1.901,6.476,5.115,7.547l30,10
			c0.787,0.262,1.587,0.387,2.373,0.387c3.141,0,6.066-1.988,7.114-5.13c1.31-3.93-0.813-8.177-4.743-9.487l-24.554-8.185
			l9.335-161.774C416.947,318.139,422.001,305.901,422.001,292.5z M142.502,330c-18.11,0-33.262-12.904-36.746-30h73.491
			C175.763,317.096,160.612,330,142.502,330z M180.002,285h-75v-92.5c-0.001-6.893,5.606-12.5,12.499-12.5h50
			c6.863,0,12.448,5.561,12.496,12.413c0,0.029-0.004,0.058-0.004,0.087c0,0.059,0.007,0.116,0.009,0.174V285z M255.993,308.129
			c-4.763-10.053-7.242-21.056-7.242-32.379c0-11.554,2.6-22.511,7.245-32.319c4.646,9.808,7.246,20.765,7.246,32.319
			C263.242,287.069,260.761,298.071,255.993,308.129z M369.502,330c-18.11,0-33.262-12.904-36.746-30h73.491
			C402.763,317.096,387.612,330,369.502,330z M407.001,285h-75v-92.5c0-6.893,5.607-12.5,12.5-12.5h50c6.893,0,12.5,5.607,12.5,12.5
			V285z"/>
	</g>
</g>
<g>
	<g>
		<path d="M187.501,15h-45c-28.948,0-52.5,23.551-52.5,52.5v30c0,28.949,23.552,52.5,52.5,52.5c28.948,0,52.5-23.551,52.5-52.5v-75
			C195.001,18.358,191.644,15,187.501,15z M142.501,135c-20.678,0-37.5-16.822-37.5-37.5s16.822-37.5,37.5-37.5
			c20.678,0,37.5,16.822,37.5,37.5S163.179,135,142.501,135z M180.001,60.808C170.464,51.063,157.18,45,142.501,45
			c-14.301,0-27.278,5.754-36.756,15.061C109.205,42.935,124.37,30,142.501,30h37.5V60.808z"/>
	</g>
</g>
<g>
	<g>
		<circle cx="142.5" cy="203.13" r="7.5"/>
	</g>
</g>
<g>
	<g>
		<circle cx="142.5" cy="233.13" r="7.5"/>
	</g>
</g>
<g>
</g>
<g>
</g>
<g>
</g>
<g>
</g>
<g>
</g>
<g>
</g>
<g>
</g>
<g>
</g>
<g>
</g>
<g>
</g>
<g>
</g>
<g>
</g>
<g>
</g>
<g>
</g>
<g>
</g>
</svg>
