<?xml version="1.0" encoding="iso-8859-1"?>
<!-- Generator: Adobe Illustrator 16.0.0, SVG Export Plug-In . SVG Version: 6.00 Build 0)  -->
<!DOCTYPE svg PUBLIC "-//W3C//DTD SVG 1.1//EN" "http://www.w3.org/Graphics/SVG/1.1/DTD/svg11.dtd">
<svg version="1.1" id="Capa_1" xmlns="http://www.w3.org/2000/svg" xmlns:xlink="http://www.w3.org/1999/xlink" x="0px" y="0px"
	 width="99.562px" height="99.563px" viewBox="0 0 99.562 99.563" style="enable-background:new 0 0 99.562 99.563;"
	 xml:space="preserve">
<g>
	<g>
		<polygon points="2.865,49.879 4.484,49.879 5.9,48.867 5.092,47.856 		"/>
		<polygon points="18.455,41.503 19.566,42.211 20.074,42.211 20.781,40.087 17.949,39.581 18.455,40.087 		"/>
		<polygon points="20.713,47.684 19.982,48.718 19.982,50.507 21.931,49.425 23.314,48.823 23.193,47.139 21.306,46.682 
			20.761,47.918 		"/>
		<polygon points="18.269,45.649 17.529,45.552 17.011,46.055 17.64,46.331 		"/>
		<polygon points="18.609,43.448 17.974,43.101 17.744,44.385 18.738,44.184 		"/>
		<polygon points="2.929,46.871 2.265,46.603 2.521,47.856 3.138,47.581 		"/>
		<polygon points="3.664,44.725 2.611,43.241 2.076,43.621 2.066,44.745 2.592,45.487 		"/>
		<polygon points="0.125,45.648 0,46.192 0.754,46.364 0.814,46.093 0.5,45.734 		"/>
		<polygon points="22.787,42.205 22.094,41.939 21.4,42.205 21.4,43.27 22.398,43.669 		"/>
		<polygon points="14.449,39.165 12.871,39.165 12.176,39.432 12.176,40.496 13.185,40.03 		"/>
		<polygon points="14.449,42.677 16.273,42.74 16.334,40.55 15.14,41.345 14.449,41.612 		"/>
		<path d="M19.187,48.867h-0.744l-2.359-0.706l0.771-0.932l-2.984,0.626l1.27-3.491l-1.27,1.122l-2.34-3.98
			c-0.07,0.021-0.139,0.032-0.209,0.055c-2.252,0.761-3.764,2.707-4.084,4.907l1.652,0.613l-1.709,0.58
			c0.027,0.546,0.125,1.097,0.307,1.64c1.078,3.195,4.545,4.912,7.738,3.833C17.258,52.448,18.689,50.798,19.187,48.867z"/>
		<path d="M46.82,73.381l-6.434-1.617l-0.92,0.937l-1.594-1.567l-7.398-1.857c0.064-0.496-0.736-3.104-0.869-3.635l-0.016,0.03
			l-3.107,0.884l2.301-1.958l-1.936-2.063l1.547-0.536l-1.768-5.444c5.326-2.245,13.293-5.339,13.383-5.375
			c1.219-0.474,1.824-1.846,1.352-3.067c-0.475-1.22-1.84-1.83-3.068-1.351c-0.266,0.103-4.33,1.683-8.584,3.4l-0.18,1.547
			l-2.277-0.547c-1.064,0.437-2.096,0.865-3.033,1.265c-1.117-0.714-2.525-0.979-3.752-0.875c0,0-0.67,0.023-1.314,0.256
			c-0.615,0.225-1.26,0.602-1.26,0.602l-0.014,0.008c-1.785,1.134-3.322,3.419-2.52,5.798l0.418,1.239l0.908-0.885l-0.309,2.663
			l1.758,5.204l1.893-1.847l-0.361,3.122l-1.146-0.133l1.148,3.408c0.363,1.072,1.088,1.846,1.984,2.344l3.395,9.976l0.619-0.319
			l1.174,2.269L25.625,85l2.35,6.905c0.574,1.688,2.408,2.592,4.1,2.019l0,0c1.691-0.576,2.596-2.411,2.02-4.102l-4.826-14.182
			l15.979,4.016c0.625,0.157,1.256,0.121,1.824-0.073c1.006-0.341,1.822-1.17,2.1-2.275C49.603,75.573,48.552,73.817,46.82,73.381z"
			/>
		<path d="M62.301,48.889c1.107-0.218,1.994-1.133,2.123-2.315c0.389-3.61,1.049-8.034,1.447-9.178
			c0.518-0.554,2.299-1.863,4.154-3.064c1.188,5.361,1.948,6.268,2.237,6.611c1.076,1.278,5.935,5.356,7.396,6.575
			c0.496,0.413,1.099,0.614,1.697,0.614c0.758,0,1.514-0.325,2.037-0.954c0.936-1.125,0.785-2.795-0.34-3.732
			c-2.688-2.24-5.875-5-6.637-5.809c-0.506-1.095-1.514-5.601-2.168-9.279c-0.035-0.193-0.301-1.089-0.451-1.44l-3.607-8.515
			c-1.533,0.995-3.592,2.147-5.732,2.799c-0.108,0.034-0.219,0.059-0.329,0.077c-1.205,0.194-2.386-0.542-2.742-1.714
			c-0.396-1.298,0.34-2.675,1.64-3.071c3.352-1.02,7.147-3.995,8.063-5.065c0.041-0.121,0.633,0.424,0.633,0.424
			c-0.873,1.074-4.926,4.284-8.479,5.366c-0.896,0.274-1.405,1.228-1.133,2.126c0.271,0.885,1.223,1.409,2.125,1.133
			c2.115-0.645,4.156-1.801,5.654-2.784l-0.006-0.014c0.814-0.542,1.504-1.058,2.008-1.455c4.191-3.296,3.916-4.543,3.752-5.288
			c-0.178-0.805-0.705-1.449-1.445-1.767c-1.655-0.711-3.479,0.388-6.785,2.383c-1.112,0.673-2.256,1.357-3.344,1.934
			c0.799-1.403,0.963-3.147,0.285-4.749c-1.156-2.728-4.303-4.001-7.031-2.846c-2.727,1.156-4.002,4.304-2.846,7.031
			c1.027,2.427,3.633,3.699,6.117,3.136c-0.025,0.039-0.051,0.078-0.076,0.117l-0.023-0.046l-16.133,8.42l-0.188-0.348l-1.588,0.853
			l0.176,0.328l-0.488,0.255l0.875,1.678l7.475-3.898c0.764,0.12,1.84,0.106,3.178-0.359c0.061,0.052,0.115,0.107,0.182,0.152
			c0.301,0.204,2.998,2.014,4.906,2.672c0.637,0.22,1.266,0.304,1.855,0.304c0.727,0,1.391-0.127,1.934-0.282l2.057,4.855
			c0.084,0.197,0.185,0.377,0.293,0.548c-1.551,1.102-3.062,2.325-3.668,3.276c-0.777,1.225-1.52,5.067-2.207,11.422
			c-0.146,1.381,0.793,2.627,2.135,2.884h-4.506v5.175h5.008v39.897h36.385V54.064h1.389v-5.175H62.301z M60.248,21.947
			c-0.539-0.187-1.266-0.563-1.959-0.961c0.902-0.432,1.566-0.75,1.916-0.918l0.82,1.936C60.763,22.033,60.488,22.03,60.248,21.947z
			 M75.91,70.155H65.763v-9.844h10.146v9.844H75.91z M93.892,70.155H83.746v-9.844h10.146V70.155z"/>
		<polygon points="37.285,29.327 32.095,36.694 38.74,30.719 38.691,32.71 40.338,30.546 40.859,39.581 42.279,31.267 46.779,35.48 
			42.986,29.075 43.094,30.888 41.72,29.603 41.269,32.236 41.041,28.252 39.588,30.158 39.623,28.809 37.019,31.147 38.767,28.666 
			36.933,28.447 39.338,28.191 38.892,27.567 39.879,27.399 39.56,24.48 40.832,25.201 37.568,18.444 39.127,26.66 33.894,21.999 
			37.832,27.514 29.525,28.4 		"/>
	</g>
</g>
<g>
</g>
<g>
</g>
<g>
</g>
<g>
</g>
<g>
</g>
<g>
</g>
<g>
</g>
<g>
</g>
<g>
</g>
<g>
</g>
<g>
</g>
<g>
</g>
<g>
</g>
<g>
</g>
<g>
</g>
</svg>
