<?xml version="1.0" encoding="iso-8859-1"?>
<!-- Generator: Adobe Illustrator 17.1.0, SVG Export Plug-In . SVG Version: 6.00 Build 0)  -->
<!DOCTYPE svg PUBLIC "-//W3C//DTD SVG 1.1//EN" "http://www.w3.org/Graphics/SVG/1.1/DTD/svg11.dtd">
<svg version="1.1" id="Capa_1" xmlns="http://www.w3.org/2000/svg" xmlns:xlink="http://www.w3.org/1999/xlink" x="0px" y="0px"
	 viewBox="0 0 212.439 212.439" style="enable-background:new 0 0 212.439 212.439;" xml:space="preserve">
<path d="M29.694,212.439c-1.424,0-2.852-0.482-4.033-1.459l-14.103-11.65c-1.91-1.578-2.726-4.142-2.078-6.533l13.896-51.367
	l-3.408-3.408c-1.794-1.794-2.343-4.475-1.399-6.831l8.538-21.293c0.768-1.916,2.427-3.339,4.437-3.808l4.284-1
	c0.375-0.088,0.727-0.269,1.015-0.525l6.787-6.019l0.557-19.411c0.063-2.199,0.955-4.265,2.509-5.818l2.054-2.053
	c3.325-3.327,8.528-4.07,12.654-1.809L80.793,80.09l7.645-4.842c0.791-0.5,1.823-0.386,2.484,0.275l4.183,4.182
	c0.008,0.008,0.016,0.016,0.023,0.023l4.61,4.61l5.39-5.389l-0.767-0.766c-0.781-0.781-0.781-2.047,0-2.829s2.047-0.781,2.828,0
	l0.767,0.767l6.731-6.731l-0.767-0.767c-0.781-0.781-0.781-2.047,0-2.828c0.781-0.781,2.047-0.781,2.828,0l0.767,0.766l6.731-6.731
	l-0.767-0.767c-0.781-0.781-0.781-2.047,0-2.828c0.781-0.781,2.047-0.781,2.828,0l0.767,0.766l6.731-6.731l-0.767-0.766
	c-0.781-0.781-0.781-2.047,0-2.829s2.047-0.781,2.828,0l0.767,0.767l6.731-6.731l-0.766-0.766c-0.781-0.781-0.781-2.047,0-2.829
	c0.781-0.78,2.047-0.781,2.828,0l0.766,0.766l6.731-6.731l-0.766-0.766c-0.781-0.781-0.781-2.047,0-2.829
	c0.781-0.78,2.047-0.781,2.828,0l0.766,0.766l6.731-6.731l-0.766-0.766c-0.781-0.781-0.781-2.047,0-2.829
	c0.781-0.78,2.047-0.781,2.828,0l0.766,0.766l6.731-6.731l-0.766-0.766c-0.781-0.781-0.781-2.047,0-2.829
	c0.781-0.78,2.047-0.781,2.828,0l0.766,0.766l1.814-1.814c2.231-2.232,5.054-3.521,7.968-3.87V2c0-1.104,0.896-2,2-2s2,0.896,2,2
	v1.631c2.021,0.357,3.976,1.173,5.694,2.448l1.091-1.09c0.781-0.78,2.047-0.781,2.828,0s0.781,2.047,0,2.829l-1.09,1.09
	c1.428,1.925,2.279,4.146,2.556,6.423h1.444c1.104,0,2,0.896,2,2s-0.896,2-2,2h-1.548c-0.464,2.653-1.718,5.194-3.763,7.239
	l-1.814,1.814l0.766,0.766c0.781,0.781,0.781,2.047,0,2.829c-0.781,0.78-2.047,0.781-2.828,0l-0.766-0.766l-6.731,6.731l0.766,0.766
	c0.781,0.781,0.781,2.047,0,2.829c-0.781,0.78-2.047,0.781-2.828,0l-0.766-0.766l-6.731,6.731l0.766,0.766
	c0.781,0.781,0.781,2.047,0,2.829c-0.781,0.78-2.047,0.781-2.828,0l-0.766-0.766l-6.731,6.731l0.766,0.766
	c0.781,0.781,0.781,2.047,0,2.829c-0.781,0.78-2.047,0.781-2.828,0l-0.766-0.766l-6.731,6.731l0.766,0.766
	c0.781,0.781,0.781,2.047,0,2.829c-0.781,0.78-2.047,0.781-2.828,0l-0.766-0.766l-6.731,6.731l0.766,0.766
	c0.781,0.781,0.781,2.047,0,2.828c-0.781,0.781-2.047,0.781-2.828,0l-0.767-0.766l-6.73,6.731l0.766,0.766
	c0.781,0.781,0.781,2.047,0,2.829s-2.047,0.781-2.828,0l-0.767-0.767l-6.731,6.731l0.767,0.766c0.781,0.781,0.781,2.047,0,2.829
	s-2.047,0.781-2.828,0l-0.767-0.767l-5.39,5.39l5.771,5.771c0.009,0.009,0.018,0.018,0.026,0.026s0.018,0.018,0.026,0.026
	l0.854,0.854c2.467,2.467,2.468,6.482,0.002,8.949l-91.431,91.43C32.931,211.813,31.315,212.439,29.694,212.439z M26.637,144.692
	l-13.296,49.151c-0.238,0.88,0.062,1.823,0.764,2.403l14.104,11.65c0.934,0.771,2.276,0.704,3.13-0.148l29.178-29.178
	L26.637,144.692z M27.03,139.428l36.314,36.314l7.265-7.265c-0.105,0.054-0.214,0.105-0.323,0.154
	c-1.523,0.673-3.212,0.7-4.756,0.077c-0.787-0.317-1.483-0.782-2.061-1.365c-0.577-0.571-1.038-1.258-1.355-2.033l-18.158-44.394
	c-0.627-1.535-0.922-3.153-0.874-4.812l0.345-12.03l-3.931,3.486c-0.783,0.695-1.738,1.189-2.76,1.428l-4.285,1
	c-0.739,0.172-1.35,0.696-1.632,1.401l-8.538,21.293c-0.348,0.867-0.146,1.854,0.515,2.514l4.228,4.227
	C27.025,139.423,27.028,139.426,27.03,139.428z M55.745,98.698l-0.557,16.012c-0.039,1.126,0.159,2.224,0.589,3.263l17.707,42.769
	c0.003,0.007,0.006,0.014,0.009,0.021c0.684,1.708,0.554,3.532-0.216,5.046l49.491-49.491c0.721-0.721,0.868-1.801,0.444-2.67
	l-31.847,31.846c-1.899,1.9-4.594,2.668-7.211,2.059l-12.776-2.983c-2.635-0.615-4.781-2.599-5.601-5.177l-3.113-9.789
	c-0.71-2.238-0.375-4.643,0.92-6.599l1.981-2.993l6.405-16.154l-3.644-8.889c-0.197-0.482-0.199-1.022-0.004-1.506l0.399-0.993
	L60.28,97.82C58.917,98.683,57.304,98.989,55.745,98.698z M66.299,164.512c0.193,0.188,0.425,0.339,0.684,0.443
	c0.533,0.215,1.117,0.205,1.645-0.026c1.048-0.462,1.535-1.658,1.109-2.721L52.039,119.46c-0.65-1.571-0.95-3.23-0.892-4.931
	l0.646-18.595c0.005-0.144,0.025-0.285,0.061-0.421l0.526-15.143c0.053-1.459,0.846-2.749,2.121-3.454
	c1.274-0.705,2.787-0.69,4.05,0.042l14.281,8.174l0.678-0.429l0,0l3.423-2.168l-17.455-9.57c-2.575-1.412-5.825-0.949-7.902,1.129
	l-2.054,2.054c-0.829,0.829-1.305,1.931-1.339,3.104l-1.061,37.008c-0.031,1.096,0.164,2.167,0.579,3.184l18.158,44.393
	C65.964,164.093,66.113,164.321,66.299,164.512z M69.007,122.06l-2.087,3.154c-0.624,0.942-0.786,2.101-0.443,3.179l3.113,9.788
	c0.395,1.242,1.429,2.198,2.697,2.494l12.776,2.983c1.262,0.295,2.559-0.077,3.474-0.991l31.935-31.936l-5.784-5.785
	c-0.004-0.004-0.009-0.008-0.013-0.013L94.016,84.275l-24.991,37.759C69.019,122.043,69.013,122.052,69.007,122.06z M72.338,94.205
	l3.641,8.883c0.129,0.314,0.175,0.654,0.137,0.987l15.016-22.687l-1.905-1.905l-6.85,4.339c-0.112,0.118-0.238,0.222-0.379,0.311
	l-7.52,4.764L72.338,94.205z M109.313,93.915l6.776,6.776l6.795-6.795c0.003-0.002,0.006-0.005,0.009-0.008s0.006-0.006,0.009-0.009
	l9.54-9.54c0.004-0.004,0.007-0.007,0.011-0.011c0.003-0.003,0.007-0.007,0.011-0.011l9.519-9.519c0.01-0.01,0.02-0.021,0.03-0.031
	c0.01-0.01,0.021-0.021,0.03-0.03l47.765-47.764c0.002-0.001,0.003-0.002,0.004-0.004c0.001-0.001,0.002-0.002,0.003-0.003
	l3.226-3.225l1.414,1.414l-1.414-1.414c3.729-3.729,3.729-9.795,0-13.524c-3.728-3.728-9.795-3.729-13.524,0l-3.225,3.225
	c-0.001,0.001-0.003,0.003-0.004,0.004c-0.001,0.001-0.002,0.002-0.004,0.003l-47.777,47.778c-0.005,0.005-0.011,0.011-0.017,0.017
	c-0.005,0.006-0.011,0.011-0.017,0.017l-9.529,9.529c-0.004,0.005-0.009,0.01-0.014,0.014c-0.005,0.005-0.009,0.01-0.014,0.014
	l-9.535,9.535c-0.004,0.003-0.007,0.007-0.011,0.01c-0.003,0.003-0.007,0.007-0.011,0.011l-6.793,6.793L109.313,93.915z
	 M55.888,94.593l0.269,0.09c0.67,0.222,1.39,0.133,1.983-0.242l10.871-6.887l-12.456-7.129c-0.034-0.018-0.064-0.038-0.119-0.006
	c-0.056,0.03-0.057,0.067-0.058,0.094L55.888,94.593z M29.131,203.621c-1.555,0-3.081-0.531-4.303-1.519l-4.923-3.977
	c-2.338-1.888-3.167-5.035-2.064-7.83l8.375-21.241l0,0c0.69-1.752,2.091-3.155,3.841-3.849c1.751-0.694,3.732-0.632,5.435,0.17
	l10.338,4.867c1.812,0.853,3.153,2.449,3.683,4.379c0.529,1.931,0.188,3.988-0.935,5.646l-13.79,20.352
	c-1.07,1.58-2.767,2.646-4.653,2.928C29.799,203.596,29.465,203.621,29.131,203.621z M29.936,170.521l-8.375,21.242
	c-0.458,1.161-0.113,2.466,0.857,3.25l4.923,3.977c0.624,0.505,1.406,0.72,2.202,0.599c0.795-0.118,1.481-0.55,1.933-1.215
	l13.79-20.352c0.466-0.688,0.607-1.542,0.388-2.344s-0.777-1.463-1.528-1.817l-10.338-4.867c-0.719-0.339-1.521-0.364-2.257-0.071
	C30.794,169.216,30.227,169.784,29.936,170.521L29.936,170.521z"/>
<g>
</g>
<g>
</g>
<g>
</g>
<g>
</g>
<g>
</g>
<g>
</g>
<g>
</g>
<g>
</g>
<g>
</g>
<g>
</g>
<g>
</g>
<g>
</g>
<g>
</g>
<g>
</g>
<g>
</g>
</svg>
