<?xml version="1.0" encoding="iso-8859-1"?>
<!-- Generator: Adobe Illustrator 18.0.0, SVG Export Plug-In . SVG Version: 6.00 Build 0)  -->
<!DOCTYPE svg PUBLIC "-//W3C//DTD SVG 1.1//EN" "http://www.w3.org/Graphics/SVG/1.1/DTD/svg11.dtd">
<svg version="1.1" id="Capa_1" xmlns="http://www.w3.org/2000/svg" xmlns:xlink="http://www.w3.org/1999/xlink" x="0px" y="0px"
	 viewBox="0 0 450.638 450.638" style="enable-background:new 0 0 450.638 450.638;" xml:space="preserve">
<g>
	<path d="M133.546,176.083c-73.354-5.999-104.597,23.678-105.891,24.944c-1.88,1.839-2.015,4.818-0.309,6.818
		c0.543,0.637,13.385,15.466,42.172,30.824c5.759,16.273,16.277,35.286,35.415,52.662c0.938,0.851,2.141,1.298,3.362,1.298
		c0.637,0,1.278-0.121,1.889-0.371c1.783-0.728,2.989-2.414,3.102-4.337l1.787-30.519c31.737,9.668,70.58,14.959,110.245,14.959
		c39.665,0,78.51-5.291,110.246-14.959l1.786,30.519c0.112,1.923,1.318,3.609,3.102,4.337c0.611,0.25,1.252,0.371,1.889,0.371
		c1.221,0,2.425-0.447,3.362-1.298c19.138-17.376,29.657-36.389,35.415-52.662c28.786-15.358,41.63-30.188,42.172-30.823
		c1.707-2.001,1.572-4.98-0.308-6.819c-1.294-1.267-32.545-30.945-105.892-24.944c-35.121,2.874-63.382,4.986-91.676,4.988
		C197.122,181.073,168.797,178.966,133.546,176.083z M168.194,237.063l2.145-48.187c27.865,1.875,42.923,2.304,49.98,2.376v48.859
		C200.524,239.932,183.021,238.703,168.194,237.063z M230.318,191.253c7.057-0.072,22.115-0.501,49.982-2.377l2.142,48.193
		c-14.816,1.637-32.315,2.863-52.124,3.042V191.253z M160.359,188.181l-2.121,47.672c-20.864-2.767-35.174-6.148-41.504-7.813
		l1.88-42.703c4.509,0.083,9.208,0.309,14.115,0.712C142.955,186.886,152.129,187.589,160.359,188.181z M38.624,205.071
		c4.294-3.013,12.144-7.697,23.895-11.752c-1.261,13.008,2.701,30.259,3.013,31.62C51.945,216.816,43.146,209.341,38.624,205.071z
		 M103.947,276.341c-11.791-12.603-20.345-26.875-25.589-42.624c-0.012-0.038-0.024-0.075-0.037-0.113
		c-1.521-4.586-2.777-9.29-3.732-14.123c-2.643-13.363-2.28-24.127-1.852-29.222c9.874-2.532,21.78-4.431,35.864-4.865
		L103.947,276.341z M225.318,262.362c-39.692,0-78.427-5.415-109.642-15.261l0.518-8.849c14.288,3.649,52.769,11.882,109.124,11.882
		c56.355,0,94.837-8.232,109.125-11.882l0.519,8.849C303.746,256.947,265.012,262.362,225.318,262.362z M346.688,276.326
		l-4.653-90.93c14.085,0.434,25.991,2.333,35.863,4.864C378.845,201.604,379.403,241.221,346.688,276.326z M385.105,224.939
		c0.312-1.361,3.861-18.129,3.013-31.62c11.758,4.057,19.608,8.742,23.896,11.751C407.489,209.343,398.689,216.817,385.105,224.939z
		 M317.907,186.049c4.907-0.401,9.606-0.628,14.115-0.711l1.881,42.706c-6.325,1.667-20.622,5.052-41.504,7.817l-2.119-47.681
		C298.509,187.589,307.683,186.886,317.907,186.049z"/>
	<path d="M448.853,194.887c-0.305-0.256-30.876-25.843-66.415-49.532c-48.688-32.453-83.327-46.027-102.938-40.353
		c-4.435,1.283-8.408,2.568-12.25,3.811c-13.094,4.234-23.44,7.58-41.931,7.759c-18.489-0.179-28.836-3.524-41.929-7.759
		c-3.843-1.242-7.816-2.527-12.252-3.811c-19.617-5.674-54.251,7.9-102.938,40.353c-35.539,23.689-66.11,49.276-66.415,49.532
		c-1.805,1.516-2.307,4.086-1.204,6.169c0.789,1.49,19.747,36.909,56.905,72.843c21.868,21.147,45.499,38.007,70.238,50.112
		c31.024,15.182,63.86,22.88,97.594,22.88c33.734,0,66.569-7.698,97.595-22.88c24.738-12.105,48.37-28.966,70.237-50.112
		c37.158-35.934,56.117-71.352,56.906-72.843C451.159,198.973,450.657,196.403,448.853,194.887z M386.199,266.709
		c-33.108,32.017-87.895,70.182-160.881,70.182c-72.866,0-127.585-38.048-160.657-69.966
		c-29.473-28.444-47.519-57.234-53.252-67.035c35.535-29.311,124.201-94.753,156.949-85.282c4.286,1.24,8.184,2.501,11.954,3.721
		c13.366,4.322,24.91,8.055,44.959,8.244c0.016,0,0.031,0,0.048,0c0.008,0,0.015-0.002,0.023-0.002c0.008,0,0.016,0.002,0.023,0.002
		c20.05-0.189,31.594-3.922,44.961-8.245c3.77-1.219,7.667-2.479,11.952-3.72c32.745-9.463,121.414,55.975,156.952,85.284
		C433.522,209.661,415.592,238.288,386.199,266.709z"/>
</g>
<g>
</g>
<g>
</g>
<g>
</g>
<g>
</g>
<g>
</g>
<g>
</g>
<g>
</g>
<g>
</g>
<g>
</g>
<g>
</g>
<g>
</g>
<g>
</g>
<g>
</g>
<g>
</g>
<g>
</g>
</svg>
