<svg id="Capa_1" enable-background="new 0 0 512.001 512.001" height="512" viewBox="0 0 512.001 512.001" width="512" xmlns="http://www.w3.org/2000/svg"><path d="m482.001 132.001h-68.886c-16.542 0-30 13.458-30 30 0 15.409 11.678 28.143 26.649 29.814l-22.106 22.106c-19.081-13.089-40.764-21.966-63.5-26.027-4.017-22.766-12.82-44.293-26.073-63.556l22.101-22.101c1.671 14.971 14.405 26.649 29.814 26.649 16.542 0 30-13.458 30-30v-68.886c0-16.542-13.458-30-30-30h-68.886c-16.542 0-30 13.458-30 30 0 15.409 11.678 28.143 26.649 29.814l-22.101 22.101c-27.221-18.727-58.958-28.58-92.329-28.58-26.658 0-53.122 6.577-76.532 19.02-4.877 2.592-6.729 8.646-4.137 13.523s8.647 6.73 13.523 4.137c20.531-10.912 43.749-16.68 67.146-16.68 31.879 0 62.055 10.243 87.265 29.621 3.982 3.062 9.616 2.694 13.166-.857l45.027-45.027c2.86-2.86 3.715-7.161 2.167-10.898s-5.194-6.174-9.239-6.174h-20.605c-5.514 0-10-4.486-10-10s4.486-10 10-10h68.886c5.514 0 10 4.486 10 10v68.886c0 5.514-4.486 10-10 10s-10-4.486-10-10v-20.605c0-4.044-2.437-7.691-6.173-9.239-3.735-1.547-8.037-.692-10.898 2.167l-45.027 45.027c-3.551 3.551-3.917 9.185-.857 13.166 15.581 20.269 25.251 43.751 28.444 68.746.011.073.016.147.029.22.76 6.02 1.148 12.126 1.148 18.298 0 68.183-48.485 126.846-114.323 140.387-.223-2.767-.342-5.562-.342-8.385 0-4.125.266-8.196.739-12.208 47.408-11.563 83.036-49.946 91.823-97.063.013-.057.021-.116.033-.174 1.356-7.332 2.068-14.872 2.068-22.556 0-7.257-.635-14.367-1.843-21.283 0-.004 0-.007-.001-.011-.002-.016-.007-.031-.009-.047-10.137-57.87-60.751-101.991-121.479-101.991-68.005 0-123.332 55.327-123.332 123.332 0 56.75 38.374 105.573 92.492 119.442-.32 4.165-.492 8.354-.492 12.56 0 2.659.069 5.301.195 7.929-64.771-14.35-112.195-72.422-112.195-139.931 0-23.394 5.769-46.615 16.684-67.152 2.592-4.877.739-10.932-4.138-13.523-4.878-2.591-10.932-.739-13.523 4.138-12.445 23.416-19.023 49.883-19.023 76.537 0 79.227 57.327 147.056 134.543 160.795 13.641 76.378 80.551 134.539 160.791 134.539 90.062 0 163.333-73.271 163.333-163.333 0-33.372-9.853-65.109-28.581-92.33l22.101-22.101c1.671 14.971 14.405 26.649 29.814 26.649 16.542 0 30-13.458 30-30v-68.886c0-16.541-13.458-29.999-30-29.999zm-196.157 192.682c19.05-21.588 31.901-47.643 37.552-75.486 44.163 12.361 75.271 52.698 75.271 99.472 0 56.978-46.355 103.333-103.333 103.333-47.25 0-87.193-31.879-99.455-75.258 34.686-7.029 66.312-25.258 89.965-52.061zm-87.878-10.641c10.294-28.993 33.192-52.288 62.736-62.747-10.295 28.993-33.192 52.288-62.736 62.747zm-137.966-97.375c0-56.978 46.355-103.333 103.333-103.333 47.25 0 87.193 31.879 99.455 75.258-34.686 7.029-66.313 25.258-89.965 52.061-19.05 21.588-31.901 47.644-37.552 75.487-44.163-12.362-75.271-52.698-75.271-99.473zm432.001 14.22c0 5.514-4.486 10-10 10s-10-4.486-10-10v-20.604c0-4.044-2.437-7.691-6.173-9.239-3.736-1.547-8.038-.693-10.898 2.167l-45.027 45.027c-3.551 3.551-3.918 9.185-.857 13.166 19.378 25.21 29.621 55.386 29.621 87.265 0 79.034-64.299 143.333-143.333 143.333s-143.333-64.299-143.333-143.333c0-68.183 48.485-126.846 114.323-140.387.223 2.767.342 5.562.342 8.385 0 4.125-.266 8.196-.739 12.208-47.402 11.562-83.028 49.938-91.82 97.046-.02.089-.033.179-.051.268-1.347 7.307-2.054 14.822-2.054 22.48 0 7.257.635 14.367 1.843 21.283 0 .004 0 .007.001.011.003.021.008.041.011.061 10.143 57.863 60.753 101.977 121.477 101.977 68.006 0 123.333-55.327 123.333-123.333 0-56.75-38.374-105.573-92.492-119.441.32-4.165.492-8.354.492-12.56 0-2.65-.069-5.289-.193-7.917 20.316 4.513 39.519 13.442 56.125 26.207 3.982 3.061 9.615 2.693 13.166-.857l45.027-45.027c2.86-2.86 3.715-7.162 2.167-10.898-1.548-3.737-5.194-6.173-9.239-6.173h-20.605c-5.514 0-10-4.486-10-10s4.486-10 10-10h68.886c5.514 0 10 4.486 10 10z"/><path d="m54.909 118.247c2.719 0 5.429-1.103 7.402-3.273l.005-.005c3.715-4.086 3.411-10.408-.675-14.123s-10.413-3.411-14.128.675-3.414 10.411.673 14.126c1.916 1.741 4.323 2.6 6.723 2.6z"/></svg>